if (_typeface_js && _typeface_js.loadFace) _typeface_js.loadFace({"glyphs":{"0":{"ha":1656,"x_min":0,"x_max":0,"o":"m 1576 131 b 1553 176 1576 146 1568 161 b 1517 226 1529 200 1517 217 b 1531 247 1517 240 1521 247 b 1549 224 1540 247 1547 239 l 1575 229 b 1531 272 1574 258 1558 272 b 1488 225 1501 272 1488 257 b 1494 197 1488 215 1490 207 b 1526 165 1504 186 1515 175 b 1549 129 1542 149 1549 136 b 1531 107 1549 115 1543 108 b 1511 136 1519 107 1513 117 l 1496 144 l 1485 135 b 1532 82 1486 100 1503 82 b 1576 131 1563 82 1578 99 z m 1407 83 l 1421 74 l 1435 83 l 1435 242 l 1465 242 l 1465 269 l 1378 269 l 1378 242 l 1407 242 z m 1539 0 l 1563 50 l 1557 50 l 1533 0 z m 1482 1 l 1482 28 l 1500 6 l 1501 6 l 1518 28 l 1518 1 l 1526 1 l 1526 40 l 1519 40 l 1501 17 l 1482 40 l 1475 40 l 1475 1 z m 669 844 l 381 813 l 597 614 l 538 331 l 793 475 l 1046 331 l 986 618 l 1201 813 l 910 846 l 792 1111 z m 1258 269 l 1249 256 l 1258 243 l 1258 83 l 1286 83 l 1286 203 l 1325 83 l 1356 83 l 1356 269 l 1326 269 l 1326 144 l 1290 269 z m 1410 11 b 1419 1 1410 4 1413 1 l 1449 1 b 1458 11 1456 1 1458 4 l 1458 31 b 1449 40 1458 38 1456 40 l 1419 40 b 1410 31 1413 40 1410 38 z m 1386 25 l 1394 26 l 1394 31 b 1385 40 1394 38 1392 40 l 1361 40 b 1351 31 1354 40 1351 38 l 1351 11 b 1361 1 1351 4 1354 1 l 1385 1 b 1394 11 1392 1 1394 4 l 1394 15 l 1386 17 l 1386 8 l 1361 8 l 1361 32 l 1386 32 z m 1189 272 b 1144 228 1160 272 1144 257 l 1144 126 b 1189 82 1144 97 1160 82 b 1233 126 1218 82 1233 97 l 1233 228 b 1189 272 1233 257 1218 272 z m 1322 15 l 1322 3 b 1324 1 1322 1 1322 1 l 1335 1 b 1336 4 1336 3 1336 3 l 1336 13 b 1335 15 1336 14 1336 14 z m 1310 33 l 1310 40 l 1264 40 l 1264 33 l 1282 33 l 1282 1 l 1292 1 l 1292 33 z m 1074 163 l 1111 163 l 1111 190 l 1074 190 l 1074 242 l 1125 242 l 1125 269 l 1046 269 l 1036 256 l 1046 242 l 1046 83 l 1074 83 z m 1204 11 b 1214 1 1204 4 1207 1 l 1243 1 b 1253 11 1250 1 1253 4 l 1253 31 b 1243 40 1253 38 1250 40 l 1214 40 b 1204 31 1207 40 1204 38 z m 1157 1 l 1157 17 l 1182 17 b 1192 24 1189 17 1192 19 l 1192 32 b 1182 40 1192 38 1189 40 l 1147 40 l 1147 1 z m 1007 111 l 958 111 l 958 269 l 944 281 l 931 269 l 931 83 l 1007 83 z m 1124 29 l 1131 31 l 1131 32 b 1121 40 1131 38 1128 40 l 1099 40 b 1089 31 1092 40 1089 38 l 1089 26 b 1099 17 1089 19 1092 17 l 1124 17 l 1124 8 l 1094 8 l 1094 13 l 1088 11 b 1097 1 1088 4 1090 1 l 1122 1 b 1132 11 1129 1 1132 4 l 1132 15 b 1122 25 1132 22 1129 25 l 1097 25 l 1097 33 l 1124 33 z m 1063 29 l 1072 31 b 1063 40 1072 38 1069 40 l 1035 40 b 1025 31 1028 40 1025 38 l 1025 11 b 1035 1 1025 4 1028 1 l 1063 1 b 1072 11 1069 1 1072 4 l 1072 24 l 1047 24 l 1047 17 l 1063 17 l 1063 8 l 1033 8 l 1033 32 l 1063 32 z m 911 83 l 911 111 l 860 111 l 860 163 l 897 163 l 897 190 l 860 190 l 860 242 l 911 242 l 911 269 l 832 269 l 822 256 l 832 242 l 832 83 z m 960 11 b 969 1 960 4 963 1 l 1000 1 b 1010 11 1007 1 1010 4 l 1010 31 b 1000 40 1010 38 1007 40 l 969 40 b 960 31 963 40 960 38 z m 950 1 l 950 8 l 921 8 l 921 40 l 911 40 l 911 1 z m 763 81 b 807 125 792 81 807 96 l 807 190 l 763 190 l 751 175 l 763 163 l 778 163 l 778 126 b 763 110 778 115 772 110 b 746 126 751 110 746 115 l 746 228 b 763 244 746 239 751 244 b 778 228 772 244 778 239 l 778 206 l 807 206 l 807 226 b 763 272 807 257 792 272 b 718 226 733 272 718 257 l 718 125 b 763 81 718 96 733 81 z m 883 1 b 896 8 892 1 896 4 l 896 14 b 889 21 896 18 893 19 b 894 28 893 22 894 24 l 894 32 b 886 40 894 38 892 40 l 851 40 l 851 1 z m 822 15 b 821 13 821 14 821 14 l 821 4 b 824 1 821 3 822 1 l 835 1 l 835 15 z m 606 269 l 596 256 l 606 243 l 606 83 l 633 83 l 633 154 l 651 154 l 668 83 l 699 83 l 678 165 b 693 199 688 174 693 185 l 693 225 b 649 269 693 254 678 269 z m 811 1 l 811 8 l 782 8 l 782 40 l 772 40 l 772 1 z m 758 1 l 758 8 l 726 8 l 726 18 l 744 18 l 744 25 l 726 25 l 726 33 l 758 33 l 758 40 l 717 40 l 717 1 z m 546 126 l 551 83 l 567 75 l 582 83 l 550 269 l 511 269 l 481 83 l 494 75 l 510 83 l 517 126 z m 692 29 l 701 31 b 692 40 701 38 699 40 l 664 40 b 654 31 657 40 654 38 l 654 11 b 664 1 654 4 657 1 l 692 1 b 701 11 699 1 701 4 l 701 24 l 676 24 l 676 17 l 692 17 l 692 8 l 663 8 l 663 32 l 692 32 z m 606 1 l 606 15 l 614 15 l 631 1 l 643 1 l 625 15 l 631 15 b 639 24 636 15 639 18 l 639 32 b 631 40 639 38 636 40 l 596 40 l 596 1 z m 542 1 l 546 10 l 571 10 l 576 1 l 586 1 l 564 40 l 554 40 l 532 1 z m 376 83 l 404 83 l 404 161 l 442 269 l 411 269 l 390 203 l 369 269 l 339 269 l 376 161 z m 513 1 l 513 19 l 533 40 l 522 40 l 508 25 l 496 40 l 483 40 l 504 18 l 504 1 z m 354 111 l 306 111 l 306 269 l 290 281 l 278 269 l 278 83 l 354 83 z m 489 1 l 489 8 l 458 8 l 458 40 l 449 40 l 449 1 z m 439 1 l 439 8 l 408 8 l 408 40 l 400 40 l 400 1 z m 258 111 l 210 111 l 210 269 l 194 281 l 182 269 l 182 83 l 258 83 z m 382 1 l 382 40 l 374 40 l 374 1 z m 346 1 b 357 8 353 1 357 4 l 357 14 b 350 21 357 18 354 19 b 357 28 354 22 357 24 l 357 32 b 349 40 357 38 354 40 l 314 40 l 314 1 z m 283 0 l 307 50 l 301 50 l 278 0 z m 157 269 l 128 269 l 128 83 l 142 74 l 157 83 z m 258 0 l 282 50 l 276 50 l 253 0 z m 238 40 b 233 39 236 40 235 40 l 233 26 l 247 26 l 247 39 b 244 40 246 40 246 40 z m 233 15 l 233 3 l 235 1 l 247 1 l 247 15 z m 61 83 b 104 136 90 83 104 101 b 81 181 104 160 96 175 b 100 218 93 188 100 200 b 51 269 100 253 83 269 l 10 269 l 0 254 l 10 242 l 10 83 z m 186 1 l 186 17 l 211 17 b 221 24 218 17 221 19 l 221 32 b 211 40 221 38 218 40 l 176 40 l 176 1 z m 165 33 l 165 40 l 119 40 l 119 33 l 138 33 l 138 1 l 146 1 l 146 33 z m 115 33 l 115 40 l 69 40 l 69 33 l 88 33 l 88 1 l 97 1 l 97 33 z m 19 1 l 19 18 l 49 18 l 49 1 l 57 1 l 57 40 l 49 40 l 49 25 l 19 25 l 19 40 l 10 40 l 10 1 z m 868 474 l 835 493 l 821 585 l 758 585 l 743 493 l 713 474 l 681 493 l 749 894 l 832 894 l 899 493 z m 1418 32 l 1450 32 l 1450 8 l 1418 8 z m 1204 126 b 1189 110 1204 115 1199 110 b 1172 126 1178 110 1172 115 l 1172 228 b 1189 244 1172 239 1178 244 b 1204 228 1199 244 1204 239 z m 1213 32 l 1243 32 l 1243 8 l 1213 8 z m 1178 33 b 1182 31 1181 33 1182 32 l 1182 26 b 1178 24 1182 25 1181 24 l 1157 24 l 1157 33 z m 969 32 l 1000 32 l 1000 8 l 969 8 z m 882 33 b 886 31 885 33 886 32 l 886 28 b 882 25 886 26 885 25 l 861 25 l 861 33 z m 882 18 b 886 15 885 18 886 17 l 886 11 b 882 8 886 10 885 8 l 861 8 l 861 18 z m 665 197 b 650 182 665 188 660 182 l 633 182 l 633 240 l 650 240 b 665 225 660 240 665 235 z m 542 154 l 521 154 l 531 226 z m 626 33 b 631 31 629 33 631 32 l 631 25 b 626 22 631 24 629 22 l 606 22 l 606 33 z m 558 33 l 568 17 l 550 17 z m 344 33 b 349 31 347 33 349 32 l 349 28 b 344 25 349 26 347 25 l 322 25 l 322 33 z m 344 18 b 349 15 347 18 349 17 l 349 11 b 344 8 349 10 347 8 l 322 8 l 322 18 z m 40 242 l 51 242 b 71 218 64 242 71 233 b 51 193 71 201 64 193 l 40 193 z m 207 33 b 211 31 210 33 211 32 l 211 26 b 207 24 211 25 210 24 l 186 24 l 186 33 z m 40 167 l 51 167 b 74 138 67 167 74 157 b 51 111 74 119 67 111 l 40 111 z m 767 644 l 813 644 l 789 803 z "},"1":{"ha":1656,"x_min":0,"x_max":0,"o":"m 1576 131 b 1553 176 1576 146 1568 161 b 1517 226 1529 200 1517 217 b 1531 247 1517 240 1521 247 b 1549 224 1540 247 1547 239 l 1575 229 b 1531 272 1574 258 1558 272 b 1488 225 1501 272 1488 257 b 1494 197 1488 215 1490 207 b 1526 165 1504 186 1515 175 b 1549 129 1542 149 1549 136 b 1531 107 1549 115 1543 108 b 1511 136 1519 107 1513 117 l 1496 144 l 1485 135 b 1532 82 1486 100 1503 82 b 1576 131 1563 82 1578 99 z m 1407 83 l 1421 74 l 1435 83 l 1435 242 l 1465 242 l 1465 269 l 1378 269 l 1378 242 l 1407 242 z m 1539 0 l 1563 50 l 1557 50 l 1533 0 z m 1482 1 l 1482 28 l 1500 6 l 1501 6 l 1518 28 l 1518 1 l 1526 1 l 1526 40 l 1519 40 l 1501 17 l 1482 40 l 1475 40 l 1475 1 z m 669 844 l 381 813 l 597 614 l 538 331 l 793 475 l 1046 331 l 986 618 l 1201 813 l 910 846 l 792 1111 z m 1258 269 l 1249 256 l 1258 243 l 1258 83 l 1286 83 l 1286 203 l 1325 83 l 1356 83 l 1356 269 l 1326 269 l 1326 144 l 1290 269 z m 1410 11 b 1419 1 1410 4 1413 1 l 1449 1 b 1458 11 1456 1 1458 4 l 1458 31 b 1449 40 1458 38 1456 40 l 1419 40 b 1410 31 1413 40 1410 38 z m 1386 25 l 1394 26 l 1394 31 b 1385 40 1394 38 1392 40 l 1361 40 b 1351 31 1354 40 1351 38 l 1351 11 b 1361 1 1351 4 1354 1 l 1385 1 b 1394 11 1392 1 1394 4 l 1394 15 l 1386 17 l 1386 8 l 1361 8 l 1361 32 l 1386 32 z m 1189 272 b 1144 228 1160 272 1144 257 l 1144 126 b 1189 82 1144 97 1160 82 b 1233 126 1218 82 1233 97 l 1233 228 b 1189 272 1233 257 1218 272 z m 1322 15 l 1322 3 b 1324 1 1322 1 1322 1 l 1335 1 b 1336 4 1336 3 1336 3 l 1336 13 b 1335 15 1336 14 1336 14 z m 1310 33 l 1310 40 l 1264 40 l 1264 33 l 1282 33 l 1282 1 l 1292 1 l 1292 33 z m 1074 163 l 1111 163 l 1111 190 l 1074 190 l 1074 242 l 1125 242 l 1125 269 l 1046 269 l 1036 256 l 1046 242 l 1046 83 l 1074 83 z m 1204 11 b 1214 1 1204 4 1207 1 l 1243 1 b 1253 11 1250 1 1253 4 l 1253 31 b 1243 40 1253 38 1250 40 l 1214 40 b 1204 31 1207 40 1204 38 z m 1157 1 l 1157 17 l 1182 17 b 1192 24 1189 17 1192 19 l 1192 32 b 1182 40 1192 38 1189 40 l 1147 40 l 1147 1 z m 1007 111 l 958 111 l 958 269 l 944 281 l 931 269 l 931 83 l 1007 83 z m 1124 29 l 1131 31 l 1131 32 b 1121 40 1131 38 1128 40 l 1099 40 b 1089 31 1092 40 1089 38 l 1089 26 b 1099 17 1089 19 1092 17 l 1124 17 l 1124 8 l 1094 8 l 1094 13 l 1088 11 b 1097 1 1088 4 1090 1 l 1122 1 b 1132 11 1129 1 1132 4 l 1132 15 b 1122 25 1132 22 1129 25 l 1097 25 l 1097 33 l 1124 33 z m 1063 29 l 1072 31 b 1063 40 1072 38 1069 40 l 1035 40 b 1025 31 1028 40 1025 38 l 1025 11 b 1035 1 1025 4 1028 1 l 1063 1 b 1072 11 1069 1 1072 4 l 1072 24 l 1047 24 l 1047 17 l 1063 17 l 1063 8 l 1033 8 l 1033 32 l 1063 32 z m 911 83 l 911 111 l 860 111 l 860 163 l 897 163 l 897 190 l 860 190 l 860 242 l 911 242 l 911 269 l 832 269 l 822 256 l 832 242 l 832 83 z m 960 11 b 969 1 960 4 963 1 l 1000 1 b 1010 11 1007 1 1010 4 l 1010 31 b 1000 40 1010 38 1007 40 l 969 40 b 960 31 963 40 960 38 z m 950 1 l 950 8 l 921 8 l 921 40 l 911 40 l 911 1 z m 763 81 b 807 125 792 81 807 96 l 807 190 l 763 190 l 751 175 l 763 163 l 778 163 l 778 126 b 763 110 778 115 772 110 b 746 126 751 110 746 115 l 746 228 b 763 244 746 239 751 244 b 778 228 772 244 778 239 l 778 206 l 807 206 l 807 226 b 763 272 807 257 792 272 b 718 226 733 272 718 257 l 718 125 b 763 81 718 96 733 81 z m 883 1 b 896 8 892 1 896 4 l 896 14 b 889 21 896 18 893 19 b 894 28 893 22 894 24 l 894 32 b 886 40 894 38 892 40 l 851 40 l 851 1 z m 822 15 b 821 13 821 14 821 14 l 821 4 b 824 1 821 3 822 1 l 835 1 l 835 15 z m 606 269 l 596 256 l 606 243 l 606 83 l 633 83 l 633 154 l 651 154 l 668 83 l 699 83 l 678 165 b 693 199 688 174 693 185 l 693 225 b 649 269 693 254 678 269 z m 811 1 l 811 8 l 782 8 l 782 40 l 772 40 l 772 1 z m 758 1 l 758 8 l 726 8 l 726 18 l 744 18 l 744 25 l 726 25 l 726 33 l 758 33 l 758 40 l 717 40 l 717 1 z m 546 126 l 551 83 l 567 75 l 582 83 l 550 269 l 511 269 l 481 83 l 494 75 l 510 83 l 517 126 z m 692 29 l 701 31 b 692 40 701 38 699 40 l 664 40 b 654 31 657 40 654 38 l 654 11 b 664 1 654 4 657 1 l 692 1 b 701 11 699 1 701 4 l 701 24 l 676 24 l 676 17 l 692 17 l 692 8 l 663 8 l 663 32 l 692 32 z m 606 1 l 606 15 l 614 15 l 631 1 l 643 1 l 625 15 l 631 15 b 639 24 636 15 639 18 l 639 32 b 631 40 639 38 636 40 l 596 40 l 596 1 z m 542 1 l 546 10 l 571 10 l 576 1 l 586 1 l 564 40 l 554 40 l 532 1 z m 376 83 l 404 83 l 404 161 l 442 269 l 411 269 l 390 203 l 369 269 l 339 269 l 376 161 z m 513 1 l 513 19 l 533 40 l 522 40 l 508 25 l 496 40 l 483 40 l 504 18 l 504 1 z m 354 111 l 306 111 l 306 269 l 290 281 l 278 269 l 278 83 l 354 83 z m 489 1 l 489 8 l 458 8 l 458 40 l 449 40 l 449 1 z m 439 1 l 439 8 l 408 8 l 408 40 l 400 40 l 400 1 z m 258 111 l 210 111 l 210 269 l 194 281 l 182 269 l 182 83 l 258 83 z m 382 1 l 382 40 l 374 40 l 374 1 z m 346 1 b 357 8 353 1 357 4 l 357 14 b 350 21 357 18 354 19 b 357 28 354 22 357 24 l 357 32 b 349 40 357 38 354 40 l 314 40 l 314 1 z m 283 0 l 307 50 l 301 50 l 278 0 z m 157 269 l 128 269 l 128 83 l 142 74 l 157 83 z m 258 0 l 282 50 l 276 50 l 253 0 z m 238 40 b 233 39 236 40 235 40 l 233 26 l 247 26 l 247 39 b 244 40 246 40 246 40 z m 233 15 l 233 3 l 235 1 l 247 1 l 247 15 z m 61 83 b 104 136 90 83 104 101 b 81 181 104 160 96 175 b 100 218 93 188 100 200 b 51 269 100 253 83 269 l 10 269 l 0 254 l 10 242 l 10 83 z m 186 1 l 186 17 l 211 17 b 221 24 218 17 221 19 l 221 32 b 211 40 221 38 218 40 l 176 40 l 176 1 z m 165 33 l 165 40 l 119 40 l 119 33 l 138 33 l 138 1 l 146 1 l 146 33 z m 115 33 l 115 40 l 69 40 l 69 33 l 88 33 l 88 1 l 97 1 l 97 33 z m 19 1 l 19 18 l 49 18 l 49 1 l 57 1 l 57 40 l 49 40 l 49 25 l 19 25 l 19 40 l 10 40 l 10 1 z m 868 474 l 835 493 l 821 585 l 758 585 l 743 493 l 713 474 l 681 493 l 749 894 l 832 894 l 899 493 z m 1418 32 l 1450 32 l 1450 8 l 1418 8 z m 1204 126 b 1189 110 1204 115 1199 110 b 1172 126 1178 110 1172 115 l 1172 228 b 1189 244 1172 239 1178 244 b 1204 228 1199 244 1204 239 z m 1213 32 l 1243 32 l 1243 8 l 1213 8 z m 1178 33 b 1182 31 1181 33 1182 32 l 1182 26 b 1178 24 1182 25 1181 24 l 1157 24 l 1157 33 z m 969 32 l 1000 32 l 1000 8 l 969 8 z m 882 33 b 886 31 885 33 886 32 l 886 28 b 882 25 886 26 885 25 l 861 25 l 861 33 z m 882 18 b 886 15 885 18 886 17 l 886 11 b 882 8 886 10 885 8 l 861 8 l 861 18 z m 665 197 b 650 182 665 188 660 182 l 633 182 l 633 240 l 650 240 b 665 225 660 240 665 235 z m 542 154 l 521 154 l 531 226 z m 626 33 b 631 31 629 33 631 32 l 631 25 b 626 22 631 24 629 22 l 606 22 l 606 33 z m 558 33 l 568 17 l 550 17 z m 344 33 b 349 31 347 33 349 32 l 349 28 b 344 25 349 26 347 25 l 322 25 l 322 33 z m 344 18 b 349 15 347 18 349 17 l 349 11 b 344 8 349 10 347 8 l 322 8 l 322 18 z m 40 242 l 51 242 b 71 218 64 242 71 233 b 51 193 71 201 64 193 l 40 193 z m 207 33 b 211 31 210 33 211 32 l 211 26 b 207 24 211 25 210 24 l 186 24 l 186 33 z m 40 167 l 51 167 b 74 138 67 167 74 157 b 51 111 74 119 67 111 l 40 111 z m 767 644 l 813 644 l 789 803 z "},"2":{"ha":1656,"x_min":0,"x_max":0,"o":"m 1576 131 b 1553 176 1576 146 1568 161 b 1517 226 1529 200 1517 217 b 1531 247 1517 240 1521 247 b 1549 224 1540 247 1547 239 l 1575 229 b 1531 272 1574 258 1558 272 b 1488 225 1501 272 1488 257 b 1494 197 1488 215 1490 207 b 1526 165 1504 186 1515 175 b 1549 129 1542 149 1549 136 b 1531 107 1549 115 1543 108 b 1511 136 1519 107 1513 117 l 1496 144 l 1485 135 b 1532 82 1486 100 1503 82 b 1576 131 1563 82 1578 99 z m 1407 83 l 1421 74 l 1435 83 l 1435 242 l 1465 242 l 1465 269 l 1378 269 l 1378 242 l 1407 242 z m 1539 0 l 1563 50 l 1557 50 l 1533 0 z m 1482 1 l 1482 28 l 1500 6 l 1501 6 l 1518 28 l 1518 1 l 1526 1 l 1526 40 l 1519 40 l 1501 17 l 1482 40 l 1475 40 l 1475 1 z m 669 844 l 381 813 l 597 614 l 538 331 l 793 475 l 1046 331 l 986 618 l 1201 813 l 910 846 l 792 1111 z m 1258 269 l 1249 256 l 1258 243 l 1258 83 l 1286 83 l 1286 203 l 1325 83 l 1356 83 l 1356 269 l 1326 269 l 1326 144 l 1290 269 z m 1410 11 b 1419 1 1410 4 1413 1 l 1449 1 b 1458 11 1456 1 1458 4 l 1458 31 b 1449 40 1458 38 1456 40 l 1419 40 b 1410 31 1413 40 1410 38 z m 1386 25 l 1394 26 l 1394 31 b 1385 40 1394 38 1392 40 l 1361 40 b 1351 31 1354 40 1351 38 l 1351 11 b 1361 1 1351 4 1354 1 l 1385 1 b 1394 11 1392 1 1394 4 l 1394 15 l 1386 17 l 1386 8 l 1361 8 l 1361 32 l 1386 32 z m 1189 272 b 1144 228 1160 272 1144 257 l 1144 126 b 1189 82 1144 97 1160 82 b 1233 126 1218 82 1233 97 l 1233 228 b 1189 272 1233 257 1218 272 z m 1322 15 l 1322 3 b 1324 1 1322 1 1322 1 l 1335 1 b 1336 4 1336 3 1336 3 l 1336 13 b 1335 15 1336 14 1336 14 z m 1310 33 l 1310 40 l 1264 40 l 1264 33 l 1282 33 l 1282 1 l 1292 1 l 1292 33 z m 1074 163 l 1111 163 l 1111 190 l 1074 190 l 1074 242 l 1125 242 l 1125 269 l 1046 269 l 1036 256 l 1046 242 l 1046 83 l 1074 83 z m 1204 11 b 1214 1 1204 4 1207 1 l 1243 1 b 1253 11 1250 1 1253 4 l 1253 31 b 1243 40 1253 38 1250 40 l 1214 40 b 1204 31 1207 40 1204 38 z m 1157 1 l 1157 17 l 1182 17 b 1192 24 1189 17 1192 19 l 1192 32 b 1182 40 1192 38 1189 40 l 1147 40 l 1147 1 z m 1007 111 l 958 111 l 958 269 l 944 281 l 931 269 l 931 83 l 1007 83 z m 1124 29 l 1131 31 l 1131 32 b 1121 40 1131 38 1128 40 l 1099 40 b 1089 31 1092 40 1089 38 l 1089 26 b 1099 17 1089 19 1092 17 l 1124 17 l 1124 8 l 1094 8 l 1094 13 l 1088 11 b 1097 1 1088 4 1090 1 l 1122 1 b 1132 11 1129 1 1132 4 l 1132 15 b 1122 25 1132 22 1129 25 l 1097 25 l 1097 33 l 1124 33 z m 1063 29 l 1072 31 b 1063 40 1072 38 1069 40 l 1035 40 b 1025 31 1028 40 1025 38 l 1025 11 b 1035 1 1025 4 1028 1 l 1063 1 b 1072 11 1069 1 1072 4 l 1072 24 l 1047 24 l 1047 17 l 1063 17 l 1063 8 l 1033 8 l 1033 32 l 1063 32 z m 911 83 l 911 111 l 860 111 l 860 163 l 897 163 l 897 190 l 860 190 l 860 242 l 911 242 l 911 269 l 832 269 l 822 256 l 832 242 l 832 83 z m 960 11 b 969 1 960 4 963 1 l 1000 1 b 1010 11 1007 1 1010 4 l 1010 31 b 1000 40 1010 38 1007 40 l 969 40 b 960 31 963 40 960 38 z m 950 1 l 950 8 l 921 8 l 921 40 l 911 40 l 911 1 z m 763 81 b 807 125 792 81 807 96 l 807 190 l 763 190 l 751 175 l 763 163 l 778 163 l 778 126 b 763 110 778 115 772 110 b 746 126 751 110 746 115 l 746 228 b 763 244 746 239 751 244 b 778 228 772 244 778 239 l 778 206 l 807 206 l 807 226 b 763 272 807 257 792 272 b 718 226 733 272 718 257 l 718 125 b 763 81 718 96 733 81 z m 883 1 b 896 8 892 1 896 4 l 896 14 b 889 21 896 18 893 19 b 894 28 893 22 894 24 l 894 32 b 886 40 894 38 892 40 l 851 40 l 851 1 z m 822 15 b 821 13 821 14 821 14 l 821 4 b 824 1 821 3 822 1 l 835 1 l 835 15 z m 606 269 l 596 256 l 606 243 l 606 83 l 633 83 l 633 154 l 651 154 l 668 83 l 699 83 l 678 165 b 693 199 688 174 693 185 l 693 225 b 649 269 693 254 678 269 z m 811 1 l 811 8 l 782 8 l 782 40 l 772 40 l 772 1 z m 758 1 l 758 8 l 726 8 l 726 18 l 744 18 l 744 25 l 726 25 l 726 33 l 758 33 l 758 40 l 717 40 l 717 1 z m 546 126 l 551 83 l 567 75 l 582 83 l 550 269 l 511 269 l 481 83 l 494 75 l 510 83 l 517 126 z m 692 29 l 701 31 b 692 40 701 38 699 40 l 664 40 b 654 31 657 40 654 38 l 654 11 b 664 1 654 4 657 1 l 692 1 b 701 11 699 1 701 4 l 701 24 l 676 24 l 676 17 l 692 17 l 692 8 l 663 8 l 663 32 l 692 32 z m 606 1 l 606 15 l 614 15 l 631 1 l 643 1 l 625 15 l 631 15 b 639 24 636 15 639 18 l 639 32 b 631 40 639 38 636 40 l 596 40 l 596 1 z m 542 1 l 546 10 l 571 10 l 576 1 l 586 1 l 564 40 l 554 40 l 532 1 z m 376 83 l 404 83 l 404 161 l 442 269 l 411 269 l 390 203 l 369 269 l 339 269 l 376 161 z m 513 1 l 513 19 l 533 40 l 522 40 l 508 25 l 496 40 l 483 40 l 504 18 l 504 1 z m 354 111 l 306 111 l 306 269 l 290 281 l 278 269 l 278 83 l 354 83 z m 489 1 l 489 8 l 458 8 l 458 40 l 449 40 l 449 1 z m 439 1 l 439 8 l 408 8 l 408 40 l 400 40 l 400 1 z m 258 111 l 210 111 l 210 269 l 194 281 l 182 269 l 182 83 l 258 83 z m 382 1 l 382 40 l 374 40 l 374 1 z m 346 1 b 357 8 353 1 357 4 l 357 14 b 350 21 357 18 354 19 b 357 28 354 22 357 24 l 357 32 b 349 40 357 38 354 40 l 314 40 l 314 1 z m 283 0 l 307 50 l 301 50 l 278 0 z m 157 269 l 128 269 l 128 83 l 142 74 l 157 83 z m 258 0 l 282 50 l 276 50 l 253 0 z m 238 40 b 233 39 236 40 235 40 l 233 26 l 247 26 l 247 39 b 244 40 246 40 246 40 z m 233 15 l 233 3 l 235 1 l 247 1 l 247 15 z m 61 83 b 104 136 90 83 104 101 b 81 181 104 160 96 175 b 100 218 93 188 100 200 b 51 269 100 253 83 269 l 10 269 l 0 254 l 10 242 l 10 83 z m 186 1 l 186 17 l 211 17 b 221 24 218 17 221 19 l 221 32 b 211 40 221 38 218 40 l 176 40 l 176 1 z m 165 33 l 165 40 l 119 40 l 119 33 l 138 33 l 138 1 l 146 1 l 146 33 z m 115 33 l 115 40 l 69 40 l 69 33 l 88 33 l 88 1 l 97 1 l 97 33 z m 19 1 l 19 18 l 49 18 l 49 1 l 57 1 l 57 40 l 49 40 l 49 25 l 19 25 l 19 40 l 10 40 l 10 1 z m 868 474 l 835 493 l 821 585 l 758 585 l 743 493 l 713 474 l 681 493 l 749 894 l 832 894 l 899 493 z m 1418 32 l 1450 32 l 1450 8 l 1418 8 z m 1204 126 b 1189 110 1204 115 1199 110 b 1172 126 1178 110 1172 115 l 1172 228 b 1189 244 1172 239 1178 244 b 1204 228 1199 244 1204 239 z m 1213 32 l 1243 32 l 1243 8 l 1213 8 z m 1178 33 b 1182 31 1181 33 1182 32 l 1182 26 b 1178 24 1182 25 1181 24 l 1157 24 l 1157 33 z m 969 32 l 1000 32 l 1000 8 l 969 8 z m 882 33 b 886 31 885 33 886 32 l 886 28 b 882 25 886 26 885 25 l 861 25 l 861 33 z m 882 18 b 886 15 885 18 886 17 l 886 11 b 882 8 886 10 885 8 l 861 8 l 861 18 z m 665 197 b 650 182 665 188 660 182 l 633 182 l 633 240 l 650 240 b 665 225 660 240 665 235 z m 542 154 l 521 154 l 531 226 z m 626 33 b 631 31 629 33 631 32 l 631 25 b 626 22 631 24 629 22 l 606 22 l 606 33 z m 558 33 l 568 17 l 550 17 z m 344 33 b 349 31 347 33 349 32 l 349 28 b 344 25 349 26 347 25 l 322 25 l 322 33 z m 344 18 b 349 15 347 18 349 17 l 349 11 b 344 8 349 10 347 8 l 322 8 l 322 18 z m 40 242 l 51 242 b 71 218 64 242 71 233 b 51 193 71 201 64 193 l 40 193 z m 207 33 b 211 31 210 33 211 32 l 211 26 b 207 24 211 25 210 24 l 186 24 l 186 33 z m 40 167 l 51 167 b 74 138 67 167 74 157 b 51 111 74 119 67 111 l 40 111 z m 767 644 l 813 644 l 789 803 z "},"3":{"ha":1656,"x_min":0,"x_max":0,"o":"m 1576 131 b 1553 176 1576 146 1568 161 b 1517 226 1529 200 1517 217 b 1531 247 1517 240 1521 247 b 1549 224 1540 247 1547 239 l 1575 229 b 1531 272 1574 258 1558 272 b 1488 225 1501 272 1488 257 b 1494 197 1488 215 1490 207 b 1526 165 1504 186 1515 175 b 1549 129 1542 149 1549 136 b 1531 107 1549 115 1543 108 b 1511 136 1519 107 1513 117 l 1496 144 l 1485 135 b 1532 82 1486 100 1503 82 b 1576 131 1563 82 1578 99 z m 1407 83 l 1421 74 l 1435 83 l 1435 242 l 1465 242 l 1465 269 l 1378 269 l 1378 242 l 1407 242 z m 1539 0 l 1563 50 l 1557 50 l 1533 0 z m 1482 1 l 1482 28 l 1500 6 l 1501 6 l 1518 28 l 1518 1 l 1526 1 l 1526 40 l 1519 40 l 1501 17 l 1482 40 l 1475 40 l 1475 1 z m 669 844 l 381 813 l 597 614 l 538 331 l 793 475 l 1046 331 l 986 618 l 1201 813 l 910 846 l 792 1111 z m 1258 269 l 1249 256 l 1258 243 l 1258 83 l 1286 83 l 1286 203 l 1325 83 l 1356 83 l 1356 269 l 1326 269 l 1326 144 l 1290 269 z m 1410 11 b 1419 1 1410 4 1413 1 l 1449 1 b 1458 11 1456 1 1458 4 l 1458 31 b 1449 40 1458 38 1456 40 l 1419 40 b 1410 31 1413 40 1410 38 z m 1386 25 l 1394 26 l 1394 31 b 1385 40 1394 38 1392 40 l 1361 40 b 1351 31 1354 40 1351 38 l 1351 11 b 1361 1 1351 4 1354 1 l 1385 1 b 1394 11 1392 1 1394 4 l 1394 15 l 1386 17 l 1386 8 l 1361 8 l 1361 32 l 1386 32 z m 1189 272 b 1144 228 1160 272 1144 257 l 1144 126 b 1189 82 1144 97 1160 82 b 1233 126 1218 82 1233 97 l 1233 228 b 1189 272 1233 257 1218 272 z m 1322 15 l 1322 3 b 1324 1 1322 1 1322 1 l 1335 1 b 1336 4 1336 3 1336 3 l 1336 13 b 1335 15 1336 14 1336 14 z m 1310 33 l 1310 40 l 1264 40 l 1264 33 l 1282 33 l 1282 1 l 1292 1 l 1292 33 z m 1074 163 l 1111 163 l 1111 190 l 1074 190 l 1074 242 l 1125 242 l 1125 269 l 1046 269 l 1036 256 l 1046 242 l 1046 83 l 1074 83 z m 1204 11 b 1214 1 1204 4 1207 1 l 1243 1 b 1253 11 1250 1 1253 4 l 1253 31 b 1243 40 1253 38 1250 40 l 1214 40 b 1204 31 1207 40 1204 38 z m 1157 1 l 1157 17 l 1182 17 b 1192 24 1189 17 1192 19 l 1192 32 b 1182 40 1192 38 1189 40 l 1147 40 l 1147 1 z m 1007 111 l 958 111 l 958 269 l 944 281 l 931 269 l 931 83 l 1007 83 z m 1124 29 l 1131 31 l 1131 32 b 1121 40 1131 38 1128 40 l 1099 40 b 1089 31 1092 40 1089 38 l 1089 26 b 1099 17 1089 19 1092 17 l 1124 17 l 1124 8 l 1094 8 l 1094 13 l 1088 11 b 1097 1 1088 4 1090 1 l 1122 1 b 1132 11 1129 1 1132 4 l 1132 15 b 1122 25 1132 22 1129 25 l 1097 25 l 1097 33 l 1124 33 z m 1063 29 l 1072 31 b 1063 40 1072 38 1069 40 l 1035 40 b 1025 31 1028 40 1025 38 l 1025 11 b 1035 1 1025 4 1028 1 l 1063 1 b 1072 11 1069 1 1072 4 l 1072 24 l 1047 24 l 1047 17 l 1063 17 l 1063 8 l 1033 8 l 1033 32 l 1063 32 z m 911 83 l 911 111 l 860 111 l 860 163 l 897 163 l 897 190 l 860 190 l 860 242 l 911 242 l 911 269 l 832 269 l 822 256 l 832 242 l 832 83 z m 960 11 b 969 1 960 4 963 1 l 1000 1 b 1010 11 1007 1 1010 4 l 1010 31 b 1000 40 1010 38 1007 40 l 969 40 b 960 31 963 40 960 38 z m 950 1 l 950 8 l 921 8 l 921 40 l 911 40 l 911 1 z m 763 81 b 807 125 792 81 807 96 l 807 190 l 763 190 l 751 175 l 763 163 l 778 163 l 778 126 b 763 110 778 115 772 110 b 746 126 751 110 746 115 l 746 228 b 763 244 746 239 751 244 b 778 228 772 244 778 239 l 778 206 l 807 206 l 807 226 b 763 272 807 257 792 272 b 718 226 733 272 718 257 l 718 125 b 763 81 718 96 733 81 z m 883 1 b 896 8 892 1 896 4 l 896 14 b 889 21 896 18 893 19 b 894 28 893 22 894 24 l 894 32 b 886 40 894 38 892 40 l 851 40 l 851 1 z m 822 15 b 821 13 821 14 821 14 l 821 4 b 824 1 821 3 822 1 l 835 1 l 835 15 z m 606 269 l 596 256 l 606 243 l 606 83 l 633 83 l 633 154 l 651 154 l 668 83 l 699 83 l 678 165 b 693 199 688 174 693 185 l 693 225 b 649 269 693 254 678 269 z m 811 1 l 811 8 l 782 8 l 782 40 l 772 40 l 772 1 z m 758 1 l 758 8 l 726 8 l 726 18 l 744 18 l 744 25 l 726 25 l 726 33 l 758 33 l 758 40 l 717 40 l 717 1 z m 546 126 l 551 83 l 567 75 l 582 83 l 550 269 l 511 269 l 481 83 l 494 75 l 510 83 l 517 126 z m 692 29 l 701 31 b 692 40 701 38 699 40 l 664 40 b 654 31 657 40 654 38 l 654 11 b 664 1 654 4 657 1 l 692 1 b 701 11 699 1 701 4 l 701 24 l 676 24 l 676 17 l 692 17 l 692 8 l 663 8 l 663 32 l 692 32 z m 606 1 l 606 15 l 614 15 l 631 1 l 643 1 l 625 15 l 631 15 b 639 24 636 15 639 18 l 639 32 b 631 40 639 38 636 40 l 596 40 l 596 1 z m 542 1 l 546 10 l 571 10 l 576 1 l 586 1 l 564 40 l 554 40 l 532 1 z m 376 83 l 404 83 l 404 161 l 442 269 l 411 269 l 390 203 l 369 269 l 339 269 l 376 161 z m 513 1 l 513 19 l 533 40 l 522 40 l 508 25 l 496 40 l 483 40 l 504 18 l 504 1 z m 354 111 l 306 111 l 306 269 l 290 281 l 278 269 l 278 83 l 354 83 z m 489 1 l 489 8 l 458 8 l 458 40 l 449 40 l 449 1 z m 439 1 l 439 8 l 408 8 l 408 40 l 400 40 l 400 1 z m 258 111 l 210 111 l 210 269 l 194 281 l 182 269 l 182 83 l 258 83 z m 382 1 l 382 40 l 374 40 l 374 1 z m 346 1 b 357 8 353 1 357 4 l 357 14 b 350 21 357 18 354 19 b 357 28 354 22 357 24 l 357 32 b 349 40 357 38 354 40 l 314 40 l 314 1 z m 283 0 l 307 50 l 301 50 l 278 0 z m 157 269 l 128 269 l 128 83 l 142 74 l 157 83 z m 258 0 l 282 50 l 276 50 l 253 0 z m 238 40 b 233 39 236 40 235 40 l 233 26 l 247 26 l 247 39 b 244 40 246 40 246 40 z m 233 15 l 233 3 l 235 1 l 247 1 l 247 15 z m 61 83 b 104 136 90 83 104 101 b 81 181 104 160 96 175 b 100 218 93 188 100 200 b 51 269 100 253 83 269 l 10 269 l 0 254 l 10 242 l 10 83 z m 186 1 l 186 17 l 211 17 b 221 24 218 17 221 19 l 221 32 b 211 40 221 38 218 40 l 176 40 l 176 1 z m 165 33 l 165 40 l 119 40 l 119 33 l 138 33 l 138 1 l 146 1 l 146 33 z m 115 33 l 115 40 l 69 40 l 69 33 l 88 33 l 88 1 l 97 1 l 97 33 z m 19 1 l 19 18 l 49 18 l 49 1 l 57 1 l 57 40 l 49 40 l 49 25 l 19 25 l 19 40 l 10 40 l 10 1 z m 868 474 l 835 493 l 821 585 l 758 585 l 743 493 l 713 474 l 681 493 l 749 894 l 832 894 l 899 493 z m 1418 32 l 1450 32 l 1450 8 l 1418 8 z m 1204 126 b 1189 110 1204 115 1199 110 b 1172 126 1178 110 1172 115 l 1172 228 b 1189 244 1172 239 1178 244 b 1204 228 1199 244 1204 239 z m 1213 32 l 1243 32 l 1243 8 l 1213 8 z m 1178 33 b 1182 31 1181 33 1182 32 l 1182 26 b 1178 24 1182 25 1181 24 l 1157 24 l 1157 33 z m 969 32 l 1000 32 l 1000 8 l 969 8 z m 882 33 b 886 31 885 33 886 32 l 886 28 b 882 25 886 26 885 25 l 861 25 l 861 33 z m 882 18 b 886 15 885 18 886 17 l 886 11 b 882 8 886 10 885 8 l 861 8 l 861 18 z m 665 197 b 650 182 665 188 660 182 l 633 182 l 633 240 l 650 240 b 665 225 660 240 665 235 z m 542 154 l 521 154 l 531 226 z m 626 33 b 631 31 629 33 631 32 l 631 25 b 626 22 631 24 629 22 l 606 22 l 606 33 z m 558 33 l 568 17 l 550 17 z m 344 33 b 349 31 347 33 349 32 l 349 28 b 344 25 349 26 347 25 l 322 25 l 322 33 z m 344 18 b 349 15 347 18 349 17 l 349 11 b 344 8 349 10 347 8 l 322 8 l 322 18 z m 40 242 l 51 242 b 71 218 64 242 71 233 b 51 193 71 201 64 193 l 40 193 z m 207 33 b 211 31 210 33 211 32 l 211 26 b 207 24 211 25 210 24 l 186 24 l 186 33 z m 40 167 l 51 167 b 74 138 67 167 74 157 b 51 111 74 119 67 111 l 40 111 z m 767 644 l 813 644 l 789 803 z "},"4":{"ha":1656,"x_min":0,"x_max":0,"o":"m 1576 131 b 1553 176 1576 146 1568 161 b 1517 226 1529 200 1517 217 b 1531 247 1517 240 1521 247 b 1549 224 1540 247 1547 239 l 1575 229 b 1531 272 1574 258 1558 272 b 1488 225 1501 272 1488 257 b 1494 197 1488 215 1490 207 b 1526 165 1504 186 1515 175 b 1549 129 1542 149 1549 136 b 1531 107 1549 115 1543 108 b 1511 136 1519 107 1513 117 l 1496 144 l 1485 135 b 1532 82 1486 100 1503 82 b 1576 131 1563 82 1578 99 z m 1407 83 l 1421 74 l 1435 83 l 1435 242 l 1465 242 l 1465 269 l 1378 269 l 1378 242 l 1407 242 z m 1539 0 l 1563 50 l 1557 50 l 1533 0 z m 1482 1 l 1482 28 l 1500 6 l 1501 6 l 1518 28 l 1518 1 l 1526 1 l 1526 40 l 1519 40 l 1501 17 l 1482 40 l 1475 40 l 1475 1 z m 669 844 l 381 813 l 597 614 l 538 331 l 793 475 l 1046 331 l 986 618 l 1201 813 l 910 846 l 792 1111 z m 1258 269 l 1249 256 l 1258 243 l 1258 83 l 1286 83 l 1286 203 l 1325 83 l 1356 83 l 1356 269 l 1326 269 l 1326 144 l 1290 269 z m 1410 11 b 1419 1 1410 4 1413 1 l 1449 1 b 1458 11 1456 1 1458 4 l 1458 31 b 1449 40 1458 38 1456 40 l 1419 40 b 1410 31 1413 40 1410 38 z m 1386 25 l 1394 26 l 1394 31 b 1385 40 1394 38 1392 40 l 1361 40 b 1351 31 1354 40 1351 38 l 1351 11 b 1361 1 1351 4 1354 1 l 1385 1 b 1394 11 1392 1 1394 4 l 1394 15 l 1386 17 l 1386 8 l 1361 8 l 1361 32 l 1386 32 z m 1189 272 b 1144 228 1160 272 1144 257 l 1144 126 b 1189 82 1144 97 1160 82 b 1233 126 1218 82 1233 97 l 1233 228 b 1189 272 1233 257 1218 272 z m 1322 15 l 1322 3 b 1324 1 1322 1 1322 1 l 1335 1 b 1336 4 1336 3 1336 3 l 1336 13 b 1335 15 1336 14 1336 14 z m 1310 33 l 1310 40 l 1264 40 l 1264 33 l 1282 33 l 1282 1 l 1292 1 l 1292 33 z m 1074 163 l 1111 163 l 1111 190 l 1074 190 l 1074 242 l 1125 242 l 1125 269 l 1046 269 l 1036 256 l 1046 242 l 1046 83 l 1074 83 z m 1204 11 b 1214 1 1204 4 1207 1 l 1243 1 b 1253 11 1250 1 1253 4 l 1253 31 b 1243 40 1253 38 1250 40 l 1214 40 b 1204 31 1207 40 1204 38 z m 1157 1 l 1157 17 l 1182 17 b 1192 24 1189 17 1192 19 l 1192 32 b 1182 40 1192 38 1189 40 l 1147 40 l 1147 1 z m 1007 111 l 958 111 l 958 269 l 944 281 l 931 269 l 931 83 l 1007 83 z m 1124 29 l 1131 31 l 1131 32 b 1121 40 1131 38 1128 40 l 1099 40 b 1089 31 1092 40 1089 38 l 1089 26 b 1099 17 1089 19 1092 17 l 1124 17 l 1124 8 l 1094 8 l 1094 13 l 1088 11 b 1097 1 1088 4 1090 1 l 1122 1 b 1132 11 1129 1 1132 4 l 1132 15 b 1122 25 1132 22 1129 25 l 1097 25 l 1097 33 l 1124 33 z m 1063 29 l 1072 31 b 1063 40 1072 38 1069 40 l 1035 40 b 1025 31 1028 40 1025 38 l 1025 11 b 1035 1 1025 4 1028 1 l 1063 1 b 1072 11 1069 1 1072 4 l 1072 24 l 1047 24 l 1047 17 l 1063 17 l 1063 8 l 1033 8 l 1033 32 l 1063 32 z m 911 83 l 911 111 l 860 111 l 860 163 l 897 163 l 897 190 l 860 190 l 860 242 l 911 242 l 911 269 l 832 269 l 822 256 l 832 242 l 832 83 z m 960 11 b 969 1 960 4 963 1 l 1000 1 b 1010 11 1007 1 1010 4 l 1010 31 b 1000 40 1010 38 1007 40 l 969 40 b 960 31 963 40 960 38 z m 950 1 l 950 8 l 921 8 l 921 40 l 911 40 l 911 1 z m 763 81 b 807 125 792 81 807 96 l 807 190 l 763 190 l 751 175 l 763 163 l 778 163 l 778 126 b 763 110 778 115 772 110 b 746 126 751 110 746 115 l 746 228 b 763 244 746 239 751 244 b 778 228 772 244 778 239 l 778 206 l 807 206 l 807 226 b 763 272 807 257 792 272 b 718 226 733 272 718 257 l 718 125 b 763 81 718 96 733 81 z m 883 1 b 896 8 892 1 896 4 l 896 14 b 889 21 896 18 893 19 b 894 28 893 22 894 24 l 894 32 b 886 40 894 38 892 40 l 851 40 l 851 1 z m 822 15 b 821 13 821 14 821 14 l 821 4 b 824 1 821 3 822 1 l 835 1 l 835 15 z m 606 269 l 596 256 l 606 243 l 606 83 l 633 83 l 633 154 l 651 154 l 668 83 l 699 83 l 678 165 b 693 199 688 174 693 185 l 693 225 b 649 269 693 254 678 269 z m 811 1 l 811 8 l 782 8 l 782 40 l 772 40 l 772 1 z m 758 1 l 758 8 l 726 8 l 726 18 l 744 18 l 744 25 l 726 25 l 726 33 l 758 33 l 758 40 l 717 40 l 717 1 z m 546 126 l 551 83 l 567 75 l 582 83 l 550 269 l 511 269 l 481 83 l 494 75 l 510 83 l 517 126 z m 692 29 l 701 31 b 692 40 701 38 699 40 l 664 40 b 654 31 657 40 654 38 l 654 11 b 664 1 654 4 657 1 l 692 1 b 701 11 699 1 701 4 l 701 24 l 676 24 l 676 17 l 692 17 l 692 8 l 663 8 l 663 32 l 692 32 z m 606 1 l 606 15 l 614 15 l 631 1 l 643 1 l 625 15 l 631 15 b 639 24 636 15 639 18 l 639 32 b 631 40 639 38 636 40 l 596 40 l 596 1 z m 542 1 l 546 10 l 571 10 l 576 1 l 586 1 l 564 40 l 554 40 l 532 1 z m 376 83 l 404 83 l 404 161 l 442 269 l 411 269 l 390 203 l 369 269 l 339 269 l 376 161 z m 513 1 l 513 19 l 533 40 l 522 40 l 508 25 l 496 40 l 483 40 l 504 18 l 504 1 z m 354 111 l 306 111 l 306 269 l 290 281 l 278 269 l 278 83 l 354 83 z m 489 1 l 489 8 l 458 8 l 458 40 l 449 40 l 449 1 z m 439 1 l 439 8 l 408 8 l 408 40 l 400 40 l 400 1 z m 258 111 l 210 111 l 210 269 l 194 281 l 182 269 l 182 83 l 258 83 z m 382 1 l 382 40 l 374 40 l 374 1 z m 346 1 b 357 8 353 1 357 4 l 357 14 b 350 21 357 18 354 19 b 357 28 354 22 357 24 l 357 32 b 349 40 357 38 354 40 l 314 40 l 314 1 z m 283 0 l 307 50 l 301 50 l 278 0 z m 157 269 l 128 269 l 128 83 l 142 74 l 157 83 z m 258 0 l 282 50 l 276 50 l 253 0 z m 238 40 b 233 39 236 40 235 40 l 233 26 l 247 26 l 247 39 b 244 40 246 40 246 40 z m 233 15 l 233 3 l 235 1 l 247 1 l 247 15 z m 61 83 b 104 136 90 83 104 101 b 81 181 104 160 96 175 b 100 218 93 188 100 200 b 51 269 100 253 83 269 l 10 269 l 0 254 l 10 242 l 10 83 z m 186 1 l 186 17 l 211 17 b 221 24 218 17 221 19 l 221 32 b 211 40 221 38 218 40 l 176 40 l 176 1 z m 165 33 l 165 40 l 119 40 l 119 33 l 138 33 l 138 1 l 146 1 l 146 33 z m 115 33 l 115 40 l 69 40 l 69 33 l 88 33 l 88 1 l 97 1 l 97 33 z m 19 1 l 19 18 l 49 18 l 49 1 l 57 1 l 57 40 l 49 40 l 49 25 l 19 25 l 19 40 l 10 40 l 10 1 z m 868 474 l 835 493 l 821 585 l 758 585 l 743 493 l 713 474 l 681 493 l 749 894 l 832 894 l 899 493 z m 1418 32 l 1450 32 l 1450 8 l 1418 8 z m 1204 126 b 1189 110 1204 115 1199 110 b 1172 126 1178 110 1172 115 l 1172 228 b 1189 244 1172 239 1178 244 b 1204 228 1199 244 1204 239 z m 1213 32 l 1243 32 l 1243 8 l 1213 8 z m 1178 33 b 1182 31 1181 33 1182 32 l 1182 26 b 1178 24 1182 25 1181 24 l 1157 24 l 1157 33 z m 969 32 l 1000 32 l 1000 8 l 969 8 z m 882 33 b 886 31 885 33 886 32 l 886 28 b 882 25 886 26 885 25 l 861 25 l 861 33 z m 882 18 b 886 15 885 18 886 17 l 886 11 b 882 8 886 10 885 8 l 861 8 l 861 18 z m 665 197 b 650 182 665 188 660 182 l 633 182 l 633 240 l 650 240 b 665 225 660 240 665 235 z m 542 154 l 521 154 l 531 226 z m 626 33 b 631 31 629 33 631 32 l 631 25 b 626 22 631 24 629 22 l 606 22 l 606 33 z m 558 33 l 568 17 l 550 17 z m 344 33 b 349 31 347 33 349 32 l 349 28 b 344 25 349 26 347 25 l 322 25 l 322 33 z m 344 18 b 349 15 347 18 349 17 l 349 11 b 344 8 349 10 347 8 l 322 8 l 322 18 z m 40 242 l 51 242 b 71 218 64 242 71 233 b 51 193 71 201 64 193 l 40 193 z m 207 33 b 211 31 210 33 211 32 l 211 26 b 207 24 211 25 210 24 l 186 24 l 186 33 z m 40 167 l 51 167 b 74 138 67 167 74 157 b 51 111 74 119 67 111 l 40 111 z m 767 644 l 813 644 l 789 803 z "},"5":{"ha":1656,"x_min":0,"x_max":0,"o":"m 1576 131 b 1553 176 1576 146 1568 161 b 1517 226 1529 200 1517 217 b 1531 247 1517 240 1521 247 b 1549 224 1540 247 1547 239 l 1575 229 b 1531 272 1574 258 1558 272 b 1488 225 1501 272 1488 257 b 1494 197 1488 215 1490 207 b 1526 165 1504 186 1515 175 b 1549 129 1542 149 1549 136 b 1531 107 1549 115 1543 108 b 1511 136 1519 107 1513 117 l 1496 144 l 1485 135 b 1532 82 1486 100 1503 82 b 1576 131 1563 82 1578 99 z m 1407 83 l 1421 74 l 1435 83 l 1435 242 l 1465 242 l 1465 269 l 1378 269 l 1378 242 l 1407 242 z m 1539 0 l 1563 50 l 1557 50 l 1533 0 z m 1482 1 l 1482 28 l 1500 6 l 1501 6 l 1518 28 l 1518 1 l 1526 1 l 1526 40 l 1519 40 l 1501 17 l 1482 40 l 1475 40 l 1475 1 z m 669 844 l 381 813 l 597 614 l 538 331 l 793 475 l 1046 331 l 986 618 l 1201 813 l 910 846 l 792 1111 z m 1258 269 l 1249 256 l 1258 243 l 1258 83 l 1286 83 l 1286 203 l 1325 83 l 1356 83 l 1356 269 l 1326 269 l 1326 144 l 1290 269 z m 1410 11 b 1419 1 1410 4 1413 1 l 1449 1 b 1458 11 1456 1 1458 4 l 1458 31 b 1449 40 1458 38 1456 40 l 1419 40 b 1410 31 1413 40 1410 38 z m 1386 25 l 1394 26 l 1394 31 b 1385 40 1394 38 1392 40 l 1361 40 b 1351 31 1354 40 1351 38 l 1351 11 b 1361 1 1351 4 1354 1 l 1385 1 b 1394 11 1392 1 1394 4 l 1394 15 l 1386 17 l 1386 8 l 1361 8 l 1361 32 l 1386 32 z m 1189 272 b 1144 228 1160 272 1144 257 l 1144 126 b 1189 82 1144 97 1160 82 b 1233 126 1218 82 1233 97 l 1233 228 b 1189 272 1233 257 1218 272 z m 1322 15 l 1322 3 b 1324 1 1322 1 1322 1 l 1335 1 b 1336 4 1336 3 1336 3 l 1336 13 b 1335 15 1336 14 1336 14 z m 1310 33 l 1310 40 l 1264 40 l 1264 33 l 1282 33 l 1282 1 l 1292 1 l 1292 33 z m 1074 163 l 1111 163 l 1111 190 l 1074 190 l 1074 242 l 1125 242 l 1125 269 l 1046 269 l 1036 256 l 1046 242 l 1046 83 l 1074 83 z m 1204 11 b 1214 1 1204 4 1207 1 l 1243 1 b 1253 11 1250 1 1253 4 l 1253 31 b 1243 40 1253 38 1250 40 l 1214 40 b 1204 31 1207 40 1204 38 z m 1157 1 l 1157 17 l 1182 17 b 1192 24 1189 17 1192 19 l 1192 32 b 1182 40 1192 38 1189 40 l 1147 40 l 1147 1 z m 1007 111 l 958 111 l 958 269 l 944 281 l 931 269 l 931 83 l 1007 83 z m 1124 29 l 1131 31 l 1131 32 b 1121 40 1131 38 1128 40 l 1099 40 b 1089 31 1092 40 1089 38 l 1089 26 b 1099 17 1089 19 1092 17 l 1124 17 l 1124 8 l 1094 8 l 1094 13 l 1088 11 b 1097 1 1088 4 1090 1 l 1122 1 b 1132 11 1129 1 1132 4 l 1132 15 b 1122 25 1132 22 1129 25 l 1097 25 l 1097 33 l 1124 33 z m 1063 29 l 1072 31 b 1063 40 1072 38 1069 40 l 1035 40 b 1025 31 1028 40 1025 38 l 1025 11 b 1035 1 1025 4 1028 1 l 1063 1 b 1072 11 1069 1 1072 4 l 1072 24 l 1047 24 l 1047 17 l 1063 17 l 1063 8 l 1033 8 l 1033 32 l 1063 32 z m 911 83 l 911 111 l 860 111 l 860 163 l 897 163 l 897 190 l 860 190 l 860 242 l 911 242 l 911 269 l 832 269 l 822 256 l 832 242 l 832 83 z m 960 11 b 969 1 960 4 963 1 l 1000 1 b 1010 11 1007 1 1010 4 l 1010 31 b 1000 40 1010 38 1007 40 l 969 40 b 960 31 963 40 960 38 z m 950 1 l 950 8 l 921 8 l 921 40 l 911 40 l 911 1 z m 763 81 b 807 125 792 81 807 96 l 807 190 l 763 190 l 751 175 l 763 163 l 778 163 l 778 126 b 763 110 778 115 772 110 b 746 126 751 110 746 115 l 746 228 b 763 244 746 239 751 244 b 778 228 772 244 778 239 l 778 206 l 807 206 l 807 226 b 763 272 807 257 792 272 b 718 226 733 272 718 257 l 718 125 b 763 81 718 96 733 81 z m 883 1 b 896 8 892 1 896 4 l 896 14 b 889 21 896 18 893 19 b 894 28 893 22 894 24 l 894 32 b 886 40 894 38 892 40 l 851 40 l 851 1 z m 822 15 b 821 13 821 14 821 14 l 821 4 b 824 1 821 3 822 1 l 835 1 l 835 15 z m 606 269 l 596 256 l 606 243 l 606 83 l 633 83 l 633 154 l 651 154 l 668 83 l 699 83 l 678 165 b 693 199 688 174 693 185 l 693 225 b 649 269 693 254 678 269 z m 811 1 l 811 8 l 782 8 l 782 40 l 772 40 l 772 1 z m 758 1 l 758 8 l 726 8 l 726 18 l 744 18 l 744 25 l 726 25 l 726 33 l 758 33 l 758 40 l 717 40 l 717 1 z m 546 126 l 551 83 l 567 75 l 582 83 l 550 269 l 511 269 l 481 83 l 494 75 l 510 83 l 517 126 z m 692 29 l 701 31 b 692 40 701 38 699 40 l 664 40 b 654 31 657 40 654 38 l 654 11 b 664 1 654 4 657 1 l 692 1 b 701 11 699 1 701 4 l 701 24 l 676 24 l 676 17 l 692 17 l 692 8 l 663 8 l 663 32 l 692 32 z m 606 1 l 606 15 l 614 15 l 631 1 l 643 1 l 625 15 l 631 15 b 639 24 636 15 639 18 l 639 32 b 631 40 639 38 636 40 l 596 40 l 596 1 z m 542 1 l 546 10 l 571 10 l 576 1 l 586 1 l 564 40 l 554 40 l 532 1 z m 376 83 l 404 83 l 404 161 l 442 269 l 411 269 l 390 203 l 369 269 l 339 269 l 376 161 z m 513 1 l 513 19 l 533 40 l 522 40 l 508 25 l 496 40 l 483 40 l 504 18 l 504 1 z m 354 111 l 306 111 l 306 269 l 290 281 l 278 269 l 278 83 l 354 83 z m 489 1 l 489 8 l 458 8 l 458 40 l 449 40 l 449 1 z m 439 1 l 439 8 l 408 8 l 408 40 l 400 40 l 400 1 z m 258 111 l 210 111 l 210 269 l 194 281 l 182 269 l 182 83 l 258 83 z m 382 1 l 382 40 l 374 40 l 374 1 z m 346 1 b 357 8 353 1 357 4 l 357 14 b 350 21 357 18 354 19 b 357 28 354 22 357 24 l 357 32 b 349 40 357 38 354 40 l 314 40 l 314 1 z m 283 0 l 307 50 l 301 50 l 278 0 z m 157 269 l 128 269 l 128 83 l 142 74 l 157 83 z m 258 0 l 282 50 l 276 50 l 253 0 z m 238 40 b 233 39 236 40 235 40 l 233 26 l 247 26 l 247 39 b 244 40 246 40 246 40 z m 233 15 l 233 3 l 235 1 l 247 1 l 247 15 z m 61 83 b 104 136 90 83 104 101 b 81 181 104 160 96 175 b 100 218 93 188 100 200 b 51 269 100 253 83 269 l 10 269 l 0 254 l 10 242 l 10 83 z m 186 1 l 186 17 l 211 17 b 221 24 218 17 221 19 l 221 32 b 211 40 221 38 218 40 l 176 40 l 176 1 z m 165 33 l 165 40 l 119 40 l 119 33 l 138 33 l 138 1 l 146 1 l 146 33 z m 115 33 l 115 40 l 69 40 l 69 33 l 88 33 l 88 1 l 97 1 l 97 33 z m 19 1 l 19 18 l 49 18 l 49 1 l 57 1 l 57 40 l 49 40 l 49 25 l 19 25 l 19 40 l 10 40 l 10 1 z m 868 474 l 835 493 l 821 585 l 758 585 l 743 493 l 713 474 l 681 493 l 749 894 l 832 894 l 899 493 z m 1418 32 l 1450 32 l 1450 8 l 1418 8 z m 1204 126 b 1189 110 1204 115 1199 110 b 1172 126 1178 110 1172 115 l 1172 228 b 1189 244 1172 239 1178 244 b 1204 228 1199 244 1204 239 z m 1213 32 l 1243 32 l 1243 8 l 1213 8 z m 1178 33 b 1182 31 1181 33 1182 32 l 1182 26 b 1178 24 1182 25 1181 24 l 1157 24 l 1157 33 z m 969 32 l 1000 32 l 1000 8 l 969 8 z m 882 33 b 886 31 885 33 886 32 l 886 28 b 882 25 886 26 885 25 l 861 25 l 861 33 z m 882 18 b 886 15 885 18 886 17 l 886 11 b 882 8 886 10 885 8 l 861 8 l 861 18 z m 665 197 b 650 182 665 188 660 182 l 633 182 l 633 240 l 650 240 b 665 225 660 240 665 235 z m 542 154 l 521 154 l 531 226 z m 626 33 b 631 31 629 33 631 32 l 631 25 b 626 22 631 24 629 22 l 606 22 l 606 33 z m 558 33 l 568 17 l 550 17 z m 344 33 b 349 31 347 33 349 32 l 349 28 b 344 25 349 26 347 25 l 322 25 l 322 33 z m 344 18 b 349 15 347 18 349 17 l 349 11 b 344 8 349 10 347 8 l 322 8 l 322 18 z m 40 242 l 51 242 b 71 218 64 242 71 233 b 51 193 71 201 64 193 l 40 193 z m 207 33 b 211 31 210 33 211 32 l 211 26 b 207 24 211 25 210 24 l 186 24 l 186 33 z m 40 167 l 51 167 b 74 138 67 167 74 157 b 51 111 74 119 67 111 l 40 111 z m 767 644 l 813 644 l 789 803 z "},"6":{"ha":1656,"x_min":0,"x_max":0,"o":"m 1576 131 b 1553 176 1576 146 1568 161 b 1517 226 1529 200 1517 217 b 1531 247 1517 240 1521 247 b 1549 224 1540 247 1547 239 l 1575 229 b 1531 272 1574 258 1558 272 b 1488 225 1501 272 1488 257 b 1494 197 1488 215 1490 207 b 1526 165 1504 186 1515 175 b 1549 129 1542 149 1549 136 b 1531 107 1549 115 1543 108 b 1511 136 1519 107 1513 117 l 1496 144 l 1485 135 b 1532 82 1486 100 1503 82 b 1576 131 1563 82 1578 99 z m 1407 83 l 1421 74 l 1435 83 l 1435 242 l 1465 242 l 1465 269 l 1378 269 l 1378 242 l 1407 242 z m 1539 0 l 1563 50 l 1557 50 l 1533 0 z m 1482 1 l 1482 28 l 1500 6 l 1501 6 l 1518 28 l 1518 1 l 1526 1 l 1526 40 l 1519 40 l 1501 17 l 1482 40 l 1475 40 l 1475 1 z m 669 844 l 381 813 l 597 614 l 538 331 l 793 475 l 1046 331 l 986 618 l 1201 813 l 910 846 l 792 1111 z m 1258 269 l 1249 256 l 1258 243 l 1258 83 l 1286 83 l 1286 203 l 1325 83 l 1356 83 l 1356 269 l 1326 269 l 1326 144 l 1290 269 z m 1410 11 b 1419 1 1410 4 1413 1 l 1449 1 b 1458 11 1456 1 1458 4 l 1458 31 b 1449 40 1458 38 1456 40 l 1419 40 b 1410 31 1413 40 1410 38 z m 1386 25 l 1394 26 l 1394 31 b 1385 40 1394 38 1392 40 l 1361 40 b 1351 31 1354 40 1351 38 l 1351 11 b 1361 1 1351 4 1354 1 l 1385 1 b 1394 11 1392 1 1394 4 l 1394 15 l 1386 17 l 1386 8 l 1361 8 l 1361 32 l 1386 32 z m 1189 272 b 1144 228 1160 272 1144 257 l 1144 126 b 1189 82 1144 97 1160 82 b 1233 126 1218 82 1233 97 l 1233 228 b 1189 272 1233 257 1218 272 z m 1322 15 l 1322 3 b 1324 1 1322 1 1322 1 l 1335 1 b 1336 4 1336 3 1336 3 l 1336 13 b 1335 15 1336 14 1336 14 z m 1310 33 l 1310 40 l 1264 40 l 1264 33 l 1282 33 l 1282 1 l 1292 1 l 1292 33 z m 1074 163 l 1111 163 l 1111 190 l 1074 190 l 1074 242 l 1125 242 l 1125 269 l 1046 269 l 1036 256 l 1046 242 l 1046 83 l 1074 83 z m 1204 11 b 1214 1 1204 4 1207 1 l 1243 1 b 1253 11 1250 1 1253 4 l 1253 31 b 1243 40 1253 38 1250 40 l 1214 40 b 1204 31 1207 40 1204 38 z m 1157 1 l 1157 17 l 1182 17 b 1192 24 1189 17 1192 19 l 1192 32 b 1182 40 1192 38 1189 40 l 1147 40 l 1147 1 z m 1007 111 l 958 111 l 958 269 l 944 281 l 931 269 l 931 83 l 1007 83 z m 1124 29 l 1131 31 l 1131 32 b 1121 40 1131 38 1128 40 l 1099 40 b 1089 31 1092 40 1089 38 l 1089 26 b 1099 17 1089 19 1092 17 l 1124 17 l 1124 8 l 1094 8 l 1094 13 l 1088 11 b 1097 1 1088 4 1090 1 l 1122 1 b 1132 11 1129 1 1132 4 l 1132 15 b 1122 25 1132 22 1129 25 l 1097 25 l 1097 33 l 1124 33 z m 1063 29 l 1072 31 b 1063 40 1072 38 1069 40 l 1035 40 b 1025 31 1028 40 1025 38 l 1025 11 b 1035 1 1025 4 1028 1 l 1063 1 b 1072 11 1069 1 1072 4 l 1072 24 l 1047 24 l 1047 17 l 1063 17 l 1063 8 l 1033 8 l 1033 32 l 1063 32 z m 911 83 l 911 111 l 860 111 l 860 163 l 897 163 l 897 190 l 860 190 l 860 242 l 911 242 l 911 269 l 832 269 l 822 256 l 832 242 l 832 83 z m 960 11 b 969 1 960 4 963 1 l 1000 1 b 1010 11 1007 1 1010 4 l 1010 31 b 1000 40 1010 38 1007 40 l 969 40 b 960 31 963 40 960 38 z m 950 1 l 950 8 l 921 8 l 921 40 l 911 40 l 911 1 z m 763 81 b 807 125 792 81 807 96 l 807 190 l 763 190 l 751 175 l 763 163 l 778 163 l 778 126 b 763 110 778 115 772 110 b 746 126 751 110 746 115 l 746 228 b 763 244 746 239 751 244 b 778 228 772 244 778 239 l 778 206 l 807 206 l 807 226 b 763 272 807 257 792 272 b 718 226 733 272 718 257 l 718 125 b 763 81 718 96 733 81 z m 883 1 b 896 8 892 1 896 4 l 896 14 b 889 21 896 18 893 19 b 894 28 893 22 894 24 l 894 32 b 886 40 894 38 892 40 l 851 40 l 851 1 z m 822 15 b 821 13 821 14 821 14 l 821 4 b 824 1 821 3 822 1 l 835 1 l 835 15 z m 606 269 l 596 256 l 606 243 l 606 83 l 633 83 l 633 154 l 651 154 l 668 83 l 699 83 l 678 165 b 693 199 688 174 693 185 l 693 225 b 649 269 693 254 678 269 z m 811 1 l 811 8 l 782 8 l 782 40 l 772 40 l 772 1 z m 758 1 l 758 8 l 726 8 l 726 18 l 744 18 l 744 25 l 726 25 l 726 33 l 758 33 l 758 40 l 717 40 l 717 1 z m 546 126 l 551 83 l 567 75 l 582 83 l 550 269 l 511 269 l 481 83 l 494 75 l 510 83 l 517 126 z m 692 29 l 701 31 b 692 40 701 38 699 40 l 664 40 b 654 31 657 40 654 38 l 654 11 b 664 1 654 4 657 1 l 692 1 b 701 11 699 1 701 4 l 701 24 l 676 24 l 676 17 l 692 17 l 692 8 l 663 8 l 663 32 l 692 32 z m 606 1 l 606 15 l 614 15 l 631 1 l 643 1 l 625 15 l 631 15 b 639 24 636 15 639 18 l 639 32 b 631 40 639 38 636 40 l 596 40 l 596 1 z m 542 1 l 546 10 l 571 10 l 576 1 l 586 1 l 564 40 l 554 40 l 532 1 z m 376 83 l 404 83 l 404 161 l 442 269 l 411 269 l 390 203 l 369 269 l 339 269 l 376 161 z m 513 1 l 513 19 l 533 40 l 522 40 l 508 25 l 496 40 l 483 40 l 504 18 l 504 1 z m 354 111 l 306 111 l 306 269 l 290 281 l 278 269 l 278 83 l 354 83 z m 489 1 l 489 8 l 458 8 l 458 40 l 449 40 l 449 1 z m 439 1 l 439 8 l 408 8 l 408 40 l 400 40 l 400 1 z m 258 111 l 210 111 l 210 269 l 194 281 l 182 269 l 182 83 l 258 83 z m 382 1 l 382 40 l 374 40 l 374 1 z m 346 1 b 357 8 353 1 357 4 l 357 14 b 350 21 357 18 354 19 b 357 28 354 22 357 24 l 357 32 b 349 40 357 38 354 40 l 314 40 l 314 1 z m 283 0 l 307 50 l 301 50 l 278 0 z m 157 269 l 128 269 l 128 83 l 142 74 l 157 83 z m 258 0 l 282 50 l 276 50 l 253 0 z m 238 40 b 233 39 236 40 235 40 l 233 26 l 247 26 l 247 39 b 244 40 246 40 246 40 z m 233 15 l 233 3 l 235 1 l 247 1 l 247 15 z m 61 83 b 104 136 90 83 104 101 b 81 181 104 160 96 175 b 100 218 93 188 100 200 b 51 269 100 253 83 269 l 10 269 l 0 254 l 10 242 l 10 83 z m 186 1 l 186 17 l 211 17 b 221 24 218 17 221 19 l 221 32 b 211 40 221 38 218 40 l 176 40 l 176 1 z m 165 33 l 165 40 l 119 40 l 119 33 l 138 33 l 138 1 l 146 1 l 146 33 z m 115 33 l 115 40 l 69 40 l 69 33 l 88 33 l 88 1 l 97 1 l 97 33 z m 19 1 l 19 18 l 49 18 l 49 1 l 57 1 l 57 40 l 49 40 l 49 25 l 19 25 l 19 40 l 10 40 l 10 1 z m 868 474 l 835 493 l 821 585 l 758 585 l 743 493 l 713 474 l 681 493 l 749 894 l 832 894 l 899 493 z m 1418 32 l 1450 32 l 1450 8 l 1418 8 z m 1204 126 b 1189 110 1204 115 1199 110 b 1172 126 1178 110 1172 115 l 1172 228 b 1189 244 1172 239 1178 244 b 1204 228 1199 244 1204 239 z m 1213 32 l 1243 32 l 1243 8 l 1213 8 z m 1178 33 b 1182 31 1181 33 1182 32 l 1182 26 b 1178 24 1182 25 1181 24 l 1157 24 l 1157 33 z m 969 32 l 1000 32 l 1000 8 l 969 8 z m 882 33 b 886 31 885 33 886 32 l 886 28 b 882 25 886 26 885 25 l 861 25 l 861 33 z m 882 18 b 886 15 885 18 886 17 l 886 11 b 882 8 886 10 885 8 l 861 8 l 861 18 z m 665 197 b 650 182 665 188 660 182 l 633 182 l 633 240 l 650 240 b 665 225 660 240 665 235 z m 542 154 l 521 154 l 531 226 z m 626 33 b 631 31 629 33 631 32 l 631 25 b 626 22 631 24 629 22 l 606 22 l 606 33 z m 558 33 l 568 17 l 550 17 z m 344 33 b 349 31 347 33 349 32 l 349 28 b 344 25 349 26 347 25 l 322 25 l 322 33 z m 344 18 b 349 15 347 18 349 17 l 349 11 b 344 8 349 10 347 8 l 322 8 l 322 18 z m 40 242 l 51 242 b 71 218 64 242 71 233 b 51 193 71 201 64 193 l 40 193 z m 207 33 b 211 31 210 33 211 32 l 211 26 b 207 24 211 25 210 24 l 186 24 l 186 33 z m 40 167 l 51 167 b 74 138 67 167 74 157 b 51 111 74 119 67 111 l 40 111 z m 767 644 l 813 644 l 789 803 z "},"7":{"ha":1656,"x_min":0,"x_max":0,"o":"m 1576 131 b 1553 176 1576 146 1568 161 b 1517 226 1529 200 1517 217 b 1531 247 1517 240 1521 247 b 1549 224 1540 247 1547 239 l 1575 229 b 1531 272 1574 258 1558 272 b 1488 225 1501 272 1488 257 b 1494 197 1488 215 1490 207 b 1526 165 1504 186 1515 175 b 1549 129 1542 149 1549 136 b 1531 107 1549 115 1543 108 b 1511 136 1519 107 1513 117 l 1496 144 l 1485 135 b 1532 82 1486 100 1503 82 b 1576 131 1563 82 1578 99 z m 1407 83 l 1421 74 l 1435 83 l 1435 242 l 1465 242 l 1465 269 l 1378 269 l 1378 242 l 1407 242 z m 1539 0 l 1563 50 l 1557 50 l 1533 0 z m 1482 1 l 1482 28 l 1500 6 l 1501 6 l 1518 28 l 1518 1 l 1526 1 l 1526 40 l 1519 40 l 1501 17 l 1482 40 l 1475 40 l 1475 1 z m 669 844 l 381 813 l 597 614 l 538 331 l 793 475 l 1046 331 l 986 618 l 1201 813 l 910 846 l 792 1111 z m 1258 269 l 1249 256 l 1258 243 l 1258 83 l 1286 83 l 1286 203 l 1325 83 l 1356 83 l 1356 269 l 1326 269 l 1326 144 l 1290 269 z m 1410 11 b 1419 1 1410 4 1413 1 l 1449 1 b 1458 11 1456 1 1458 4 l 1458 31 b 1449 40 1458 38 1456 40 l 1419 40 b 1410 31 1413 40 1410 38 z m 1386 25 l 1394 26 l 1394 31 b 1385 40 1394 38 1392 40 l 1361 40 b 1351 31 1354 40 1351 38 l 1351 11 b 1361 1 1351 4 1354 1 l 1385 1 b 1394 11 1392 1 1394 4 l 1394 15 l 1386 17 l 1386 8 l 1361 8 l 1361 32 l 1386 32 z m 1189 272 b 1144 228 1160 272 1144 257 l 1144 126 b 1189 82 1144 97 1160 82 b 1233 126 1218 82 1233 97 l 1233 228 b 1189 272 1233 257 1218 272 z m 1322 15 l 1322 3 b 1324 1 1322 1 1322 1 l 1335 1 b 1336 4 1336 3 1336 3 l 1336 13 b 1335 15 1336 14 1336 14 z m 1310 33 l 1310 40 l 1264 40 l 1264 33 l 1282 33 l 1282 1 l 1292 1 l 1292 33 z m 1074 163 l 1111 163 l 1111 190 l 1074 190 l 1074 242 l 1125 242 l 1125 269 l 1046 269 l 1036 256 l 1046 242 l 1046 83 l 1074 83 z m 1204 11 b 1214 1 1204 4 1207 1 l 1243 1 b 1253 11 1250 1 1253 4 l 1253 31 b 1243 40 1253 38 1250 40 l 1214 40 b 1204 31 1207 40 1204 38 z m 1157 1 l 1157 17 l 1182 17 b 1192 24 1189 17 1192 19 l 1192 32 b 1182 40 1192 38 1189 40 l 1147 40 l 1147 1 z m 1007 111 l 958 111 l 958 269 l 944 281 l 931 269 l 931 83 l 1007 83 z m 1124 29 l 1131 31 l 1131 32 b 1121 40 1131 38 1128 40 l 1099 40 b 1089 31 1092 40 1089 38 l 1089 26 b 1099 17 1089 19 1092 17 l 1124 17 l 1124 8 l 1094 8 l 1094 13 l 1088 11 b 1097 1 1088 4 1090 1 l 1122 1 b 1132 11 1129 1 1132 4 l 1132 15 b 1122 25 1132 22 1129 25 l 1097 25 l 1097 33 l 1124 33 z m 1063 29 l 1072 31 b 1063 40 1072 38 1069 40 l 1035 40 b 1025 31 1028 40 1025 38 l 1025 11 b 1035 1 1025 4 1028 1 l 1063 1 b 1072 11 1069 1 1072 4 l 1072 24 l 1047 24 l 1047 17 l 1063 17 l 1063 8 l 1033 8 l 1033 32 l 1063 32 z m 911 83 l 911 111 l 860 111 l 860 163 l 897 163 l 897 190 l 860 190 l 860 242 l 911 242 l 911 269 l 832 269 l 822 256 l 832 242 l 832 83 z m 960 11 b 969 1 960 4 963 1 l 1000 1 b 1010 11 1007 1 1010 4 l 1010 31 b 1000 40 1010 38 1007 40 l 969 40 b 960 31 963 40 960 38 z m 950 1 l 950 8 l 921 8 l 921 40 l 911 40 l 911 1 z m 763 81 b 807 125 792 81 807 96 l 807 190 l 763 190 l 751 175 l 763 163 l 778 163 l 778 126 b 763 110 778 115 772 110 b 746 126 751 110 746 115 l 746 228 b 763 244 746 239 751 244 b 778 228 772 244 778 239 l 778 206 l 807 206 l 807 226 b 763 272 807 257 792 272 b 718 226 733 272 718 257 l 718 125 b 763 81 718 96 733 81 z m 883 1 b 896 8 892 1 896 4 l 896 14 b 889 21 896 18 893 19 b 894 28 893 22 894 24 l 894 32 b 886 40 894 38 892 40 l 851 40 l 851 1 z m 822 15 b 821 13 821 14 821 14 l 821 4 b 824 1 821 3 822 1 l 835 1 l 835 15 z m 606 269 l 596 256 l 606 243 l 606 83 l 633 83 l 633 154 l 651 154 l 668 83 l 699 83 l 678 165 b 693 199 688 174 693 185 l 693 225 b 649 269 693 254 678 269 z m 811 1 l 811 8 l 782 8 l 782 40 l 772 40 l 772 1 z m 758 1 l 758 8 l 726 8 l 726 18 l 744 18 l 744 25 l 726 25 l 726 33 l 758 33 l 758 40 l 717 40 l 717 1 z m 546 126 l 551 83 l 567 75 l 582 83 l 550 269 l 511 269 l 481 83 l 494 75 l 510 83 l 517 126 z m 692 29 l 701 31 b 692 40 701 38 699 40 l 664 40 b 654 31 657 40 654 38 l 654 11 b 664 1 654 4 657 1 l 692 1 b 701 11 699 1 701 4 l 701 24 l 676 24 l 676 17 l 692 17 l 692 8 l 663 8 l 663 32 l 692 32 z m 606 1 l 606 15 l 614 15 l 631 1 l 643 1 l 625 15 l 631 15 b 639 24 636 15 639 18 l 639 32 b 631 40 639 38 636 40 l 596 40 l 596 1 z m 542 1 l 546 10 l 571 10 l 576 1 l 586 1 l 564 40 l 554 40 l 532 1 z m 376 83 l 404 83 l 404 161 l 442 269 l 411 269 l 390 203 l 369 269 l 339 269 l 376 161 z m 513 1 l 513 19 l 533 40 l 522 40 l 508 25 l 496 40 l 483 40 l 504 18 l 504 1 z m 354 111 l 306 111 l 306 269 l 290 281 l 278 269 l 278 83 l 354 83 z m 489 1 l 489 8 l 458 8 l 458 40 l 449 40 l 449 1 z m 439 1 l 439 8 l 408 8 l 408 40 l 400 40 l 400 1 z m 258 111 l 210 111 l 210 269 l 194 281 l 182 269 l 182 83 l 258 83 z m 382 1 l 382 40 l 374 40 l 374 1 z m 346 1 b 357 8 353 1 357 4 l 357 14 b 350 21 357 18 354 19 b 357 28 354 22 357 24 l 357 32 b 349 40 357 38 354 40 l 314 40 l 314 1 z m 283 0 l 307 50 l 301 50 l 278 0 z m 157 269 l 128 269 l 128 83 l 142 74 l 157 83 z m 258 0 l 282 50 l 276 50 l 253 0 z m 238 40 b 233 39 236 40 235 40 l 233 26 l 247 26 l 247 39 b 244 40 246 40 246 40 z m 233 15 l 233 3 l 235 1 l 247 1 l 247 15 z m 61 83 b 104 136 90 83 104 101 b 81 181 104 160 96 175 b 100 218 93 188 100 200 b 51 269 100 253 83 269 l 10 269 l 0 254 l 10 242 l 10 83 z m 186 1 l 186 17 l 211 17 b 221 24 218 17 221 19 l 221 32 b 211 40 221 38 218 40 l 176 40 l 176 1 z m 165 33 l 165 40 l 119 40 l 119 33 l 138 33 l 138 1 l 146 1 l 146 33 z m 115 33 l 115 40 l 69 40 l 69 33 l 88 33 l 88 1 l 97 1 l 97 33 z m 19 1 l 19 18 l 49 18 l 49 1 l 57 1 l 57 40 l 49 40 l 49 25 l 19 25 l 19 40 l 10 40 l 10 1 z m 868 474 l 835 493 l 821 585 l 758 585 l 743 493 l 713 474 l 681 493 l 749 894 l 832 894 l 899 493 z m 1418 32 l 1450 32 l 1450 8 l 1418 8 z m 1204 126 b 1189 110 1204 115 1199 110 b 1172 126 1178 110 1172 115 l 1172 228 b 1189 244 1172 239 1178 244 b 1204 228 1199 244 1204 239 z m 1213 32 l 1243 32 l 1243 8 l 1213 8 z m 1178 33 b 1182 31 1181 33 1182 32 l 1182 26 b 1178 24 1182 25 1181 24 l 1157 24 l 1157 33 z m 969 32 l 1000 32 l 1000 8 l 969 8 z m 882 33 b 886 31 885 33 886 32 l 886 28 b 882 25 886 26 885 25 l 861 25 l 861 33 z m 882 18 b 886 15 885 18 886 17 l 886 11 b 882 8 886 10 885 8 l 861 8 l 861 18 z m 665 197 b 650 182 665 188 660 182 l 633 182 l 633 240 l 650 240 b 665 225 660 240 665 235 z m 542 154 l 521 154 l 531 226 z m 626 33 b 631 31 629 33 631 32 l 631 25 b 626 22 631 24 629 22 l 606 22 l 606 33 z m 558 33 l 568 17 l 550 17 z m 344 33 b 349 31 347 33 349 32 l 349 28 b 344 25 349 26 347 25 l 322 25 l 322 33 z m 344 18 b 349 15 347 18 349 17 l 349 11 b 344 8 349 10 347 8 l 322 8 l 322 18 z m 40 242 l 51 242 b 71 218 64 242 71 233 b 51 193 71 201 64 193 l 40 193 z m 207 33 b 211 31 210 33 211 32 l 211 26 b 207 24 211 25 210 24 l 186 24 l 186 33 z m 40 167 l 51 167 b 74 138 67 167 74 157 b 51 111 74 119 67 111 l 40 111 z m 767 644 l 813 644 l 789 803 z "},"8":{"ha":1656,"x_min":0,"x_max":0,"o":"m 1576 131 b 1553 176 1576 146 1568 161 b 1517 226 1529 200 1517 217 b 1531 247 1517 240 1521 247 b 1549 224 1540 247 1547 239 l 1575 229 b 1531 272 1574 258 1558 272 b 1488 225 1501 272 1488 257 b 1494 197 1488 215 1490 207 b 1526 165 1504 186 1515 175 b 1549 129 1542 149 1549 136 b 1531 107 1549 115 1543 108 b 1511 136 1519 107 1513 117 l 1496 144 l 1485 135 b 1532 82 1486 100 1503 82 b 1576 131 1563 82 1578 99 z m 1407 83 l 1421 74 l 1435 83 l 1435 242 l 1465 242 l 1465 269 l 1378 269 l 1378 242 l 1407 242 z m 1539 0 l 1563 50 l 1557 50 l 1533 0 z m 1482 1 l 1482 28 l 1500 6 l 1501 6 l 1518 28 l 1518 1 l 1526 1 l 1526 40 l 1519 40 l 1501 17 l 1482 40 l 1475 40 l 1475 1 z m 669 844 l 381 813 l 597 614 l 538 331 l 793 475 l 1046 331 l 986 618 l 1201 813 l 910 846 l 792 1111 z m 1258 269 l 1249 256 l 1258 243 l 1258 83 l 1286 83 l 1286 203 l 1325 83 l 1356 83 l 1356 269 l 1326 269 l 1326 144 l 1290 269 z m 1410 11 b 1419 1 1410 4 1413 1 l 1449 1 b 1458 11 1456 1 1458 4 l 1458 31 b 1449 40 1458 38 1456 40 l 1419 40 b 1410 31 1413 40 1410 38 z m 1386 25 l 1394 26 l 1394 31 b 1385 40 1394 38 1392 40 l 1361 40 b 1351 31 1354 40 1351 38 l 1351 11 b 1361 1 1351 4 1354 1 l 1385 1 b 1394 11 1392 1 1394 4 l 1394 15 l 1386 17 l 1386 8 l 1361 8 l 1361 32 l 1386 32 z m 1189 272 b 1144 228 1160 272 1144 257 l 1144 126 b 1189 82 1144 97 1160 82 b 1233 126 1218 82 1233 97 l 1233 228 b 1189 272 1233 257 1218 272 z m 1322 15 l 1322 3 b 1324 1 1322 1 1322 1 l 1335 1 b 1336 4 1336 3 1336 3 l 1336 13 b 1335 15 1336 14 1336 14 z m 1310 33 l 1310 40 l 1264 40 l 1264 33 l 1282 33 l 1282 1 l 1292 1 l 1292 33 z m 1074 163 l 1111 163 l 1111 190 l 1074 190 l 1074 242 l 1125 242 l 1125 269 l 1046 269 l 1036 256 l 1046 242 l 1046 83 l 1074 83 z m 1204 11 b 1214 1 1204 4 1207 1 l 1243 1 b 1253 11 1250 1 1253 4 l 1253 31 b 1243 40 1253 38 1250 40 l 1214 40 b 1204 31 1207 40 1204 38 z m 1157 1 l 1157 17 l 1182 17 b 1192 24 1189 17 1192 19 l 1192 32 b 1182 40 1192 38 1189 40 l 1147 40 l 1147 1 z m 1007 111 l 958 111 l 958 269 l 944 281 l 931 269 l 931 83 l 1007 83 z m 1124 29 l 1131 31 l 1131 32 b 1121 40 1131 38 1128 40 l 1099 40 b 1089 31 1092 40 1089 38 l 1089 26 b 1099 17 1089 19 1092 17 l 1124 17 l 1124 8 l 1094 8 l 1094 13 l 1088 11 b 1097 1 1088 4 1090 1 l 1122 1 b 1132 11 1129 1 1132 4 l 1132 15 b 1122 25 1132 22 1129 25 l 1097 25 l 1097 33 l 1124 33 z m 1063 29 l 1072 31 b 1063 40 1072 38 1069 40 l 1035 40 b 1025 31 1028 40 1025 38 l 1025 11 b 1035 1 1025 4 1028 1 l 1063 1 b 1072 11 1069 1 1072 4 l 1072 24 l 1047 24 l 1047 17 l 1063 17 l 1063 8 l 1033 8 l 1033 32 l 1063 32 z m 911 83 l 911 111 l 860 111 l 860 163 l 897 163 l 897 190 l 860 190 l 860 242 l 911 242 l 911 269 l 832 269 l 822 256 l 832 242 l 832 83 z m 960 11 b 969 1 960 4 963 1 l 1000 1 b 1010 11 1007 1 1010 4 l 1010 31 b 1000 40 1010 38 1007 40 l 969 40 b 960 31 963 40 960 38 z m 950 1 l 950 8 l 921 8 l 921 40 l 911 40 l 911 1 z m 763 81 b 807 125 792 81 807 96 l 807 190 l 763 190 l 751 175 l 763 163 l 778 163 l 778 126 b 763 110 778 115 772 110 b 746 126 751 110 746 115 l 746 228 b 763 244 746 239 751 244 b 778 228 772 244 778 239 l 778 206 l 807 206 l 807 226 b 763 272 807 257 792 272 b 718 226 733 272 718 257 l 718 125 b 763 81 718 96 733 81 z m 883 1 b 896 8 892 1 896 4 l 896 14 b 889 21 896 18 893 19 b 894 28 893 22 894 24 l 894 32 b 886 40 894 38 892 40 l 851 40 l 851 1 z m 822 15 b 821 13 821 14 821 14 l 821 4 b 824 1 821 3 822 1 l 835 1 l 835 15 z m 606 269 l 596 256 l 606 243 l 606 83 l 633 83 l 633 154 l 651 154 l 668 83 l 699 83 l 678 165 b 693 199 688 174 693 185 l 693 225 b 649 269 693 254 678 269 z m 811 1 l 811 8 l 782 8 l 782 40 l 772 40 l 772 1 z m 758 1 l 758 8 l 726 8 l 726 18 l 744 18 l 744 25 l 726 25 l 726 33 l 758 33 l 758 40 l 717 40 l 717 1 z m 546 126 l 551 83 l 567 75 l 582 83 l 550 269 l 511 269 l 481 83 l 494 75 l 510 83 l 517 126 z m 692 29 l 701 31 b 692 40 701 38 699 40 l 664 40 b 654 31 657 40 654 38 l 654 11 b 664 1 654 4 657 1 l 692 1 b 701 11 699 1 701 4 l 701 24 l 676 24 l 676 17 l 692 17 l 692 8 l 663 8 l 663 32 l 692 32 z m 606 1 l 606 15 l 614 15 l 631 1 l 643 1 l 625 15 l 631 15 b 639 24 636 15 639 18 l 639 32 b 631 40 639 38 636 40 l 596 40 l 596 1 z m 542 1 l 546 10 l 571 10 l 576 1 l 586 1 l 564 40 l 554 40 l 532 1 z m 376 83 l 404 83 l 404 161 l 442 269 l 411 269 l 390 203 l 369 269 l 339 269 l 376 161 z m 513 1 l 513 19 l 533 40 l 522 40 l 508 25 l 496 40 l 483 40 l 504 18 l 504 1 z m 354 111 l 306 111 l 306 269 l 290 281 l 278 269 l 278 83 l 354 83 z m 489 1 l 489 8 l 458 8 l 458 40 l 449 40 l 449 1 z m 439 1 l 439 8 l 408 8 l 408 40 l 400 40 l 400 1 z m 258 111 l 210 111 l 210 269 l 194 281 l 182 269 l 182 83 l 258 83 z m 382 1 l 382 40 l 374 40 l 374 1 z m 346 1 b 357 8 353 1 357 4 l 357 14 b 350 21 357 18 354 19 b 357 28 354 22 357 24 l 357 32 b 349 40 357 38 354 40 l 314 40 l 314 1 z m 283 0 l 307 50 l 301 50 l 278 0 z m 157 269 l 128 269 l 128 83 l 142 74 l 157 83 z m 258 0 l 282 50 l 276 50 l 253 0 z m 238 40 b 233 39 236 40 235 40 l 233 26 l 247 26 l 247 39 b 244 40 246 40 246 40 z m 233 15 l 233 3 l 235 1 l 247 1 l 247 15 z m 61 83 b 104 136 90 83 104 101 b 81 181 104 160 96 175 b 100 218 93 188 100 200 b 51 269 100 253 83 269 l 10 269 l 0 254 l 10 242 l 10 83 z m 186 1 l 186 17 l 211 17 b 221 24 218 17 221 19 l 221 32 b 211 40 221 38 218 40 l 176 40 l 176 1 z m 165 33 l 165 40 l 119 40 l 119 33 l 138 33 l 138 1 l 146 1 l 146 33 z m 115 33 l 115 40 l 69 40 l 69 33 l 88 33 l 88 1 l 97 1 l 97 33 z m 19 1 l 19 18 l 49 18 l 49 1 l 57 1 l 57 40 l 49 40 l 49 25 l 19 25 l 19 40 l 10 40 l 10 1 z m 868 474 l 835 493 l 821 585 l 758 585 l 743 493 l 713 474 l 681 493 l 749 894 l 832 894 l 899 493 z m 1418 32 l 1450 32 l 1450 8 l 1418 8 z m 1204 126 b 1189 110 1204 115 1199 110 b 1172 126 1178 110 1172 115 l 1172 228 b 1189 244 1172 239 1178 244 b 1204 228 1199 244 1204 239 z m 1213 32 l 1243 32 l 1243 8 l 1213 8 z m 1178 33 b 1182 31 1181 33 1182 32 l 1182 26 b 1178 24 1182 25 1181 24 l 1157 24 l 1157 33 z m 969 32 l 1000 32 l 1000 8 l 969 8 z m 882 33 b 886 31 885 33 886 32 l 886 28 b 882 25 886 26 885 25 l 861 25 l 861 33 z m 882 18 b 886 15 885 18 886 17 l 886 11 b 882 8 886 10 885 8 l 861 8 l 861 18 z m 665 197 b 650 182 665 188 660 182 l 633 182 l 633 240 l 650 240 b 665 225 660 240 665 235 z m 542 154 l 521 154 l 531 226 z m 626 33 b 631 31 629 33 631 32 l 631 25 b 626 22 631 24 629 22 l 606 22 l 606 33 z m 558 33 l 568 17 l 550 17 z m 344 33 b 349 31 347 33 349 32 l 349 28 b 344 25 349 26 347 25 l 322 25 l 322 33 z m 344 18 b 349 15 347 18 349 17 l 349 11 b 344 8 349 10 347 8 l 322 8 l 322 18 z m 40 242 l 51 242 b 71 218 64 242 71 233 b 51 193 71 201 64 193 l 40 193 z m 207 33 b 211 31 210 33 211 32 l 211 26 b 207 24 211 25 210 24 l 186 24 l 186 33 z m 40 167 l 51 167 b 74 138 67 167 74 157 b 51 111 74 119 67 111 l 40 111 z m 767 644 l 813 644 l 789 803 z "},"9":{"ha":1656,"x_min":0,"x_max":0,"o":"m 1576 131 b 1553 176 1576 146 1568 161 b 1517 226 1529 200 1517 217 b 1531 247 1517 240 1521 247 b 1549 224 1540 247 1547 239 l 1575 229 b 1531 272 1574 258 1558 272 b 1488 225 1501 272 1488 257 b 1494 197 1488 215 1490 207 b 1526 165 1504 186 1515 175 b 1549 129 1542 149 1549 136 b 1531 107 1549 115 1543 108 b 1511 136 1519 107 1513 117 l 1496 144 l 1485 135 b 1532 82 1486 100 1503 82 b 1576 131 1563 82 1578 99 z m 1407 83 l 1421 74 l 1435 83 l 1435 242 l 1465 242 l 1465 269 l 1378 269 l 1378 242 l 1407 242 z m 1539 0 l 1563 50 l 1557 50 l 1533 0 z m 1482 1 l 1482 28 l 1500 6 l 1501 6 l 1518 28 l 1518 1 l 1526 1 l 1526 40 l 1519 40 l 1501 17 l 1482 40 l 1475 40 l 1475 1 z m 669 844 l 381 813 l 597 614 l 538 331 l 793 475 l 1046 331 l 986 618 l 1201 813 l 910 846 l 792 1111 z m 1258 269 l 1249 256 l 1258 243 l 1258 83 l 1286 83 l 1286 203 l 1325 83 l 1356 83 l 1356 269 l 1326 269 l 1326 144 l 1290 269 z m 1410 11 b 1419 1 1410 4 1413 1 l 1449 1 b 1458 11 1456 1 1458 4 l 1458 31 b 1449 40 1458 38 1456 40 l 1419 40 b 1410 31 1413 40 1410 38 z m 1386 25 l 1394 26 l 1394 31 b 1385 40 1394 38 1392 40 l 1361 40 b 1351 31 1354 40 1351 38 l 1351 11 b 1361 1 1351 4 1354 1 l 1385 1 b 1394 11 1392 1 1394 4 l 1394 15 l 1386 17 l 1386 8 l 1361 8 l 1361 32 l 1386 32 z m 1189 272 b 1144 228 1160 272 1144 257 l 1144 126 b 1189 82 1144 97 1160 82 b 1233 126 1218 82 1233 97 l 1233 228 b 1189 272 1233 257 1218 272 z m 1322 15 l 1322 3 b 1324 1 1322 1 1322 1 l 1335 1 b 1336 4 1336 3 1336 3 l 1336 13 b 1335 15 1336 14 1336 14 z m 1310 33 l 1310 40 l 1264 40 l 1264 33 l 1282 33 l 1282 1 l 1292 1 l 1292 33 z m 1074 163 l 1111 163 l 1111 190 l 1074 190 l 1074 242 l 1125 242 l 1125 269 l 1046 269 l 1036 256 l 1046 242 l 1046 83 l 1074 83 z m 1204 11 b 1214 1 1204 4 1207 1 l 1243 1 b 1253 11 1250 1 1253 4 l 1253 31 b 1243 40 1253 38 1250 40 l 1214 40 b 1204 31 1207 40 1204 38 z m 1157 1 l 1157 17 l 1182 17 b 1192 24 1189 17 1192 19 l 1192 32 b 1182 40 1192 38 1189 40 l 1147 40 l 1147 1 z m 1007 111 l 958 111 l 958 269 l 944 281 l 931 269 l 931 83 l 1007 83 z m 1124 29 l 1131 31 l 1131 32 b 1121 40 1131 38 1128 40 l 1099 40 b 1089 31 1092 40 1089 38 l 1089 26 b 1099 17 1089 19 1092 17 l 1124 17 l 1124 8 l 1094 8 l 1094 13 l 1088 11 b 1097 1 1088 4 1090 1 l 1122 1 b 1132 11 1129 1 1132 4 l 1132 15 b 1122 25 1132 22 1129 25 l 1097 25 l 1097 33 l 1124 33 z m 1063 29 l 1072 31 b 1063 40 1072 38 1069 40 l 1035 40 b 1025 31 1028 40 1025 38 l 1025 11 b 1035 1 1025 4 1028 1 l 1063 1 b 1072 11 1069 1 1072 4 l 1072 24 l 1047 24 l 1047 17 l 1063 17 l 1063 8 l 1033 8 l 1033 32 l 1063 32 z m 911 83 l 911 111 l 860 111 l 860 163 l 897 163 l 897 190 l 860 190 l 860 242 l 911 242 l 911 269 l 832 269 l 822 256 l 832 242 l 832 83 z m 960 11 b 969 1 960 4 963 1 l 1000 1 b 1010 11 1007 1 1010 4 l 1010 31 b 1000 40 1010 38 1007 40 l 969 40 b 960 31 963 40 960 38 z m 950 1 l 950 8 l 921 8 l 921 40 l 911 40 l 911 1 z m 763 81 b 807 125 792 81 807 96 l 807 190 l 763 190 l 751 175 l 763 163 l 778 163 l 778 126 b 763 110 778 115 772 110 b 746 126 751 110 746 115 l 746 228 b 763 244 746 239 751 244 b 778 228 772 244 778 239 l 778 206 l 807 206 l 807 226 b 763 272 807 257 792 272 b 718 226 733 272 718 257 l 718 125 b 763 81 718 96 733 81 z m 883 1 b 896 8 892 1 896 4 l 896 14 b 889 21 896 18 893 19 b 894 28 893 22 894 24 l 894 32 b 886 40 894 38 892 40 l 851 40 l 851 1 z m 822 15 b 821 13 821 14 821 14 l 821 4 b 824 1 821 3 822 1 l 835 1 l 835 15 z m 606 269 l 596 256 l 606 243 l 606 83 l 633 83 l 633 154 l 651 154 l 668 83 l 699 83 l 678 165 b 693 199 688 174 693 185 l 693 225 b 649 269 693 254 678 269 z m 811 1 l 811 8 l 782 8 l 782 40 l 772 40 l 772 1 z m 758 1 l 758 8 l 726 8 l 726 18 l 744 18 l 744 25 l 726 25 l 726 33 l 758 33 l 758 40 l 717 40 l 717 1 z m 546 126 l 551 83 l 567 75 l 582 83 l 550 269 l 511 269 l 481 83 l 494 75 l 510 83 l 517 126 z m 692 29 l 701 31 b 692 40 701 38 699 40 l 664 40 b 654 31 657 40 654 38 l 654 11 b 664 1 654 4 657 1 l 692 1 b 701 11 699 1 701 4 l 701 24 l 676 24 l 676 17 l 692 17 l 692 8 l 663 8 l 663 32 l 692 32 z m 606 1 l 606 15 l 614 15 l 631 1 l 643 1 l 625 15 l 631 15 b 639 24 636 15 639 18 l 639 32 b 631 40 639 38 636 40 l 596 40 l 596 1 z m 542 1 l 546 10 l 571 10 l 576 1 l 586 1 l 564 40 l 554 40 l 532 1 z m 376 83 l 404 83 l 404 161 l 442 269 l 411 269 l 390 203 l 369 269 l 339 269 l 376 161 z m 513 1 l 513 19 l 533 40 l 522 40 l 508 25 l 496 40 l 483 40 l 504 18 l 504 1 z m 354 111 l 306 111 l 306 269 l 290 281 l 278 269 l 278 83 l 354 83 z m 489 1 l 489 8 l 458 8 l 458 40 l 449 40 l 449 1 z m 439 1 l 439 8 l 408 8 l 408 40 l 400 40 l 400 1 z m 258 111 l 210 111 l 210 269 l 194 281 l 182 269 l 182 83 l 258 83 z m 382 1 l 382 40 l 374 40 l 374 1 z m 346 1 b 357 8 353 1 357 4 l 357 14 b 350 21 357 18 354 19 b 357 28 354 22 357 24 l 357 32 b 349 40 357 38 354 40 l 314 40 l 314 1 z m 283 0 l 307 50 l 301 50 l 278 0 z m 157 269 l 128 269 l 128 83 l 142 74 l 157 83 z m 258 0 l 282 50 l 276 50 l 253 0 z m 238 40 b 233 39 236 40 235 40 l 233 26 l 247 26 l 247 39 b 244 40 246 40 246 40 z m 233 15 l 233 3 l 235 1 l 247 1 l 247 15 z m 61 83 b 104 136 90 83 104 101 b 81 181 104 160 96 175 b 100 218 93 188 100 200 b 51 269 100 253 83 269 l 10 269 l 0 254 l 10 242 l 10 83 z m 186 1 l 186 17 l 211 17 b 221 24 218 17 221 19 l 221 32 b 211 40 221 38 218 40 l 176 40 l 176 1 z m 165 33 l 165 40 l 119 40 l 119 33 l 138 33 l 138 1 l 146 1 l 146 33 z m 115 33 l 115 40 l 69 40 l 69 33 l 88 33 l 88 1 l 97 1 l 97 33 z m 19 1 l 19 18 l 49 18 l 49 1 l 57 1 l 57 40 l 49 40 l 49 25 l 19 25 l 19 40 l 10 40 l 10 1 z m 868 474 l 835 493 l 821 585 l 758 585 l 743 493 l 713 474 l 681 493 l 749 894 l 832 894 l 899 493 z m 1418 32 l 1450 32 l 1450 8 l 1418 8 z m 1204 126 b 1189 110 1204 115 1199 110 b 1172 126 1178 110 1172 115 l 1172 228 b 1189 244 1172 239 1178 244 b 1204 228 1199 244 1204 239 z m 1213 32 l 1243 32 l 1243 8 l 1213 8 z m 1178 33 b 1182 31 1181 33 1182 32 l 1182 26 b 1178 24 1182 25 1181 24 l 1157 24 l 1157 33 z m 969 32 l 1000 32 l 1000 8 l 969 8 z m 882 33 b 886 31 885 33 886 32 l 886 28 b 882 25 886 26 885 25 l 861 25 l 861 33 z m 882 18 b 886 15 885 18 886 17 l 886 11 b 882 8 886 10 885 8 l 861 8 l 861 18 z m 665 197 b 650 182 665 188 660 182 l 633 182 l 633 240 l 650 240 b 665 225 660 240 665 235 z m 542 154 l 521 154 l 531 226 z m 626 33 b 631 31 629 33 631 32 l 631 25 b 626 22 631 24 629 22 l 606 22 l 606 33 z m 558 33 l 568 17 l 550 17 z m 344 33 b 349 31 347 33 349 32 l 349 28 b 344 25 349 26 347 25 l 322 25 l 322 33 z m 344 18 b 349 15 347 18 349 17 l 349 11 b 344 8 349 10 347 8 l 322 8 l 322 18 z m 40 242 l 51 242 b 71 218 64 242 71 233 b 51 193 71 201 64 193 l 40 193 z m 207 33 b 211 31 210 33 211 32 l 211 26 b 207 24 211 25 210 24 l 186 24 l 186 33 z m 40 167 l 51 167 b 74 138 67 167 74 157 b 51 111 74 119 67 111 l 40 111 z m 767 644 l 813 644 l 789 803 z "}," ":{"ha":438,"x_min":0,"x_max":0,"o":""},"!":{"ha":1656,"x_min":0,"x_max":0,"o":"m 1576 131 b 1553 176 1576 146 1568 161 b 1517 226 1529 200 1517 217 b 1531 247 1517 240 1521 247 b 1549 224 1540 247 1547 239 l 1575 229 b 1531 272 1574 258 1558 272 b 1488 225 1501 272 1488 257 b 1494 197 1488 215 1490 207 b 1526 165 1504 186 1515 175 b 1549 129 1542 149 1549 136 b 1531 107 1549 115 1543 108 b 1511 136 1519 107 1513 117 l 1496 144 l 1485 135 b 1532 82 1486 100 1503 82 b 1576 131 1563 82 1578 99 z m 1407 83 l 1421 74 l 1435 83 l 1435 242 l 1465 242 l 1465 269 l 1378 269 l 1378 242 l 1407 242 z m 1539 0 l 1563 50 l 1557 50 l 1533 0 z m 1482 1 l 1482 28 l 1500 6 l 1501 6 l 1518 28 l 1518 1 l 1526 1 l 1526 40 l 1519 40 l 1501 17 l 1482 40 l 1475 40 l 1475 1 z m 669 844 l 381 813 l 597 614 l 538 331 l 793 475 l 1046 331 l 986 618 l 1201 813 l 910 846 l 792 1111 z m 1258 269 l 1249 256 l 1258 243 l 1258 83 l 1286 83 l 1286 203 l 1325 83 l 1356 83 l 1356 269 l 1326 269 l 1326 144 l 1290 269 z m 1410 11 b 1419 1 1410 4 1413 1 l 1449 1 b 1458 11 1456 1 1458 4 l 1458 31 b 1449 40 1458 38 1456 40 l 1419 40 b 1410 31 1413 40 1410 38 z m 1386 25 l 1394 26 l 1394 31 b 1385 40 1394 38 1392 40 l 1361 40 b 1351 31 1354 40 1351 38 l 1351 11 b 1361 1 1351 4 1354 1 l 1385 1 b 1394 11 1392 1 1394 4 l 1394 15 l 1386 17 l 1386 8 l 1361 8 l 1361 32 l 1386 32 z m 1189 272 b 1144 228 1160 272 1144 257 l 1144 126 b 1189 82 1144 97 1160 82 b 1233 126 1218 82 1233 97 l 1233 228 b 1189 272 1233 257 1218 272 z m 1322 15 l 1322 3 b 1324 1 1322 1 1322 1 l 1335 1 b 1336 4 1336 3 1336 3 l 1336 13 b 1335 15 1336 14 1336 14 z m 1310 33 l 1310 40 l 1264 40 l 1264 33 l 1282 33 l 1282 1 l 1292 1 l 1292 33 z m 1074 163 l 1111 163 l 1111 190 l 1074 190 l 1074 242 l 1125 242 l 1125 269 l 1046 269 l 1036 256 l 1046 242 l 1046 83 l 1074 83 z m 1204 11 b 1214 1 1204 4 1207 1 l 1243 1 b 1253 11 1250 1 1253 4 l 1253 31 b 1243 40 1253 38 1250 40 l 1214 40 b 1204 31 1207 40 1204 38 z m 1157 1 l 1157 17 l 1182 17 b 1192 24 1189 17 1192 19 l 1192 32 b 1182 40 1192 38 1189 40 l 1147 40 l 1147 1 z m 1007 111 l 958 111 l 958 269 l 944 281 l 931 269 l 931 83 l 1007 83 z m 1124 29 l 1131 31 l 1131 32 b 1121 40 1131 38 1128 40 l 1099 40 b 1089 31 1092 40 1089 38 l 1089 26 b 1099 17 1089 19 1092 17 l 1124 17 l 1124 8 l 1094 8 l 1094 13 l 1088 11 b 1097 1 1088 4 1090 1 l 1122 1 b 1132 11 1129 1 1132 4 l 1132 15 b 1122 25 1132 22 1129 25 l 1097 25 l 1097 33 l 1124 33 z m 1063 29 l 1072 31 b 1063 40 1072 38 1069 40 l 1035 40 b 1025 31 1028 40 1025 38 l 1025 11 b 1035 1 1025 4 1028 1 l 1063 1 b 1072 11 1069 1 1072 4 l 1072 24 l 1047 24 l 1047 17 l 1063 17 l 1063 8 l 1033 8 l 1033 32 l 1063 32 z m 911 83 l 911 111 l 860 111 l 860 163 l 897 163 l 897 190 l 860 190 l 860 242 l 911 242 l 911 269 l 832 269 l 822 256 l 832 242 l 832 83 z m 960 11 b 969 1 960 4 963 1 l 1000 1 b 1010 11 1007 1 1010 4 l 1010 31 b 1000 40 1010 38 1007 40 l 969 40 b 960 31 963 40 960 38 z m 950 1 l 950 8 l 921 8 l 921 40 l 911 40 l 911 1 z m 763 81 b 807 125 792 81 807 96 l 807 190 l 763 190 l 751 175 l 763 163 l 778 163 l 778 126 b 763 110 778 115 772 110 b 746 126 751 110 746 115 l 746 228 b 763 244 746 239 751 244 b 778 228 772 244 778 239 l 778 206 l 807 206 l 807 226 b 763 272 807 257 792 272 b 718 226 733 272 718 257 l 718 125 b 763 81 718 96 733 81 z m 883 1 b 896 8 892 1 896 4 l 896 14 b 889 21 896 18 893 19 b 894 28 893 22 894 24 l 894 32 b 886 40 894 38 892 40 l 851 40 l 851 1 z m 822 15 b 821 13 821 14 821 14 l 821 4 b 824 1 821 3 822 1 l 835 1 l 835 15 z m 606 269 l 596 256 l 606 243 l 606 83 l 633 83 l 633 154 l 651 154 l 668 83 l 699 83 l 678 165 b 693 199 688 174 693 185 l 693 225 b 649 269 693 254 678 269 z m 811 1 l 811 8 l 782 8 l 782 40 l 772 40 l 772 1 z m 758 1 l 758 8 l 726 8 l 726 18 l 744 18 l 744 25 l 726 25 l 726 33 l 758 33 l 758 40 l 717 40 l 717 1 z m 546 126 l 551 83 l 567 75 l 582 83 l 550 269 l 511 269 l 481 83 l 494 75 l 510 83 l 517 126 z m 692 29 l 701 31 b 692 40 701 38 699 40 l 664 40 b 654 31 657 40 654 38 l 654 11 b 664 1 654 4 657 1 l 692 1 b 701 11 699 1 701 4 l 701 24 l 676 24 l 676 17 l 692 17 l 692 8 l 663 8 l 663 32 l 692 32 z m 606 1 l 606 15 l 614 15 l 631 1 l 643 1 l 625 15 l 631 15 b 639 24 636 15 639 18 l 639 32 b 631 40 639 38 636 40 l 596 40 l 596 1 z m 542 1 l 546 10 l 571 10 l 576 1 l 586 1 l 564 40 l 554 40 l 532 1 z m 376 83 l 404 83 l 404 161 l 442 269 l 411 269 l 390 203 l 369 269 l 339 269 l 376 161 z m 513 1 l 513 19 l 533 40 l 522 40 l 508 25 l 496 40 l 483 40 l 504 18 l 504 1 z m 354 111 l 306 111 l 306 269 l 290 281 l 278 269 l 278 83 l 354 83 z m 489 1 l 489 8 l 458 8 l 458 40 l 449 40 l 449 1 z m 439 1 l 439 8 l 408 8 l 408 40 l 400 40 l 400 1 z m 258 111 l 210 111 l 210 269 l 194 281 l 182 269 l 182 83 l 258 83 z m 382 1 l 382 40 l 374 40 l 374 1 z m 346 1 b 357 8 353 1 357 4 l 357 14 b 350 21 357 18 354 19 b 357 28 354 22 357 24 l 357 32 b 349 40 357 38 354 40 l 314 40 l 314 1 z m 283 0 l 307 50 l 301 50 l 278 0 z m 157 269 l 128 269 l 128 83 l 142 74 l 157 83 z m 258 0 l 282 50 l 276 50 l 253 0 z m 238 40 b 233 39 236 40 235 40 l 233 26 l 247 26 l 247 39 b 244 40 246 40 246 40 z m 233 15 l 233 3 l 235 1 l 247 1 l 247 15 z m 61 83 b 104 136 90 83 104 101 b 81 181 104 160 96 175 b 100 218 93 188 100 200 b 51 269 100 253 83 269 l 10 269 l 0 254 l 10 242 l 10 83 z m 186 1 l 186 17 l 211 17 b 221 24 218 17 221 19 l 221 32 b 211 40 221 38 218 40 l 176 40 l 176 1 z m 165 33 l 165 40 l 119 40 l 119 33 l 138 33 l 138 1 l 146 1 l 146 33 z m 115 33 l 115 40 l 69 40 l 69 33 l 88 33 l 88 1 l 97 1 l 97 33 z m 19 1 l 19 18 l 49 18 l 49 1 l 57 1 l 57 40 l 49 40 l 49 25 l 19 25 l 19 40 l 10 40 l 10 1 z m 868 474 l 835 493 l 821 585 l 758 585 l 743 493 l 713 474 l 681 493 l 749 894 l 832 894 l 899 493 z m 1418 32 l 1450 32 l 1450 8 l 1418 8 z m 1204 126 b 1189 110 1204 115 1199 110 b 1172 126 1178 110 1172 115 l 1172 228 b 1189 244 1172 239 1178 244 b 1204 228 1199 244 1204 239 z m 1213 32 l 1243 32 l 1243 8 l 1213 8 z m 1178 33 b 1182 31 1181 33 1182 32 l 1182 26 b 1178 24 1182 25 1181 24 l 1157 24 l 1157 33 z m 969 32 l 1000 32 l 1000 8 l 969 8 z m 882 33 b 886 31 885 33 886 32 l 886 28 b 882 25 886 26 885 25 l 861 25 l 861 33 z m 882 18 b 886 15 885 18 886 17 l 886 11 b 882 8 886 10 885 8 l 861 8 l 861 18 z m 665 197 b 650 182 665 188 660 182 l 633 182 l 633 240 l 650 240 b 665 225 660 240 665 235 z m 542 154 l 521 154 l 531 226 z m 626 33 b 631 31 629 33 631 32 l 631 25 b 626 22 631 24 629 22 l 606 22 l 606 33 z m 558 33 l 568 17 l 550 17 z m 344 33 b 349 31 347 33 349 32 l 349 28 b 344 25 349 26 347 25 l 322 25 l 322 33 z m 344 18 b 349 15 347 18 349 17 l 349 11 b 344 8 349 10 347 8 l 322 8 l 322 18 z m 40 242 l 51 242 b 71 218 64 242 71 233 b 51 193 71 201 64 193 l 40 193 z m 207 33 b 211 31 210 33 211 32 l 211 26 b 207 24 211 25 210 24 l 186 24 l 186 33 z m 40 167 l 51 167 b 74 138 67 167 74 157 b 51 111 74 119 67 111 l 40 111 z m 767 644 l 813 644 l 789 803 z "},"\"":{"ha":1656,"x_min":0,"x_max":0,"o":"m 1576 131 b 1553 176 1576 146 1568 161 b 1517 226 1529 200 1517 217 b 1531 247 1517 240 1521 247 b 1549 224 1540 247 1547 239 l 1575 229 b 1531 272 1574 258 1558 272 b 1488 225 1501 272 1488 257 b 1494 197 1488 215 1490 207 b 1526 165 1504 186 1515 175 b 1549 129 1542 149 1549 136 b 1531 107 1549 115 1543 108 b 1511 136 1519 107 1513 117 l 1496 144 l 1485 135 b 1532 82 1486 100 1503 82 b 1576 131 1563 82 1578 99 z m 1407 83 l 1421 74 l 1435 83 l 1435 242 l 1465 242 l 1465 269 l 1378 269 l 1378 242 l 1407 242 z m 1539 0 l 1563 50 l 1557 50 l 1533 0 z m 1482 1 l 1482 28 l 1500 6 l 1501 6 l 1518 28 l 1518 1 l 1526 1 l 1526 40 l 1519 40 l 1501 17 l 1482 40 l 1475 40 l 1475 1 z m 669 844 l 381 813 l 597 614 l 538 331 l 793 475 l 1046 331 l 986 618 l 1201 813 l 910 846 l 792 1111 z m 1258 269 l 1249 256 l 1258 243 l 1258 83 l 1286 83 l 1286 203 l 1325 83 l 1356 83 l 1356 269 l 1326 269 l 1326 144 l 1290 269 z m 1410 11 b 1419 1 1410 4 1413 1 l 1449 1 b 1458 11 1456 1 1458 4 l 1458 31 b 1449 40 1458 38 1456 40 l 1419 40 b 1410 31 1413 40 1410 38 z m 1386 25 l 1394 26 l 1394 31 b 1385 40 1394 38 1392 40 l 1361 40 b 1351 31 1354 40 1351 38 l 1351 11 b 1361 1 1351 4 1354 1 l 1385 1 b 1394 11 1392 1 1394 4 l 1394 15 l 1386 17 l 1386 8 l 1361 8 l 1361 32 l 1386 32 z m 1189 272 b 1144 228 1160 272 1144 257 l 1144 126 b 1189 82 1144 97 1160 82 b 1233 126 1218 82 1233 97 l 1233 228 b 1189 272 1233 257 1218 272 z m 1322 15 l 1322 3 b 1324 1 1322 1 1322 1 l 1335 1 b 1336 4 1336 3 1336 3 l 1336 13 b 1335 15 1336 14 1336 14 z m 1310 33 l 1310 40 l 1264 40 l 1264 33 l 1282 33 l 1282 1 l 1292 1 l 1292 33 z m 1074 163 l 1111 163 l 1111 190 l 1074 190 l 1074 242 l 1125 242 l 1125 269 l 1046 269 l 1036 256 l 1046 242 l 1046 83 l 1074 83 z m 1204 11 b 1214 1 1204 4 1207 1 l 1243 1 b 1253 11 1250 1 1253 4 l 1253 31 b 1243 40 1253 38 1250 40 l 1214 40 b 1204 31 1207 40 1204 38 z m 1157 1 l 1157 17 l 1182 17 b 1192 24 1189 17 1192 19 l 1192 32 b 1182 40 1192 38 1189 40 l 1147 40 l 1147 1 z m 1007 111 l 958 111 l 958 269 l 944 281 l 931 269 l 931 83 l 1007 83 z m 1124 29 l 1131 31 l 1131 32 b 1121 40 1131 38 1128 40 l 1099 40 b 1089 31 1092 40 1089 38 l 1089 26 b 1099 17 1089 19 1092 17 l 1124 17 l 1124 8 l 1094 8 l 1094 13 l 1088 11 b 1097 1 1088 4 1090 1 l 1122 1 b 1132 11 1129 1 1132 4 l 1132 15 b 1122 25 1132 22 1129 25 l 1097 25 l 1097 33 l 1124 33 z m 1063 29 l 1072 31 b 1063 40 1072 38 1069 40 l 1035 40 b 1025 31 1028 40 1025 38 l 1025 11 b 1035 1 1025 4 1028 1 l 1063 1 b 1072 11 1069 1 1072 4 l 1072 24 l 1047 24 l 1047 17 l 1063 17 l 1063 8 l 1033 8 l 1033 32 l 1063 32 z m 911 83 l 911 111 l 860 111 l 860 163 l 897 163 l 897 190 l 860 190 l 860 242 l 911 242 l 911 269 l 832 269 l 822 256 l 832 242 l 832 83 z m 960 11 b 969 1 960 4 963 1 l 1000 1 b 1010 11 1007 1 1010 4 l 1010 31 b 1000 40 1010 38 1007 40 l 969 40 b 960 31 963 40 960 38 z m 950 1 l 950 8 l 921 8 l 921 40 l 911 40 l 911 1 z m 763 81 b 807 125 792 81 807 96 l 807 190 l 763 190 l 751 175 l 763 163 l 778 163 l 778 126 b 763 110 778 115 772 110 b 746 126 751 110 746 115 l 746 228 b 763 244 746 239 751 244 b 778 228 772 244 778 239 l 778 206 l 807 206 l 807 226 b 763 272 807 257 792 272 b 718 226 733 272 718 257 l 718 125 b 763 81 718 96 733 81 z m 883 1 b 896 8 892 1 896 4 l 896 14 b 889 21 896 18 893 19 b 894 28 893 22 894 24 l 894 32 b 886 40 894 38 892 40 l 851 40 l 851 1 z m 822 15 b 821 13 821 14 821 14 l 821 4 b 824 1 821 3 822 1 l 835 1 l 835 15 z m 606 269 l 596 256 l 606 243 l 606 83 l 633 83 l 633 154 l 651 154 l 668 83 l 699 83 l 678 165 b 693 199 688 174 693 185 l 693 225 b 649 269 693 254 678 269 z m 811 1 l 811 8 l 782 8 l 782 40 l 772 40 l 772 1 z m 758 1 l 758 8 l 726 8 l 726 18 l 744 18 l 744 25 l 726 25 l 726 33 l 758 33 l 758 40 l 717 40 l 717 1 z m 546 126 l 551 83 l 567 75 l 582 83 l 550 269 l 511 269 l 481 83 l 494 75 l 510 83 l 517 126 z m 692 29 l 701 31 b 692 40 701 38 699 40 l 664 40 b 654 31 657 40 654 38 l 654 11 b 664 1 654 4 657 1 l 692 1 b 701 11 699 1 701 4 l 701 24 l 676 24 l 676 17 l 692 17 l 692 8 l 663 8 l 663 32 l 692 32 z m 606 1 l 606 15 l 614 15 l 631 1 l 643 1 l 625 15 l 631 15 b 639 24 636 15 639 18 l 639 32 b 631 40 639 38 636 40 l 596 40 l 596 1 z m 542 1 l 546 10 l 571 10 l 576 1 l 586 1 l 564 40 l 554 40 l 532 1 z m 376 83 l 404 83 l 404 161 l 442 269 l 411 269 l 390 203 l 369 269 l 339 269 l 376 161 z m 513 1 l 513 19 l 533 40 l 522 40 l 508 25 l 496 40 l 483 40 l 504 18 l 504 1 z m 354 111 l 306 111 l 306 269 l 290 281 l 278 269 l 278 83 l 354 83 z m 489 1 l 489 8 l 458 8 l 458 40 l 449 40 l 449 1 z m 439 1 l 439 8 l 408 8 l 408 40 l 400 40 l 400 1 z m 258 111 l 210 111 l 210 269 l 194 281 l 182 269 l 182 83 l 258 83 z m 382 1 l 382 40 l 374 40 l 374 1 z m 346 1 b 357 8 353 1 357 4 l 357 14 b 350 21 357 18 354 19 b 357 28 354 22 357 24 l 357 32 b 349 40 357 38 354 40 l 314 40 l 314 1 z m 283 0 l 307 50 l 301 50 l 278 0 z m 157 269 l 128 269 l 128 83 l 142 74 l 157 83 z m 258 0 l 282 50 l 276 50 l 253 0 z m 238 40 b 233 39 236 40 235 40 l 233 26 l 247 26 l 247 39 b 244 40 246 40 246 40 z m 233 15 l 233 3 l 235 1 l 247 1 l 247 15 z m 61 83 b 104 136 90 83 104 101 b 81 181 104 160 96 175 b 100 218 93 188 100 200 b 51 269 100 253 83 269 l 10 269 l 0 254 l 10 242 l 10 83 z m 186 1 l 186 17 l 211 17 b 221 24 218 17 221 19 l 221 32 b 211 40 221 38 218 40 l 176 40 l 176 1 z m 165 33 l 165 40 l 119 40 l 119 33 l 138 33 l 138 1 l 146 1 l 146 33 z m 115 33 l 115 40 l 69 40 l 69 33 l 88 33 l 88 1 l 97 1 l 97 33 z m 19 1 l 19 18 l 49 18 l 49 1 l 57 1 l 57 40 l 49 40 l 49 25 l 19 25 l 19 40 l 10 40 l 10 1 z m 868 474 l 835 493 l 821 585 l 758 585 l 743 493 l 713 474 l 681 493 l 749 894 l 832 894 l 899 493 z m 1418 32 l 1450 32 l 1450 8 l 1418 8 z m 1204 126 b 1189 110 1204 115 1199 110 b 1172 126 1178 110 1172 115 l 1172 228 b 1189 244 1172 239 1178 244 b 1204 228 1199 244 1204 239 z m 1213 32 l 1243 32 l 1243 8 l 1213 8 z m 1178 33 b 1182 31 1181 33 1182 32 l 1182 26 b 1178 24 1182 25 1181 24 l 1157 24 l 1157 33 z m 969 32 l 1000 32 l 1000 8 l 969 8 z m 882 33 b 886 31 885 33 886 32 l 886 28 b 882 25 886 26 885 25 l 861 25 l 861 33 z m 882 18 b 886 15 885 18 886 17 l 886 11 b 882 8 886 10 885 8 l 861 8 l 861 18 z m 665 197 b 650 182 665 188 660 182 l 633 182 l 633 240 l 650 240 b 665 225 660 240 665 235 z m 542 154 l 521 154 l 531 226 z m 626 33 b 631 31 629 33 631 32 l 631 25 b 626 22 631 24 629 22 l 606 22 l 606 33 z m 558 33 l 568 17 l 550 17 z m 344 33 b 349 31 347 33 349 32 l 349 28 b 344 25 349 26 347 25 l 322 25 l 322 33 z m 344 18 b 349 15 347 18 349 17 l 349 11 b 344 8 349 10 347 8 l 322 8 l 322 18 z m 40 242 l 51 242 b 71 218 64 242 71 233 b 51 193 71 201 64 193 l 40 193 z m 207 33 b 211 31 210 33 211 32 l 211 26 b 207 24 211 25 210 24 l 186 24 l 186 33 z m 40 167 l 51 167 b 74 138 67 167 74 157 b 51 111 74 119 67 111 l 40 111 z m 767 644 l 813 644 l 789 803 z "},"#":{"ha":1656,"x_min":0,"x_max":0,"o":"m 1576 131 b 1553 176 1576 146 1568 161 b 1517 226 1529 200 1517 217 b 1531 247 1517 240 1521 247 b 1549 224 1540 247 1547 239 l 1575 229 b 1531 272 1574 258 1558 272 b 1488 225 1501 272 1488 257 b 1494 197 1488 215 1490 207 b 1526 165 1504 186 1515 175 b 1549 129 1542 149 1549 136 b 1531 107 1549 115 1543 108 b 1511 136 1519 107 1513 117 l 1496 144 l 1485 135 b 1532 82 1486 100 1503 82 b 1576 131 1563 82 1578 99 z m 1407 83 l 1421 74 l 1435 83 l 1435 242 l 1465 242 l 1465 269 l 1378 269 l 1378 242 l 1407 242 z m 1539 0 l 1563 50 l 1557 50 l 1533 0 z m 1482 1 l 1482 28 l 1500 6 l 1501 6 l 1518 28 l 1518 1 l 1526 1 l 1526 40 l 1519 40 l 1501 17 l 1482 40 l 1475 40 l 1475 1 z m 669 844 l 381 813 l 597 614 l 538 331 l 793 475 l 1046 331 l 986 618 l 1201 813 l 910 846 l 792 1111 z m 1258 269 l 1249 256 l 1258 243 l 1258 83 l 1286 83 l 1286 203 l 1325 83 l 1356 83 l 1356 269 l 1326 269 l 1326 144 l 1290 269 z m 1410 11 b 1419 1 1410 4 1413 1 l 1449 1 b 1458 11 1456 1 1458 4 l 1458 31 b 1449 40 1458 38 1456 40 l 1419 40 b 1410 31 1413 40 1410 38 z m 1386 25 l 1394 26 l 1394 31 b 1385 40 1394 38 1392 40 l 1361 40 b 1351 31 1354 40 1351 38 l 1351 11 b 1361 1 1351 4 1354 1 l 1385 1 b 1394 11 1392 1 1394 4 l 1394 15 l 1386 17 l 1386 8 l 1361 8 l 1361 32 l 1386 32 z m 1189 272 b 1144 228 1160 272 1144 257 l 1144 126 b 1189 82 1144 97 1160 82 b 1233 126 1218 82 1233 97 l 1233 228 b 1189 272 1233 257 1218 272 z m 1322 15 l 1322 3 b 1324 1 1322 1 1322 1 l 1335 1 b 1336 4 1336 3 1336 3 l 1336 13 b 1335 15 1336 14 1336 14 z m 1310 33 l 1310 40 l 1264 40 l 1264 33 l 1282 33 l 1282 1 l 1292 1 l 1292 33 z m 1074 163 l 1111 163 l 1111 190 l 1074 190 l 1074 242 l 1125 242 l 1125 269 l 1046 269 l 1036 256 l 1046 242 l 1046 83 l 1074 83 z m 1204 11 b 1214 1 1204 4 1207 1 l 1243 1 b 1253 11 1250 1 1253 4 l 1253 31 b 1243 40 1253 38 1250 40 l 1214 40 b 1204 31 1207 40 1204 38 z m 1157 1 l 1157 17 l 1182 17 b 1192 24 1189 17 1192 19 l 1192 32 b 1182 40 1192 38 1189 40 l 1147 40 l 1147 1 z m 1007 111 l 958 111 l 958 269 l 944 281 l 931 269 l 931 83 l 1007 83 z m 1124 29 l 1131 31 l 1131 32 b 1121 40 1131 38 1128 40 l 1099 40 b 1089 31 1092 40 1089 38 l 1089 26 b 1099 17 1089 19 1092 17 l 1124 17 l 1124 8 l 1094 8 l 1094 13 l 1088 11 b 1097 1 1088 4 1090 1 l 1122 1 b 1132 11 1129 1 1132 4 l 1132 15 b 1122 25 1132 22 1129 25 l 1097 25 l 1097 33 l 1124 33 z m 1063 29 l 1072 31 b 1063 40 1072 38 1069 40 l 1035 40 b 1025 31 1028 40 1025 38 l 1025 11 b 1035 1 1025 4 1028 1 l 1063 1 b 1072 11 1069 1 1072 4 l 1072 24 l 1047 24 l 1047 17 l 1063 17 l 1063 8 l 1033 8 l 1033 32 l 1063 32 z m 911 83 l 911 111 l 860 111 l 860 163 l 897 163 l 897 190 l 860 190 l 860 242 l 911 242 l 911 269 l 832 269 l 822 256 l 832 242 l 832 83 z m 960 11 b 969 1 960 4 963 1 l 1000 1 b 1010 11 1007 1 1010 4 l 1010 31 b 1000 40 1010 38 1007 40 l 969 40 b 960 31 963 40 960 38 z m 950 1 l 950 8 l 921 8 l 921 40 l 911 40 l 911 1 z m 763 81 b 807 125 792 81 807 96 l 807 190 l 763 190 l 751 175 l 763 163 l 778 163 l 778 126 b 763 110 778 115 772 110 b 746 126 751 110 746 115 l 746 228 b 763 244 746 239 751 244 b 778 228 772 244 778 239 l 778 206 l 807 206 l 807 226 b 763 272 807 257 792 272 b 718 226 733 272 718 257 l 718 125 b 763 81 718 96 733 81 z m 883 1 b 896 8 892 1 896 4 l 896 14 b 889 21 896 18 893 19 b 894 28 893 22 894 24 l 894 32 b 886 40 894 38 892 40 l 851 40 l 851 1 z m 822 15 b 821 13 821 14 821 14 l 821 4 b 824 1 821 3 822 1 l 835 1 l 835 15 z m 606 269 l 596 256 l 606 243 l 606 83 l 633 83 l 633 154 l 651 154 l 668 83 l 699 83 l 678 165 b 693 199 688 174 693 185 l 693 225 b 649 269 693 254 678 269 z m 811 1 l 811 8 l 782 8 l 782 40 l 772 40 l 772 1 z m 758 1 l 758 8 l 726 8 l 726 18 l 744 18 l 744 25 l 726 25 l 726 33 l 758 33 l 758 40 l 717 40 l 717 1 z m 546 126 l 551 83 l 567 75 l 582 83 l 550 269 l 511 269 l 481 83 l 494 75 l 510 83 l 517 126 z m 692 29 l 701 31 b 692 40 701 38 699 40 l 664 40 b 654 31 657 40 654 38 l 654 11 b 664 1 654 4 657 1 l 692 1 b 701 11 699 1 701 4 l 701 24 l 676 24 l 676 17 l 692 17 l 692 8 l 663 8 l 663 32 l 692 32 z m 606 1 l 606 15 l 614 15 l 631 1 l 643 1 l 625 15 l 631 15 b 639 24 636 15 639 18 l 639 32 b 631 40 639 38 636 40 l 596 40 l 596 1 z m 542 1 l 546 10 l 571 10 l 576 1 l 586 1 l 564 40 l 554 40 l 532 1 z m 376 83 l 404 83 l 404 161 l 442 269 l 411 269 l 390 203 l 369 269 l 339 269 l 376 161 z m 513 1 l 513 19 l 533 40 l 522 40 l 508 25 l 496 40 l 483 40 l 504 18 l 504 1 z m 354 111 l 306 111 l 306 269 l 290 281 l 278 269 l 278 83 l 354 83 z m 489 1 l 489 8 l 458 8 l 458 40 l 449 40 l 449 1 z m 439 1 l 439 8 l 408 8 l 408 40 l 400 40 l 400 1 z m 258 111 l 210 111 l 210 269 l 194 281 l 182 269 l 182 83 l 258 83 z m 382 1 l 382 40 l 374 40 l 374 1 z m 346 1 b 357 8 353 1 357 4 l 357 14 b 350 21 357 18 354 19 b 357 28 354 22 357 24 l 357 32 b 349 40 357 38 354 40 l 314 40 l 314 1 z m 283 0 l 307 50 l 301 50 l 278 0 z m 157 269 l 128 269 l 128 83 l 142 74 l 157 83 z m 258 0 l 282 50 l 276 50 l 253 0 z m 238 40 b 233 39 236 40 235 40 l 233 26 l 247 26 l 247 39 b 244 40 246 40 246 40 z m 233 15 l 233 3 l 235 1 l 247 1 l 247 15 z m 61 83 b 104 136 90 83 104 101 b 81 181 104 160 96 175 b 100 218 93 188 100 200 b 51 269 100 253 83 269 l 10 269 l 0 254 l 10 242 l 10 83 z m 186 1 l 186 17 l 211 17 b 221 24 218 17 221 19 l 221 32 b 211 40 221 38 218 40 l 176 40 l 176 1 z m 165 33 l 165 40 l 119 40 l 119 33 l 138 33 l 138 1 l 146 1 l 146 33 z m 115 33 l 115 40 l 69 40 l 69 33 l 88 33 l 88 1 l 97 1 l 97 33 z m 19 1 l 19 18 l 49 18 l 49 1 l 57 1 l 57 40 l 49 40 l 49 25 l 19 25 l 19 40 l 10 40 l 10 1 z m 868 474 l 835 493 l 821 585 l 758 585 l 743 493 l 713 474 l 681 493 l 749 894 l 832 894 l 899 493 z m 1418 32 l 1450 32 l 1450 8 l 1418 8 z m 1204 126 b 1189 110 1204 115 1199 110 b 1172 126 1178 110 1172 115 l 1172 228 b 1189 244 1172 239 1178 244 b 1204 228 1199 244 1204 239 z m 1213 32 l 1243 32 l 1243 8 l 1213 8 z m 1178 33 b 1182 31 1181 33 1182 32 l 1182 26 b 1178 24 1182 25 1181 24 l 1157 24 l 1157 33 z m 969 32 l 1000 32 l 1000 8 l 969 8 z m 882 33 b 886 31 885 33 886 32 l 886 28 b 882 25 886 26 885 25 l 861 25 l 861 33 z m 882 18 b 886 15 885 18 886 17 l 886 11 b 882 8 886 10 885 8 l 861 8 l 861 18 z m 665 197 b 650 182 665 188 660 182 l 633 182 l 633 240 l 650 240 b 665 225 660 240 665 235 z m 542 154 l 521 154 l 531 226 z m 626 33 b 631 31 629 33 631 32 l 631 25 b 626 22 631 24 629 22 l 606 22 l 606 33 z m 558 33 l 568 17 l 550 17 z m 344 33 b 349 31 347 33 349 32 l 349 28 b 344 25 349 26 347 25 l 322 25 l 322 33 z m 344 18 b 349 15 347 18 349 17 l 349 11 b 344 8 349 10 347 8 l 322 8 l 322 18 z m 40 242 l 51 242 b 71 218 64 242 71 233 b 51 193 71 201 64 193 l 40 193 z m 207 33 b 211 31 210 33 211 32 l 211 26 b 207 24 211 25 210 24 l 186 24 l 186 33 z m 40 167 l 51 167 b 74 138 67 167 74 157 b 51 111 74 119 67 111 l 40 111 z m 767 644 l 813 644 l 789 803 z "},"$":{"ha":1656,"x_min":0,"x_max":0,"o":"m 1576 131 b 1553 176 1576 146 1568 161 b 1517 226 1529 200 1517 217 b 1531 247 1517 240 1521 247 b 1549 224 1540 247 1547 239 l 1575 229 b 1531 272 1574 258 1558 272 b 1488 225 1501 272 1488 257 b 1494 197 1488 215 1490 207 b 1526 165 1504 186 1515 175 b 1549 129 1542 149 1549 136 b 1531 107 1549 115 1543 108 b 1511 136 1519 107 1513 117 l 1496 144 l 1485 135 b 1532 82 1486 100 1503 82 b 1576 131 1563 82 1578 99 z m 1407 83 l 1421 74 l 1435 83 l 1435 242 l 1465 242 l 1465 269 l 1378 269 l 1378 242 l 1407 242 z m 1539 0 l 1563 50 l 1557 50 l 1533 0 z m 1482 1 l 1482 28 l 1500 6 l 1501 6 l 1518 28 l 1518 1 l 1526 1 l 1526 40 l 1519 40 l 1501 17 l 1482 40 l 1475 40 l 1475 1 z m 669 844 l 381 813 l 597 614 l 538 331 l 793 475 l 1046 331 l 986 618 l 1201 813 l 910 846 l 792 1111 z m 1258 269 l 1249 256 l 1258 243 l 1258 83 l 1286 83 l 1286 203 l 1325 83 l 1356 83 l 1356 269 l 1326 269 l 1326 144 l 1290 269 z m 1410 11 b 1419 1 1410 4 1413 1 l 1449 1 b 1458 11 1456 1 1458 4 l 1458 31 b 1449 40 1458 38 1456 40 l 1419 40 b 1410 31 1413 40 1410 38 z m 1386 25 l 1394 26 l 1394 31 b 1385 40 1394 38 1392 40 l 1361 40 b 1351 31 1354 40 1351 38 l 1351 11 b 1361 1 1351 4 1354 1 l 1385 1 b 1394 11 1392 1 1394 4 l 1394 15 l 1386 17 l 1386 8 l 1361 8 l 1361 32 l 1386 32 z m 1189 272 b 1144 228 1160 272 1144 257 l 1144 126 b 1189 82 1144 97 1160 82 b 1233 126 1218 82 1233 97 l 1233 228 b 1189 272 1233 257 1218 272 z m 1322 15 l 1322 3 b 1324 1 1322 1 1322 1 l 1335 1 b 1336 4 1336 3 1336 3 l 1336 13 b 1335 15 1336 14 1336 14 z m 1310 33 l 1310 40 l 1264 40 l 1264 33 l 1282 33 l 1282 1 l 1292 1 l 1292 33 z m 1074 163 l 1111 163 l 1111 190 l 1074 190 l 1074 242 l 1125 242 l 1125 269 l 1046 269 l 1036 256 l 1046 242 l 1046 83 l 1074 83 z m 1204 11 b 1214 1 1204 4 1207 1 l 1243 1 b 1253 11 1250 1 1253 4 l 1253 31 b 1243 40 1253 38 1250 40 l 1214 40 b 1204 31 1207 40 1204 38 z m 1157 1 l 1157 17 l 1182 17 b 1192 24 1189 17 1192 19 l 1192 32 b 1182 40 1192 38 1189 40 l 1147 40 l 1147 1 z m 1007 111 l 958 111 l 958 269 l 944 281 l 931 269 l 931 83 l 1007 83 z m 1124 29 l 1131 31 l 1131 32 b 1121 40 1131 38 1128 40 l 1099 40 b 1089 31 1092 40 1089 38 l 1089 26 b 1099 17 1089 19 1092 17 l 1124 17 l 1124 8 l 1094 8 l 1094 13 l 1088 11 b 1097 1 1088 4 1090 1 l 1122 1 b 1132 11 1129 1 1132 4 l 1132 15 b 1122 25 1132 22 1129 25 l 1097 25 l 1097 33 l 1124 33 z m 1063 29 l 1072 31 b 1063 40 1072 38 1069 40 l 1035 40 b 1025 31 1028 40 1025 38 l 1025 11 b 1035 1 1025 4 1028 1 l 1063 1 b 1072 11 1069 1 1072 4 l 1072 24 l 1047 24 l 1047 17 l 1063 17 l 1063 8 l 1033 8 l 1033 32 l 1063 32 z m 911 83 l 911 111 l 860 111 l 860 163 l 897 163 l 897 190 l 860 190 l 860 242 l 911 242 l 911 269 l 832 269 l 822 256 l 832 242 l 832 83 z m 960 11 b 969 1 960 4 963 1 l 1000 1 b 1010 11 1007 1 1010 4 l 1010 31 b 1000 40 1010 38 1007 40 l 969 40 b 960 31 963 40 960 38 z m 950 1 l 950 8 l 921 8 l 921 40 l 911 40 l 911 1 z m 763 81 b 807 125 792 81 807 96 l 807 190 l 763 190 l 751 175 l 763 163 l 778 163 l 778 126 b 763 110 778 115 772 110 b 746 126 751 110 746 115 l 746 228 b 763 244 746 239 751 244 b 778 228 772 244 778 239 l 778 206 l 807 206 l 807 226 b 763 272 807 257 792 272 b 718 226 733 272 718 257 l 718 125 b 763 81 718 96 733 81 z m 883 1 b 896 8 892 1 896 4 l 896 14 b 889 21 896 18 893 19 b 894 28 893 22 894 24 l 894 32 b 886 40 894 38 892 40 l 851 40 l 851 1 z m 822 15 b 821 13 821 14 821 14 l 821 4 b 824 1 821 3 822 1 l 835 1 l 835 15 z m 606 269 l 596 256 l 606 243 l 606 83 l 633 83 l 633 154 l 651 154 l 668 83 l 699 83 l 678 165 b 693 199 688 174 693 185 l 693 225 b 649 269 693 254 678 269 z m 811 1 l 811 8 l 782 8 l 782 40 l 772 40 l 772 1 z m 758 1 l 758 8 l 726 8 l 726 18 l 744 18 l 744 25 l 726 25 l 726 33 l 758 33 l 758 40 l 717 40 l 717 1 z m 546 126 l 551 83 l 567 75 l 582 83 l 550 269 l 511 269 l 481 83 l 494 75 l 510 83 l 517 126 z m 692 29 l 701 31 b 692 40 701 38 699 40 l 664 40 b 654 31 657 40 654 38 l 654 11 b 664 1 654 4 657 1 l 692 1 b 701 11 699 1 701 4 l 701 24 l 676 24 l 676 17 l 692 17 l 692 8 l 663 8 l 663 32 l 692 32 z m 606 1 l 606 15 l 614 15 l 631 1 l 643 1 l 625 15 l 631 15 b 639 24 636 15 639 18 l 639 32 b 631 40 639 38 636 40 l 596 40 l 596 1 z m 542 1 l 546 10 l 571 10 l 576 1 l 586 1 l 564 40 l 554 40 l 532 1 z m 376 83 l 404 83 l 404 161 l 442 269 l 411 269 l 390 203 l 369 269 l 339 269 l 376 161 z m 513 1 l 513 19 l 533 40 l 522 40 l 508 25 l 496 40 l 483 40 l 504 18 l 504 1 z m 354 111 l 306 111 l 306 269 l 290 281 l 278 269 l 278 83 l 354 83 z m 489 1 l 489 8 l 458 8 l 458 40 l 449 40 l 449 1 z m 439 1 l 439 8 l 408 8 l 408 40 l 400 40 l 400 1 z m 258 111 l 210 111 l 210 269 l 194 281 l 182 269 l 182 83 l 258 83 z m 382 1 l 382 40 l 374 40 l 374 1 z m 346 1 b 357 8 353 1 357 4 l 357 14 b 350 21 357 18 354 19 b 357 28 354 22 357 24 l 357 32 b 349 40 357 38 354 40 l 314 40 l 314 1 z m 283 0 l 307 50 l 301 50 l 278 0 z m 157 269 l 128 269 l 128 83 l 142 74 l 157 83 z m 258 0 l 282 50 l 276 50 l 253 0 z m 238 40 b 233 39 236 40 235 40 l 233 26 l 247 26 l 247 39 b 244 40 246 40 246 40 z m 233 15 l 233 3 l 235 1 l 247 1 l 247 15 z m 61 83 b 104 136 90 83 104 101 b 81 181 104 160 96 175 b 100 218 93 188 100 200 b 51 269 100 253 83 269 l 10 269 l 0 254 l 10 242 l 10 83 z m 186 1 l 186 17 l 211 17 b 221 24 218 17 221 19 l 221 32 b 211 40 221 38 218 40 l 176 40 l 176 1 z m 165 33 l 165 40 l 119 40 l 119 33 l 138 33 l 138 1 l 146 1 l 146 33 z m 115 33 l 115 40 l 69 40 l 69 33 l 88 33 l 88 1 l 97 1 l 97 33 z m 19 1 l 19 18 l 49 18 l 49 1 l 57 1 l 57 40 l 49 40 l 49 25 l 19 25 l 19 40 l 10 40 l 10 1 z m 868 474 l 835 493 l 821 585 l 758 585 l 743 493 l 713 474 l 681 493 l 749 894 l 832 894 l 899 493 z m 1418 32 l 1450 32 l 1450 8 l 1418 8 z m 1204 126 b 1189 110 1204 115 1199 110 b 1172 126 1178 110 1172 115 l 1172 228 b 1189 244 1172 239 1178 244 b 1204 228 1199 244 1204 239 z m 1213 32 l 1243 32 l 1243 8 l 1213 8 z m 1178 33 b 1182 31 1181 33 1182 32 l 1182 26 b 1178 24 1182 25 1181 24 l 1157 24 l 1157 33 z m 969 32 l 1000 32 l 1000 8 l 969 8 z m 882 33 b 886 31 885 33 886 32 l 886 28 b 882 25 886 26 885 25 l 861 25 l 861 33 z m 882 18 b 886 15 885 18 886 17 l 886 11 b 882 8 886 10 885 8 l 861 8 l 861 18 z m 665 197 b 650 182 665 188 660 182 l 633 182 l 633 240 l 650 240 b 665 225 660 240 665 235 z m 542 154 l 521 154 l 531 226 z m 626 33 b 631 31 629 33 631 32 l 631 25 b 626 22 631 24 629 22 l 606 22 l 606 33 z m 558 33 l 568 17 l 550 17 z m 344 33 b 349 31 347 33 349 32 l 349 28 b 344 25 349 26 347 25 l 322 25 l 322 33 z m 344 18 b 349 15 347 18 349 17 l 349 11 b 344 8 349 10 347 8 l 322 8 l 322 18 z m 40 242 l 51 242 b 71 218 64 242 71 233 b 51 193 71 201 64 193 l 40 193 z m 207 33 b 211 31 210 33 211 32 l 211 26 b 207 24 211 25 210 24 l 186 24 l 186 33 z m 40 167 l 51 167 b 74 138 67 167 74 157 b 51 111 74 119 67 111 l 40 111 z m 767 644 l 813 644 l 789 803 z "},"%":{"ha":1656,"x_min":0,"x_max":0,"o":"m 1576 131 b 1553 176 1576 146 1568 161 b 1517 226 1529 200 1517 217 b 1531 247 1517 240 1521 247 b 1549 224 1540 247 1547 239 l 1575 229 b 1531 272 1574 258 1558 272 b 1488 225 1501 272 1488 257 b 1494 197 1488 215 1490 207 b 1526 165 1504 186 1515 175 b 1549 129 1542 149 1549 136 b 1531 107 1549 115 1543 108 b 1511 136 1519 107 1513 117 l 1496 144 l 1485 135 b 1532 82 1486 100 1503 82 b 1576 131 1563 82 1578 99 z m 1407 83 l 1421 74 l 1435 83 l 1435 242 l 1465 242 l 1465 269 l 1378 269 l 1378 242 l 1407 242 z m 1539 0 l 1563 50 l 1557 50 l 1533 0 z m 1482 1 l 1482 28 l 1500 6 l 1501 6 l 1518 28 l 1518 1 l 1526 1 l 1526 40 l 1519 40 l 1501 17 l 1482 40 l 1475 40 l 1475 1 z m 669 844 l 381 813 l 597 614 l 538 331 l 793 475 l 1046 331 l 986 618 l 1201 813 l 910 846 l 792 1111 z m 1258 269 l 1249 256 l 1258 243 l 1258 83 l 1286 83 l 1286 203 l 1325 83 l 1356 83 l 1356 269 l 1326 269 l 1326 144 l 1290 269 z m 1410 11 b 1419 1 1410 4 1413 1 l 1449 1 b 1458 11 1456 1 1458 4 l 1458 31 b 1449 40 1458 38 1456 40 l 1419 40 b 1410 31 1413 40 1410 38 z m 1386 25 l 1394 26 l 1394 31 b 1385 40 1394 38 1392 40 l 1361 40 b 1351 31 1354 40 1351 38 l 1351 11 b 1361 1 1351 4 1354 1 l 1385 1 b 1394 11 1392 1 1394 4 l 1394 15 l 1386 17 l 1386 8 l 1361 8 l 1361 32 l 1386 32 z m 1189 272 b 1144 228 1160 272 1144 257 l 1144 126 b 1189 82 1144 97 1160 82 b 1233 126 1218 82 1233 97 l 1233 228 b 1189 272 1233 257 1218 272 z m 1322 15 l 1322 3 b 1324 1 1322 1 1322 1 l 1335 1 b 1336 4 1336 3 1336 3 l 1336 13 b 1335 15 1336 14 1336 14 z m 1310 33 l 1310 40 l 1264 40 l 1264 33 l 1282 33 l 1282 1 l 1292 1 l 1292 33 z m 1074 163 l 1111 163 l 1111 190 l 1074 190 l 1074 242 l 1125 242 l 1125 269 l 1046 269 l 1036 256 l 1046 242 l 1046 83 l 1074 83 z m 1204 11 b 1214 1 1204 4 1207 1 l 1243 1 b 1253 11 1250 1 1253 4 l 1253 31 b 1243 40 1253 38 1250 40 l 1214 40 b 1204 31 1207 40 1204 38 z m 1157 1 l 1157 17 l 1182 17 b 1192 24 1189 17 1192 19 l 1192 32 b 1182 40 1192 38 1189 40 l 1147 40 l 1147 1 z m 1007 111 l 958 111 l 958 269 l 944 281 l 931 269 l 931 83 l 1007 83 z m 1124 29 l 1131 31 l 1131 32 b 1121 40 1131 38 1128 40 l 1099 40 b 1089 31 1092 40 1089 38 l 1089 26 b 1099 17 1089 19 1092 17 l 1124 17 l 1124 8 l 1094 8 l 1094 13 l 1088 11 b 1097 1 1088 4 1090 1 l 1122 1 b 1132 11 1129 1 1132 4 l 1132 15 b 1122 25 1132 22 1129 25 l 1097 25 l 1097 33 l 1124 33 z m 1063 29 l 1072 31 b 1063 40 1072 38 1069 40 l 1035 40 b 1025 31 1028 40 1025 38 l 1025 11 b 1035 1 1025 4 1028 1 l 1063 1 b 1072 11 1069 1 1072 4 l 1072 24 l 1047 24 l 1047 17 l 1063 17 l 1063 8 l 1033 8 l 1033 32 l 1063 32 z m 911 83 l 911 111 l 860 111 l 860 163 l 897 163 l 897 190 l 860 190 l 860 242 l 911 242 l 911 269 l 832 269 l 822 256 l 832 242 l 832 83 z m 960 11 b 969 1 960 4 963 1 l 1000 1 b 1010 11 1007 1 1010 4 l 1010 31 b 1000 40 1010 38 1007 40 l 969 40 b 960 31 963 40 960 38 z m 950 1 l 950 8 l 921 8 l 921 40 l 911 40 l 911 1 z m 763 81 b 807 125 792 81 807 96 l 807 190 l 763 190 l 751 175 l 763 163 l 778 163 l 778 126 b 763 110 778 115 772 110 b 746 126 751 110 746 115 l 746 228 b 763 244 746 239 751 244 b 778 228 772 244 778 239 l 778 206 l 807 206 l 807 226 b 763 272 807 257 792 272 b 718 226 733 272 718 257 l 718 125 b 763 81 718 96 733 81 z m 883 1 b 896 8 892 1 896 4 l 896 14 b 889 21 896 18 893 19 b 894 28 893 22 894 24 l 894 32 b 886 40 894 38 892 40 l 851 40 l 851 1 z m 822 15 b 821 13 821 14 821 14 l 821 4 b 824 1 821 3 822 1 l 835 1 l 835 15 z m 606 269 l 596 256 l 606 243 l 606 83 l 633 83 l 633 154 l 651 154 l 668 83 l 699 83 l 678 165 b 693 199 688 174 693 185 l 693 225 b 649 269 693 254 678 269 z m 811 1 l 811 8 l 782 8 l 782 40 l 772 40 l 772 1 z m 758 1 l 758 8 l 726 8 l 726 18 l 744 18 l 744 25 l 726 25 l 726 33 l 758 33 l 758 40 l 717 40 l 717 1 z m 546 126 l 551 83 l 567 75 l 582 83 l 550 269 l 511 269 l 481 83 l 494 75 l 510 83 l 517 126 z m 692 29 l 701 31 b 692 40 701 38 699 40 l 664 40 b 654 31 657 40 654 38 l 654 11 b 664 1 654 4 657 1 l 692 1 b 701 11 699 1 701 4 l 701 24 l 676 24 l 676 17 l 692 17 l 692 8 l 663 8 l 663 32 l 692 32 z m 606 1 l 606 15 l 614 15 l 631 1 l 643 1 l 625 15 l 631 15 b 639 24 636 15 639 18 l 639 32 b 631 40 639 38 636 40 l 596 40 l 596 1 z m 542 1 l 546 10 l 571 10 l 576 1 l 586 1 l 564 40 l 554 40 l 532 1 z m 376 83 l 404 83 l 404 161 l 442 269 l 411 269 l 390 203 l 369 269 l 339 269 l 376 161 z m 513 1 l 513 19 l 533 40 l 522 40 l 508 25 l 496 40 l 483 40 l 504 18 l 504 1 z m 354 111 l 306 111 l 306 269 l 290 281 l 278 269 l 278 83 l 354 83 z m 489 1 l 489 8 l 458 8 l 458 40 l 449 40 l 449 1 z m 439 1 l 439 8 l 408 8 l 408 40 l 400 40 l 400 1 z m 258 111 l 210 111 l 210 269 l 194 281 l 182 269 l 182 83 l 258 83 z m 382 1 l 382 40 l 374 40 l 374 1 z m 346 1 b 357 8 353 1 357 4 l 357 14 b 350 21 357 18 354 19 b 357 28 354 22 357 24 l 357 32 b 349 40 357 38 354 40 l 314 40 l 314 1 z m 283 0 l 307 50 l 301 50 l 278 0 z m 157 269 l 128 269 l 128 83 l 142 74 l 157 83 z m 258 0 l 282 50 l 276 50 l 253 0 z m 238 40 b 233 39 236 40 235 40 l 233 26 l 247 26 l 247 39 b 244 40 246 40 246 40 z m 233 15 l 233 3 l 235 1 l 247 1 l 247 15 z m 61 83 b 104 136 90 83 104 101 b 81 181 104 160 96 175 b 100 218 93 188 100 200 b 51 269 100 253 83 269 l 10 269 l 0 254 l 10 242 l 10 83 z m 186 1 l 186 17 l 211 17 b 221 24 218 17 221 19 l 221 32 b 211 40 221 38 218 40 l 176 40 l 176 1 z m 165 33 l 165 40 l 119 40 l 119 33 l 138 33 l 138 1 l 146 1 l 146 33 z m 115 33 l 115 40 l 69 40 l 69 33 l 88 33 l 88 1 l 97 1 l 97 33 z m 19 1 l 19 18 l 49 18 l 49 1 l 57 1 l 57 40 l 49 40 l 49 25 l 19 25 l 19 40 l 10 40 l 10 1 z m 868 474 l 835 493 l 821 585 l 758 585 l 743 493 l 713 474 l 681 493 l 749 894 l 832 894 l 899 493 z m 1418 32 l 1450 32 l 1450 8 l 1418 8 z m 1204 126 b 1189 110 1204 115 1199 110 b 1172 126 1178 110 1172 115 l 1172 228 b 1189 244 1172 239 1178 244 b 1204 228 1199 244 1204 239 z m 1213 32 l 1243 32 l 1243 8 l 1213 8 z m 1178 33 b 1182 31 1181 33 1182 32 l 1182 26 b 1178 24 1182 25 1181 24 l 1157 24 l 1157 33 z m 969 32 l 1000 32 l 1000 8 l 969 8 z m 882 33 b 886 31 885 33 886 32 l 886 28 b 882 25 886 26 885 25 l 861 25 l 861 33 z m 882 18 b 886 15 885 18 886 17 l 886 11 b 882 8 886 10 885 8 l 861 8 l 861 18 z m 665 197 b 650 182 665 188 660 182 l 633 182 l 633 240 l 650 240 b 665 225 660 240 665 235 z m 542 154 l 521 154 l 531 226 z m 626 33 b 631 31 629 33 631 32 l 631 25 b 626 22 631 24 629 22 l 606 22 l 606 33 z m 558 33 l 568 17 l 550 17 z m 344 33 b 349 31 347 33 349 32 l 349 28 b 344 25 349 26 347 25 l 322 25 l 322 33 z m 344 18 b 349 15 347 18 349 17 l 349 11 b 344 8 349 10 347 8 l 322 8 l 322 18 z m 40 242 l 51 242 b 71 218 64 242 71 233 b 51 193 71 201 64 193 l 40 193 z m 207 33 b 211 31 210 33 211 32 l 211 26 b 207 24 211 25 210 24 l 186 24 l 186 33 z m 40 167 l 51 167 b 74 138 67 167 74 157 b 51 111 74 119 67 111 l 40 111 z m 767 644 l 813 644 l 789 803 z "},"&":{"ha":1656,"x_min":0,"x_max":0,"o":"m 1576 131 b 1553 176 1576 146 1568 161 b 1517 226 1529 200 1517 217 b 1531 247 1517 240 1521 247 b 1549 224 1540 247 1547 239 l 1575 229 b 1531 272 1574 258 1558 272 b 1488 225 1501 272 1488 257 b 1494 197 1488 215 1490 207 b 1526 165 1504 186 1515 175 b 1549 129 1542 149 1549 136 b 1531 107 1549 115 1543 108 b 1511 136 1519 107 1513 117 l 1496 144 l 1485 135 b 1532 82 1486 100 1503 82 b 1576 131 1563 82 1578 99 z m 1407 83 l 1421 74 l 1435 83 l 1435 242 l 1465 242 l 1465 269 l 1378 269 l 1378 242 l 1407 242 z m 1539 0 l 1563 50 l 1557 50 l 1533 0 z m 1482 1 l 1482 28 l 1500 6 l 1501 6 l 1518 28 l 1518 1 l 1526 1 l 1526 40 l 1519 40 l 1501 17 l 1482 40 l 1475 40 l 1475 1 z m 669 844 l 381 813 l 597 614 l 538 331 l 793 475 l 1046 331 l 986 618 l 1201 813 l 910 846 l 792 1111 z m 1258 269 l 1249 256 l 1258 243 l 1258 83 l 1286 83 l 1286 203 l 1325 83 l 1356 83 l 1356 269 l 1326 269 l 1326 144 l 1290 269 z m 1410 11 b 1419 1 1410 4 1413 1 l 1449 1 b 1458 11 1456 1 1458 4 l 1458 31 b 1449 40 1458 38 1456 40 l 1419 40 b 1410 31 1413 40 1410 38 z m 1386 25 l 1394 26 l 1394 31 b 1385 40 1394 38 1392 40 l 1361 40 b 1351 31 1354 40 1351 38 l 1351 11 b 1361 1 1351 4 1354 1 l 1385 1 b 1394 11 1392 1 1394 4 l 1394 15 l 1386 17 l 1386 8 l 1361 8 l 1361 32 l 1386 32 z m 1189 272 b 1144 228 1160 272 1144 257 l 1144 126 b 1189 82 1144 97 1160 82 b 1233 126 1218 82 1233 97 l 1233 228 b 1189 272 1233 257 1218 272 z m 1322 15 l 1322 3 b 1324 1 1322 1 1322 1 l 1335 1 b 1336 4 1336 3 1336 3 l 1336 13 b 1335 15 1336 14 1336 14 z m 1310 33 l 1310 40 l 1264 40 l 1264 33 l 1282 33 l 1282 1 l 1292 1 l 1292 33 z m 1074 163 l 1111 163 l 1111 190 l 1074 190 l 1074 242 l 1125 242 l 1125 269 l 1046 269 l 1036 256 l 1046 242 l 1046 83 l 1074 83 z m 1204 11 b 1214 1 1204 4 1207 1 l 1243 1 b 1253 11 1250 1 1253 4 l 1253 31 b 1243 40 1253 38 1250 40 l 1214 40 b 1204 31 1207 40 1204 38 z m 1157 1 l 1157 17 l 1182 17 b 1192 24 1189 17 1192 19 l 1192 32 b 1182 40 1192 38 1189 40 l 1147 40 l 1147 1 z m 1007 111 l 958 111 l 958 269 l 944 281 l 931 269 l 931 83 l 1007 83 z m 1124 29 l 1131 31 l 1131 32 b 1121 40 1131 38 1128 40 l 1099 40 b 1089 31 1092 40 1089 38 l 1089 26 b 1099 17 1089 19 1092 17 l 1124 17 l 1124 8 l 1094 8 l 1094 13 l 1088 11 b 1097 1 1088 4 1090 1 l 1122 1 b 1132 11 1129 1 1132 4 l 1132 15 b 1122 25 1132 22 1129 25 l 1097 25 l 1097 33 l 1124 33 z m 1063 29 l 1072 31 b 1063 40 1072 38 1069 40 l 1035 40 b 1025 31 1028 40 1025 38 l 1025 11 b 1035 1 1025 4 1028 1 l 1063 1 b 1072 11 1069 1 1072 4 l 1072 24 l 1047 24 l 1047 17 l 1063 17 l 1063 8 l 1033 8 l 1033 32 l 1063 32 z m 911 83 l 911 111 l 860 111 l 860 163 l 897 163 l 897 190 l 860 190 l 860 242 l 911 242 l 911 269 l 832 269 l 822 256 l 832 242 l 832 83 z m 960 11 b 969 1 960 4 963 1 l 1000 1 b 1010 11 1007 1 1010 4 l 1010 31 b 1000 40 1010 38 1007 40 l 969 40 b 960 31 963 40 960 38 z m 950 1 l 950 8 l 921 8 l 921 40 l 911 40 l 911 1 z m 763 81 b 807 125 792 81 807 96 l 807 190 l 763 190 l 751 175 l 763 163 l 778 163 l 778 126 b 763 110 778 115 772 110 b 746 126 751 110 746 115 l 746 228 b 763 244 746 239 751 244 b 778 228 772 244 778 239 l 778 206 l 807 206 l 807 226 b 763 272 807 257 792 272 b 718 226 733 272 718 257 l 718 125 b 763 81 718 96 733 81 z m 883 1 b 896 8 892 1 896 4 l 896 14 b 889 21 896 18 893 19 b 894 28 893 22 894 24 l 894 32 b 886 40 894 38 892 40 l 851 40 l 851 1 z m 822 15 b 821 13 821 14 821 14 l 821 4 b 824 1 821 3 822 1 l 835 1 l 835 15 z m 606 269 l 596 256 l 606 243 l 606 83 l 633 83 l 633 154 l 651 154 l 668 83 l 699 83 l 678 165 b 693 199 688 174 693 185 l 693 225 b 649 269 693 254 678 269 z m 811 1 l 811 8 l 782 8 l 782 40 l 772 40 l 772 1 z m 758 1 l 758 8 l 726 8 l 726 18 l 744 18 l 744 25 l 726 25 l 726 33 l 758 33 l 758 40 l 717 40 l 717 1 z m 546 126 l 551 83 l 567 75 l 582 83 l 550 269 l 511 269 l 481 83 l 494 75 l 510 83 l 517 126 z m 692 29 l 701 31 b 692 40 701 38 699 40 l 664 40 b 654 31 657 40 654 38 l 654 11 b 664 1 654 4 657 1 l 692 1 b 701 11 699 1 701 4 l 701 24 l 676 24 l 676 17 l 692 17 l 692 8 l 663 8 l 663 32 l 692 32 z m 606 1 l 606 15 l 614 15 l 631 1 l 643 1 l 625 15 l 631 15 b 639 24 636 15 639 18 l 639 32 b 631 40 639 38 636 40 l 596 40 l 596 1 z m 542 1 l 546 10 l 571 10 l 576 1 l 586 1 l 564 40 l 554 40 l 532 1 z m 376 83 l 404 83 l 404 161 l 442 269 l 411 269 l 390 203 l 369 269 l 339 269 l 376 161 z m 513 1 l 513 19 l 533 40 l 522 40 l 508 25 l 496 40 l 483 40 l 504 18 l 504 1 z m 354 111 l 306 111 l 306 269 l 290 281 l 278 269 l 278 83 l 354 83 z m 489 1 l 489 8 l 458 8 l 458 40 l 449 40 l 449 1 z m 439 1 l 439 8 l 408 8 l 408 40 l 400 40 l 400 1 z m 258 111 l 210 111 l 210 269 l 194 281 l 182 269 l 182 83 l 258 83 z m 382 1 l 382 40 l 374 40 l 374 1 z m 346 1 b 357 8 353 1 357 4 l 357 14 b 350 21 357 18 354 19 b 357 28 354 22 357 24 l 357 32 b 349 40 357 38 354 40 l 314 40 l 314 1 z m 283 0 l 307 50 l 301 50 l 278 0 z m 157 269 l 128 269 l 128 83 l 142 74 l 157 83 z m 258 0 l 282 50 l 276 50 l 253 0 z m 238 40 b 233 39 236 40 235 40 l 233 26 l 247 26 l 247 39 b 244 40 246 40 246 40 z m 233 15 l 233 3 l 235 1 l 247 1 l 247 15 z m 61 83 b 104 136 90 83 104 101 b 81 181 104 160 96 175 b 100 218 93 188 100 200 b 51 269 100 253 83 269 l 10 269 l 0 254 l 10 242 l 10 83 z m 186 1 l 186 17 l 211 17 b 221 24 218 17 221 19 l 221 32 b 211 40 221 38 218 40 l 176 40 l 176 1 z m 165 33 l 165 40 l 119 40 l 119 33 l 138 33 l 138 1 l 146 1 l 146 33 z m 115 33 l 115 40 l 69 40 l 69 33 l 88 33 l 88 1 l 97 1 l 97 33 z m 19 1 l 19 18 l 49 18 l 49 1 l 57 1 l 57 40 l 49 40 l 49 25 l 19 25 l 19 40 l 10 40 l 10 1 z m 868 474 l 835 493 l 821 585 l 758 585 l 743 493 l 713 474 l 681 493 l 749 894 l 832 894 l 899 493 z m 1418 32 l 1450 32 l 1450 8 l 1418 8 z m 1204 126 b 1189 110 1204 115 1199 110 b 1172 126 1178 110 1172 115 l 1172 228 b 1189 244 1172 239 1178 244 b 1204 228 1199 244 1204 239 z m 1213 32 l 1243 32 l 1243 8 l 1213 8 z m 1178 33 b 1182 31 1181 33 1182 32 l 1182 26 b 1178 24 1182 25 1181 24 l 1157 24 l 1157 33 z m 969 32 l 1000 32 l 1000 8 l 969 8 z m 882 33 b 886 31 885 33 886 32 l 886 28 b 882 25 886 26 885 25 l 861 25 l 861 33 z m 882 18 b 886 15 885 18 886 17 l 886 11 b 882 8 886 10 885 8 l 861 8 l 861 18 z m 665 197 b 650 182 665 188 660 182 l 633 182 l 633 240 l 650 240 b 665 225 660 240 665 235 z m 542 154 l 521 154 l 531 226 z m 626 33 b 631 31 629 33 631 32 l 631 25 b 626 22 631 24 629 22 l 606 22 l 606 33 z m 558 33 l 568 17 l 550 17 z m 344 33 b 349 31 347 33 349 32 l 349 28 b 344 25 349 26 347 25 l 322 25 l 322 33 z m 344 18 b 349 15 347 18 349 17 l 349 11 b 344 8 349 10 347 8 l 322 8 l 322 18 z m 40 242 l 51 242 b 71 218 64 242 71 233 b 51 193 71 201 64 193 l 40 193 z m 207 33 b 211 31 210 33 211 32 l 211 26 b 207 24 211 25 210 24 l 186 24 l 186 33 z m 40 167 l 51 167 b 74 138 67 167 74 157 b 51 111 74 119 67 111 l 40 111 z m 767 644 l 813 644 l 789 803 z "},"'":{"ha":1656,"x_min":0,"x_max":0,"o":"m 1576 131 b 1553 176 1576 146 1568 161 b 1517 226 1529 200 1517 217 b 1531 247 1517 240 1521 247 b 1549 224 1540 247 1547 239 l 1575 229 b 1531 272 1574 258 1558 272 b 1488 225 1501 272 1488 257 b 1494 197 1488 215 1490 207 b 1526 165 1504 186 1515 175 b 1549 129 1542 149 1549 136 b 1531 107 1549 115 1543 108 b 1511 136 1519 107 1513 117 l 1496 144 l 1485 135 b 1532 82 1486 100 1503 82 b 1576 131 1563 82 1578 99 z m 1407 83 l 1421 74 l 1435 83 l 1435 242 l 1465 242 l 1465 269 l 1378 269 l 1378 242 l 1407 242 z m 1539 0 l 1563 50 l 1557 50 l 1533 0 z m 1482 1 l 1482 28 l 1500 6 l 1501 6 l 1518 28 l 1518 1 l 1526 1 l 1526 40 l 1519 40 l 1501 17 l 1482 40 l 1475 40 l 1475 1 z m 669 844 l 381 813 l 597 614 l 538 331 l 793 475 l 1046 331 l 986 618 l 1201 813 l 910 846 l 792 1111 z m 1258 269 l 1249 256 l 1258 243 l 1258 83 l 1286 83 l 1286 203 l 1325 83 l 1356 83 l 1356 269 l 1326 269 l 1326 144 l 1290 269 z m 1410 11 b 1419 1 1410 4 1413 1 l 1449 1 b 1458 11 1456 1 1458 4 l 1458 31 b 1449 40 1458 38 1456 40 l 1419 40 b 1410 31 1413 40 1410 38 z m 1386 25 l 1394 26 l 1394 31 b 1385 40 1394 38 1392 40 l 1361 40 b 1351 31 1354 40 1351 38 l 1351 11 b 1361 1 1351 4 1354 1 l 1385 1 b 1394 11 1392 1 1394 4 l 1394 15 l 1386 17 l 1386 8 l 1361 8 l 1361 32 l 1386 32 z m 1189 272 b 1144 228 1160 272 1144 257 l 1144 126 b 1189 82 1144 97 1160 82 b 1233 126 1218 82 1233 97 l 1233 228 b 1189 272 1233 257 1218 272 z m 1322 15 l 1322 3 b 1324 1 1322 1 1322 1 l 1335 1 b 1336 4 1336 3 1336 3 l 1336 13 b 1335 15 1336 14 1336 14 z m 1310 33 l 1310 40 l 1264 40 l 1264 33 l 1282 33 l 1282 1 l 1292 1 l 1292 33 z m 1074 163 l 1111 163 l 1111 190 l 1074 190 l 1074 242 l 1125 242 l 1125 269 l 1046 269 l 1036 256 l 1046 242 l 1046 83 l 1074 83 z m 1204 11 b 1214 1 1204 4 1207 1 l 1243 1 b 1253 11 1250 1 1253 4 l 1253 31 b 1243 40 1253 38 1250 40 l 1214 40 b 1204 31 1207 40 1204 38 z m 1157 1 l 1157 17 l 1182 17 b 1192 24 1189 17 1192 19 l 1192 32 b 1182 40 1192 38 1189 40 l 1147 40 l 1147 1 z m 1007 111 l 958 111 l 958 269 l 944 281 l 931 269 l 931 83 l 1007 83 z m 1124 29 l 1131 31 l 1131 32 b 1121 40 1131 38 1128 40 l 1099 40 b 1089 31 1092 40 1089 38 l 1089 26 b 1099 17 1089 19 1092 17 l 1124 17 l 1124 8 l 1094 8 l 1094 13 l 1088 11 b 1097 1 1088 4 1090 1 l 1122 1 b 1132 11 1129 1 1132 4 l 1132 15 b 1122 25 1132 22 1129 25 l 1097 25 l 1097 33 l 1124 33 z m 1063 29 l 1072 31 b 1063 40 1072 38 1069 40 l 1035 40 b 1025 31 1028 40 1025 38 l 1025 11 b 1035 1 1025 4 1028 1 l 1063 1 b 1072 11 1069 1 1072 4 l 1072 24 l 1047 24 l 1047 17 l 1063 17 l 1063 8 l 1033 8 l 1033 32 l 1063 32 z m 911 83 l 911 111 l 860 111 l 860 163 l 897 163 l 897 190 l 860 190 l 860 242 l 911 242 l 911 269 l 832 269 l 822 256 l 832 242 l 832 83 z m 960 11 b 969 1 960 4 963 1 l 1000 1 b 1010 11 1007 1 1010 4 l 1010 31 b 1000 40 1010 38 1007 40 l 969 40 b 960 31 963 40 960 38 z m 950 1 l 950 8 l 921 8 l 921 40 l 911 40 l 911 1 z m 763 81 b 807 125 792 81 807 96 l 807 190 l 763 190 l 751 175 l 763 163 l 778 163 l 778 126 b 763 110 778 115 772 110 b 746 126 751 110 746 115 l 746 228 b 763 244 746 239 751 244 b 778 228 772 244 778 239 l 778 206 l 807 206 l 807 226 b 763 272 807 257 792 272 b 718 226 733 272 718 257 l 718 125 b 763 81 718 96 733 81 z m 883 1 b 896 8 892 1 896 4 l 896 14 b 889 21 896 18 893 19 b 894 28 893 22 894 24 l 894 32 b 886 40 894 38 892 40 l 851 40 l 851 1 z m 822 15 b 821 13 821 14 821 14 l 821 4 b 824 1 821 3 822 1 l 835 1 l 835 15 z m 606 269 l 596 256 l 606 243 l 606 83 l 633 83 l 633 154 l 651 154 l 668 83 l 699 83 l 678 165 b 693 199 688 174 693 185 l 693 225 b 649 269 693 254 678 269 z m 811 1 l 811 8 l 782 8 l 782 40 l 772 40 l 772 1 z m 758 1 l 758 8 l 726 8 l 726 18 l 744 18 l 744 25 l 726 25 l 726 33 l 758 33 l 758 40 l 717 40 l 717 1 z m 546 126 l 551 83 l 567 75 l 582 83 l 550 269 l 511 269 l 481 83 l 494 75 l 510 83 l 517 126 z m 692 29 l 701 31 b 692 40 701 38 699 40 l 664 40 b 654 31 657 40 654 38 l 654 11 b 664 1 654 4 657 1 l 692 1 b 701 11 699 1 701 4 l 701 24 l 676 24 l 676 17 l 692 17 l 692 8 l 663 8 l 663 32 l 692 32 z m 606 1 l 606 15 l 614 15 l 631 1 l 643 1 l 625 15 l 631 15 b 639 24 636 15 639 18 l 639 32 b 631 40 639 38 636 40 l 596 40 l 596 1 z m 542 1 l 546 10 l 571 10 l 576 1 l 586 1 l 564 40 l 554 40 l 532 1 z m 376 83 l 404 83 l 404 161 l 442 269 l 411 269 l 390 203 l 369 269 l 339 269 l 376 161 z m 513 1 l 513 19 l 533 40 l 522 40 l 508 25 l 496 40 l 483 40 l 504 18 l 504 1 z m 354 111 l 306 111 l 306 269 l 290 281 l 278 269 l 278 83 l 354 83 z m 489 1 l 489 8 l 458 8 l 458 40 l 449 40 l 449 1 z m 439 1 l 439 8 l 408 8 l 408 40 l 400 40 l 400 1 z m 258 111 l 210 111 l 210 269 l 194 281 l 182 269 l 182 83 l 258 83 z m 382 1 l 382 40 l 374 40 l 374 1 z m 346 1 b 357 8 353 1 357 4 l 357 14 b 350 21 357 18 354 19 b 357 28 354 22 357 24 l 357 32 b 349 40 357 38 354 40 l 314 40 l 314 1 z m 283 0 l 307 50 l 301 50 l 278 0 z m 157 269 l 128 269 l 128 83 l 142 74 l 157 83 z m 258 0 l 282 50 l 276 50 l 253 0 z m 238 40 b 233 39 236 40 235 40 l 233 26 l 247 26 l 247 39 b 244 40 246 40 246 40 z m 233 15 l 233 3 l 235 1 l 247 1 l 247 15 z m 61 83 b 104 136 90 83 104 101 b 81 181 104 160 96 175 b 100 218 93 188 100 200 b 51 269 100 253 83 269 l 10 269 l 0 254 l 10 242 l 10 83 z m 186 1 l 186 17 l 211 17 b 221 24 218 17 221 19 l 221 32 b 211 40 221 38 218 40 l 176 40 l 176 1 z m 165 33 l 165 40 l 119 40 l 119 33 l 138 33 l 138 1 l 146 1 l 146 33 z m 115 33 l 115 40 l 69 40 l 69 33 l 88 33 l 88 1 l 97 1 l 97 33 z m 19 1 l 19 18 l 49 18 l 49 1 l 57 1 l 57 40 l 49 40 l 49 25 l 19 25 l 19 40 l 10 40 l 10 1 z m 868 474 l 835 493 l 821 585 l 758 585 l 743 493 l 713 474 l 681 493 l 749 894 l 832 894 l 899 493 z m 1418 32 l 1450 32 l 1450 8 l 1418 8 z m 1204 126 b 1189 110 1204 115 1199 110 b 1172 126 1178 110 1172 115 l 1172 228 b 1189 244 1172 239 1178 244 b 1204 228 1199 244 1204 239 z m 1213 32 l 1243 32 l 1243 8 l 1213 8 z m 1178 33 b 1182 31 1181 33 1182 32 l 1182 26 b 1178 24 1182 25 1181 24 l 1157 24 l 1157 33 z m 969 32 l 1000 32 l 1000 8 l 969 8 z m 882 33 b 886 31 885 33 886 32 l 886 28 b 882 25 886 26 885 25 l 861 25 l 861 33 z m 882 18 b 886 15 885 18 886 17 l 886 11 b 882 8 886 10 885 8 l 861 8 l 861 18 z m 665 197 b 650 182 665 188 660 182 l 633 182 l 633 240 l 650 240 b 665 225 660 240 665 235 z m 542 154 l 521 154 l 531 226 z m 626 33 b 631 31 629 33 631 32 l 631 25 b 626 22 631 24 629 22 l 606 22 l 606 33 z m 558 33 l 568 17 l 550 17 z m 344 33 b 349 31 347 33 349 32 l 349 28 b 344 25 349 26 347 25 l 322 25 l 322 33 z m 344 18 b 349 15 347 18 349 17 l 349 11 b 344 8 349 10 347 8 l 322 8 l 322 18 z m 40 242 l 51 242 b 71 218 64 242 71 233 b 51 193 71 201 64 193 l 40 193 z m 207 33 b 211 31 210 33 211 32 l 211 26 b 207 24 211 25 210 24 l 186 24 l 186 33 z m 40 167 l 51 167 b 74 138 67 167 74 157 b 51 111 74 119 67 111 l 40 111 z m 767 644 l 813 644 l 789 803 z "},"(":{"ha":1656,"x_min":0,"x_max":0,"o":"m 1576 131 b 1553 176 1576 146 1568 161 b 1517 226 1529 200 1517 217 b 1531 247 1517 240 1521 247 b 1549 224 1540 247 1547 239 l 1575 229 b 1531 272 1574 258 1558 272 b 1488 225 1501 272 1488 257 b 1494 197 1488 215 1490 207 b 1526 165 1504 186 1515 175 b 1549 129 1542 149 1549 136 b 1531 107 1549 115 1543 108 b 1511 136 1519 107 1513 117 l 1496 144 l 1485 135 b 1532 82 1486 100 1503 82 b 1576 131 1563 82 1578 99 z m 1407 83 l 1421 74 l 1435 83 l 1435 242 l 1465 242 l 1465 269 l 1378 269 l 1378 242 l 1407 242 z m 1539 0 l 1563 50 l 1557 50 l 1533 0 z m 1482 1 l 1482 28 l 1500 6 l 1501 6 l 1518 28 l 1518 1 l 1526 1 l 1526 40 l 1519 40 l 1501 17 l 1482 40 l 1475 40 l 1475 1 z m 669 844 l 381 813 l 597 614 l 538 331 l 793 475 l 1046 331 l 986 618 l 1201 813 l 910 846 l 792 1111 z m 1258 269 l 1249 256 l 1258 243 l 1258 83 l 1286 83 l 1286 203 l 1325 83 l 1356 83 l 1356 269 l 1326 269 l 1326 144 l 1290 269 z m 1410 11 b 1419 1 1410 4 1413 1 l 1449 1 b 1458 11 1456 1 1458 4 l 1458 31 b 1449 40 1458 38 1456 40 l 1419 40 b 1410 31 1413 40 1410 38 z m 1386 25 l 1394 26 l 1394 31 b 1385 40 1394 38 1392 40 l 1361 40 b 1351 31 1354 40 1351 38 l 1351 11 b 1361 1 1351 4 1354 1 l 1385 1 b 1394 11 1392 1 1394 4 l 1394 15 l 1386 17 l 1386 8 l 1361 8 l 1361 32 l 1386 32 z m 1189 272 b 1144 228 1160 272 1144 257 l 1144 126 b 1189 82 1144 97 1160 82 b 1233 126 1218 82 1233 97 l 1233 228 b 1189 272 1233 257 1218 272 z m 1322 15 l 1322 3 b 1324 1 1322 1 1322 1 l 1335 1 b 1336 4 1336 3 1336 3 l 1336 13 b 1335 15 1336 14 1336 14 z m 1310 33 l 1310 40 l 1264 40 l 1264 33 l 1282 33 l 1282 1 l 1292 1 l 1292 33 z m 1074 163 l 1111 163 l 1111 190 l 1074 190 l 1074 242 l 1125 242 l 1125 269 l 1046 269 l 1036 256 l 1046 242 l 1046 83 l 1074 83 z m 1204 11 b 1214 1 1204 4 1207 1 l 1243 1 b 1253 11 1250 1 1253 4 l 1253 31 b 1243 40 1253 38 1250 40 l 1214 40 b 1204 31 1207 40 1204 38 z m 1157 1 l 1157 17 l 1182 17 b 1192 24 1189 17 1192 19 l 1192 32 b 1182 40 1192 38 1189 40 l 1147 40 l 1147 1 z m 1007 111 l 958 111 l 958 269 l 944 281 l 931 269 l 931 83 l 1007 83 z m 1124 29 l 1131 31 l 1131 32 b 1121 40 1131 38 1128 40 l 1099 40 b 1089 31 1092 40 1089 38 l 1089 26 b 1099 17 1089 19 1092 17 l 1124 17 l 1124 8 l 1094 8 l 1094 13 l 1088 11 b 1097 1 1088 4 1090 1 l 1122 1 b 1132 11 1129 1 1132 4 l 1132 15 b 1122 25 1132 22 1129 25 l 1097 25 l 1097 33 l 1124 33 z m 1063 29 l 1072 31 b 1063 40 1072 38 1069 40 l 1035 40 b 1025 31 1028 40 1025 38 l 1025 11 b 1035 1 1025 4 1028 1 l 1063 1 b 1072 11 1069 1 1072 4 l 1072 24 l 1047 24 l 1047 17 l 1063 17 l 1063 8 l 1033 8 l 1033 32 l 1063 32 z m 911 83 l 911 111 l 860 111 l 860 163 l 897 163 l 897 190 l 860 190 l 860 242 l 911 242 l 911 269 l 832 269 l 822 256 l 832 242 l 832 83 z m 960 11 b 969 1 960 4 963 1 l 1000 1 b 1010 11 1007 1 1010 4 l 1010 31 b 1000 40 1010 38 1007 40 l 969 40 b 960 31 963 40 960 38 z m 950 1 l 950 8 l 921 8 l 921 40 l 911 40 l 911 1 z m 763 81 b 807 125 792 81 807 96 l 807 190 l 763 190 l 751 175 l 763 163 l 778 163 l 778 126 b 763 110 778 115 772 110 b 746 126 751 110 746 115 l 746 228 b 763 244 746 239 751 244 b 778 228 772 244 778 239 l 778 206 l 807 206 l 807 226 b 763 272 807 257 792 272 b 718 226 733 272 718 257 l 718 125 b 763 81 718 96 733 81 z m 883 1 b 896 8 892 1 896 4 l 896 14 b 889 21 896 18 893 19 b 894 28 893 22 894 24 l 894 32 b 886 40 894 38 892 40 l 851 40 l 851 1 z m 822 15 b 821 13 821 14 821 14 l 821 4 b 824 1 821 3 822 1 l 835 1 l 835 15 z m 606 269 l 596 256 l 606 243 l 606 83 l 633 83 l 633 154 l 651 154 l 668 83 l 699 83 l 678 165 b 693 199 688 174 693 185 l 693 225 b 649 269 693 254 678 269 z m 811 1 l 811 8 l 782 8 l 782 40 l 772 40 l 772 1 z m 758 1 l 758 8 l 726 8 l 726 18 l 744 18 l 744 25 l 726 25 l 726 33 l 758 33 l 758 40 l 717 40 l 717 1 z m 546 126 l 551 83 l 567 75 l 582 83 l 550 269 l 511 269 l 481 83 l 494 75 l 510 83 l 517 126 z m 692 29 l 701 31 b 692 40 701 38 699 40 l 664 40 b 654 31 657 40 654 38 l 654 11 b 664 1 654 4 657 1 l 692 1 b 701 11 699 1 701 4 l 701 24 l 676 24 l 676 17 l 692 17 l 692 8 l 663 8 l 663 32 l 692 32 z m 606 1 l 606 15 l 614 15 l 631 1 l 643 1 l 625 15 l 631 15 b 639 24 636 15 639 18 l 639 32 b 631 40 639 38 636 40 l 596 40 l 596 1 z m 542 1 l 546 10 l 571 10 l 576 1 l 586 1 l 564 40 l 554 40 l 532 1 z m 376 83 l 404 83 l 404 161 l 442 269 l 411 269 l 390 203 l 369 269 l 339 269 l 376 161 z m 513 1 l 513 19 l 533 40 l 522 40 l 508 25 l 496 40 l 483 40 l 504 18 l 504 1 z m 354 111 l 306 111 l 306 269 l 290 281 l 278 269 l 278 83 l 354 83 z m 489 1 l 489 8 l 458 8 l 458 40 l 449 40 l 449 1 z m 439 1 l 439 8 l 408 8 l 408 40 l 400 40 l 400 1 z m 258 111 l 210 111 l 210 269 l 194 281 l 182 269 l 182 83 l 258 83 z m 382 1 l 382 40 l 374 40 l 374 1 z m 346 1 b 357 8 353 1 357 4 l 357 14 b 350 21 357 18 354 19 b 357 28 354 22 357 24 l 357 32 b 349 40 357 38 354 40 l 314 40 l 314 1 z m 283 0 l 307 50 l 301 50 l 278 0 z m 157 269 l 128 269 l 128 83 l 142 74 l 157 83 z m 258 0 l 282 50 l 276 50 l 253 0 z m 238 40 b 233 39 236 40 235 40 l 233 26 l 247 26 l 247 39 b 244 40 246 40 246 40 z m 233 15 l 233 3 l 235 1 l 247 1 l 247 15 z m 61 83 b 104 136 90 83 104 101 b 81 181 104 160 96 175 b 100 218 93 188 100 200 b 51 269 100 253 83 269 l 10 269 l 0 254 l 10 242 l 10 83 z m 186 1 l 186 17 l 211 17 b 221 24 218 17 221 19 l 221 32 b 211 40 221 38 218 40 l 176 40 l 176 1 z m 165 33 l 165 40 l 119 40 l 119 33 l 138 33 l 138 1 l 146 1 l 146 33 z m 115 33 l 115 40 l 69 40 l 69 33 l 88 33 l 88 1 l 97 1 l 97 33 z m 19 1 l 19 18 l 49 18 l 49 1 l 57 1 l 57 40 l 49 40 l 49 25 l 19 25 l 19 40 l 10 40 l 10 1 z m 868 474 l 835 493 l 821 585 l 758 585 l 743 493 l 713 474 l 681 493 l 749 894 l 832 894 l 899 493 z m 1418 32 l 1450 32 l 1450 8 l 1418 8 z m 1204 126 b 1189 110 1204 115 1199 110 b 1172 126 1178 110 1172 115 l 1172 228 b 1189 244 1172 239 1178 244 b 1204 228 1199 244 1204 239 z m 1213 32 l 1243 32 l 1243 8 l 1213 8 z m 1178 33 b 1182 31 1181 33 1182 32 l 1182 26 b 1178 24 1182 25 1181 24 l 1157 24 l 1157 33 z m 969 32 l 1000 32 l 1000 8 l 969 8 z m 882 33 b 886 31 885 33 886 32 l 886 28 b 882 25 886 26 885 25 l 861 25 l 861 33 z m 882 18 b 886 15 885 18 886 17 l 886 11 b 882 8 886 10 885 8 l 861 8 l 861 18 z m 665 197 b 650 182 665 188 660 182 l 633 182 l 633 240 l 650 240 b 665 225 660 240 665 235 z m 542 154 l 521 154 l 531 226 z m 626 33 b 631 31 629 33 631 32 l 631 25 b 626 22 631 24 629 22 l 606 22 l 606 33 z m 558 33 l 568 17 l 550 17 z m 344 33 b 349 31 347 33 349 32 l 349 28 b 344 25 349 26 347 25 l 322 25 l 322 33 z m 344 18 b 349 15 347 18 349 17 l 349 11 b 344 8 349 10 347 8 l 322 8 l 322 18 z m 40 242 l 51 242 b 71 218 64 242 71 233 b 51 193 71 201 64 193 l 40 193 z m 207 33 b 211 31 210 33 211 32 l 211 26 b 207 24 211 25 210 24 l 186 24 l 186 33 z m 40 167 l 51 167 b 74 138 67 167 74 157 b 51 111 74 119 67 111 l 40 111 z m 767 644 l 813 644 l 789 803 z "},")":{"ha":1656,"x_min":0,"x_max":0,"o":"m 1576 131 b 1553 176 1576 146 1568 161 b 1517 226 1529 200 1517 217 b 1531 247 1517 240 1521 247 b 1549 224 1540 247 1547 239 l 1575 229 b 1531 272 1574 258 1558 272 b 1488 225 1501 272 1488 257 b 1494 197 1488 215 1490 207 b 1526 165 1504 186 1515 175 b 1549 129 1542 149 1549 136 b 1531 107 1549 115 1543 108 b 1511 136 1519 107 1513 117 l 1496 144 l 1485 135 b 1532 82 1486 100 1503 82 b 1576 131 1563 82 1578 99 z m 1407 83 l 1421 74 l 1435 83 l 1435 242 l 1465 242 l 1465 269 l 1378 269 l 1378 242 l 1407 242 z m 1539 0 l 1563 50 l 1557 50 l 1533 0 z m 1482 1 l 1482 28 l 1500 6 l 1501 6 l 1518 28 l 1518 1 l 1526 1 l 1526 40 l 1519 40 l 1501 17 l 1482 40 l 1475 40 l 1475 1 z m 669 844 l 381 813 l 597 614 l 538 331 l 793 475 l 1046 331 l 986 618 l 1201 813 l 910 846 l 792 1111 z m 1258 269 l 1249 256 l 1258 243 l 1258 83 l 1286 83 l 1286 203 l 1325 83 l 1356 83 l 1356 269 l 1326 269 l 1326 144 l 1290 269 z m 1410 11 b 1419 1 1410 4 1413 1 l 1449 1 b 1458 11 1456 1 1458 4 l 1458 31 b 1449 40 1458 38 1456 40 l 1419 40 b 1410 31 1413 40 1410 38 z m 1386 25 l 1394 26 l 1394 31 b 1385 40 1394 38 1392 40 l 1361 40 b 1351 31 1354 40 1351 38 l 1351 11 b 1361 1 1351 4 1354 1 l 1385 1 b 1394 11 1392 1 1394 4 l 1394 15 l 1386 17 l 1386 8 l 1361 8 l 1361 32 l 1386 32 z m 1189 272 b 1144 228 1160 272 1144 257 l 1144 126 b 1189 82 1144 97 1160 82 b 1233 126 1218 82 1233 97 l 1233 228 b 1189 272 1233 257 1218 272 z m 1322 15 l 1322 3 b 1324 1 1322 1 1322 1 l 1335 1 b 1336 4 1336 3 1336 3 l 1336 13 b 1335 15 1336 14 1336 14 z m 1310 33 l 1310 40 l 1264 40 l 1264 33 l 1282 33 l 1282 1 l 1292 1 l 1292 33 z m 1074 163 l 1111 163 l 1111 190 l 1074 190 l 1074 242 l 1125 242 l 1125 269 l 1046 269 l 1036 256 l 1046 242 l 1046 83 l 1074 83 z m 1204 11 b 1214 1 1204 4 1207 1 l 1243 1 b 1253 11 1250 1 1253 4 l 1253 31 b 1243 40 1253 38 1250 40 l 1214 40 b 1204 31 1207 40 1204 38 z m 1157 1 l 1157 17 l 1182 17 b 1192 24 1189 17 1192 19 l 1192 32 b 1182 40 1192 38 1189 40 l 1147 40 l 1147 1 z m 1007 111 l 958 111 l 958 269 l 944 281 l 931 269 l 931 83 l 1007 83 z m 1124 29 l 1131 31 l 1131 32 b 1121 40 1131 38 1128 40 l 1099 40 b 1089 31 1092 40 1089 38 l 1089 26 b 1099 17 1089 19 1092 17 l 1124 17 l 1124 8 l 1094 8 l 1094 13 l 1088 11 b 1097 1 1088 4 1090 1 l 1122 1 b 1132 11 1129 1 1132 4 l 1132 15 b 1122 25 1132 22 1129 25 l 1097 25 l 1097 33 l 1124 33 z m 1063 29 l 1072 31 b 1063 40 1072 38 1069 40 l 1035 40 b 1025 31 1028 40 1025 38 l 1025 11 b 1035 1 1025 4 1028 1 l 1063 1 b 1072 11 1069 1 1072 4 l 1072 24 l 1047 24 l 1047 17 l 1063 17 l 1063 8 l 1033 8 l 1033 32 l 1063 32 z m 911 83 l 911 111 l 860 111 l 860 163 l 897 163 l 897 190 l 860 190 l 860 242 l 911 242 l 911 269 l 832 269 l 822 256 l 832 242 l 832 83 z m 960 11 b 969 1 960 4 963 1 l 1000 1 b 1010 11 1007 1 1010 4 l 1010 31 b 1000 40 1010 38 1007 40 l 969 40 b 960 31 963 40 960 38 z m 950 1 l 950 8 l 921 8 l 921 40 l 911 40 l 911 1 z m 763 81 b 807 125 792 81 807 96 l 807 190 l 763 190 l 751 175 l 763 163 l 778 163 l 778 126 b 763 110 778 115 772 110 b 746 126 751 110 746 115 l 746 228 b 763 244 746 239 751 244 b 778 228 772 244 778 239 l 778 206 l 807 206 l 807 226 b 763 272 807 257 792 272 b 718 226 733 272 718 257 l 718 125 b 763 81 718 96 733 81 z m 883 1 b 896 8 892 1 896 4 l 896 14 b 889 21 896 18 893 19 b 894 28 893 22 894 24 l 894 32 b 886 40 894 38 892 40 l 851 40 l 851 1 z m 822 15 b 821 13 821 14 821 14 l 821 4 b 824 1 821 3 822 1 l 835 1 l 835 15 z m 606 269 l 596 256 l 606 243 l 606 83 l 633 83 l 633 154 l 651 154 l 668 83 l 699 83 l 678 165 b 693 199 688 174 693 185 l 693 225 b 649 269 693 254 678 269 z m 811 1 l 811 8 l 782 8 l 782 40 l 772 40 l 772 1 z m 758 1 l 758 8 l 726 8 l 726 18 l 744 18 l 744 25 l 726 25 l 726 33 l 758 33 l 758 40 l 717 40 l 717 1 z m 546 126 l 551 83 l 567 75 l 582 83 l 550 269 l 511 269 l 481 83 l 494 75 l 510 83 l 517 126 z m 692 29 l 701 31 b 692 40 701 38 699 40 l 664 40 b 654 31 657 40 654 38 l 654 11 b 664 1 654 4 657 1 l 692 1 b 701 11 699 1 701 4 l 701 24 l 676 24 l 676 17 l 692 17 l 692 8 l 663 8 l 663 32 l 692 32 z m 606 1 l 606 15 l 614 15 l 631 1 l 643 1 l 625 15 l 631 15 b 639 24 636 15 639 18 l 639 32 b 631 40 639 38 636 40 l 596 40 l 596 1 z m 542 1 l 546 10 l 571 10 l 576 1 l 586 1 l 564 40 l 554 40 l 532 1 z m 376 83 l 404 83 l 404 161 l 442 269 l 411 269 l 390 203 l 369 269 l 339 269 l 376 161 z m 513 1 l 513 19 l 533 40 l 522 40 l 508 25 l 496 40 l 483 40 l 504 18 l 504 1 z m 354 111 l 306 111 l 306 269 l 290 281 l 278 269 l 278 83 l 354 83 z m 489 1 l 489 8 l 458 8 l 458 40 l 449 40 l 449 1 z m 439 1 l 439 8 l 408 8 l 408 40 l 400 40 l 400 1 z m 258 111 l 210 111 l 210 269 l 194 281 l 182 269 l 182 83 l 258 83 z m 382 1 l 382 40 l 374 40 l 374 1 z m 346 1 b 357 8 353 1 357 4 l 357 14 b 350 21 357 18 354 19 b 357 28 354 22 357 24 l 357 32 b 349 40 357 38 354 40 l 314 40 l 314 1 z m 283 0 l 307 50 l 301 50 l 278 0 z m 157 269 l 128 269 l 128 83 l 142 74 l 157 83 z m 258 0 l 282 50 l 276 50 l 253 0 z m 238 40 b 233 39 236 40 235 40 l 233 26 l 247 26 l 247 39 b 244 40 246 40 246 40 z m 233 15 l 233 3 l 235 1 l 247 1 l 247 15 z m 61 83 b 104 136 90 83 104 101 b 81 181 104 160 96 175 b 100 218 93 188 100 200 b 51 269 100 253 83 269 l 10 269 l 0 254 l 10 242 l 10 83 z m 186 1 l 186 17 l 211 17 b 221 24 218 17 221 19 l 221 32 b 211 40 221 38 218 40 l 176 40 l 176 1 z m 165 33 l 165 40 l 119 40 l 119 33 l 138 33 l 138 1 l 146 1 l 146 33 z m 115 33 l 115 40 l 69 40 l 69 33 l 88 33 l 88 1 l 97 1 l 97 33 z m 19 1 l 19 18 l 49 18 l 49 1 l 57 1 l 57 40 l 49 40 l 49 25 l 19 25 l 19 40 l 10 40 l 10 1 z m 868 474 l 835 493 l 821 585 l 758 585 l 743 493 l 713 474 l 681 493 l 749 894 l 832 894 l 899 493 z m 1418 32 l 1450 32 l 1450 8 l 1418 8 z m 1204 126 b 1189 110 1204 115 1199 110 b 1172 126 1178 110 1172 115 l 1172 228 b 1189 244 1172 239 1178 244 b 1204 228 1199 244 1204 239 z m 1213 32 l 1243 32 l 1243 8 l 1213 8 z m 1178 33 b 1182 31 1181 33 1182 32 l 1182 26 b 1178 24 1182 25 1181 24 l 1157 24 l 1157 33 z m 969 32 l 1000 32 l 1000 8 l 969 8 z m 882 33 b 886 31 885 33 886 32 l 886 28 b 882 25 886 26 885 25 l 861 25 l 861 33 z m 882 18 b 886 15 885 18 886 17 l 886 11 b 882 8 886 10 885 8 l 861 8 l 861 18 z m 665 197 b 650 182 665 188 660 182 l 633 182 l 633 240 l 650 240 b 665 225 660 240 665 235 z m 542 154 l 521 154 l 531 226 z m 626 33 b 631 31 629 33 631 32 l 631 25 b 626 22 631 24 629 22 l 606 22 l 606 33 z m 558 33 l 568 17 l 550 17 z m 344 33 b 349 31 347 33 349 32 l 349 28 b 344 25 349 26 347 25 l 322 25 l 322 33 z m 344 18 b 349 15 347 18 349 17 l 349 11 b 344 8 349 10 347 8 l 322 8 l 322 18 z m 40 242 l 51 242 b 71 218 64 242 71 233 b 51 193 71 201 64 193 l 40 193 z m 207 33 b 211 31 210 33 211 32 l 211 26 b 207 24 211 25 210 24 l 186 24 l 186 33 z m 40 167 l 51 167 b 74 138 67 167 74 157 b 51 111 74 119 67 111 l 40 111 z m 767 644 l 813 644 l 789 803 z "},"*":{"ha":1656,"x_min":0,"x_max":0,"o":"m 1576 131 b 1553 176 1576 146 1568 161 b 1517 226 1529 200 1517 217 b 1531 247 1517 240 1521 247 b 1549 224 1540 247 1547 239 l 1575 229 b 1531 272 1574 258 1558 272 b 1488 225 1501 272 1488 257 b 1494 197 1488 215 1490 207 b 1526 165 1504 186 1515 175 b 1549 129 1542 149 1549 136 b 1531 107 1549 115 1543 108 b 1511 136 1519 107 1513 117 l 1496 144 l 1485 135 b 1532 82 1486 100 1503 82 b 1576 131 1563 82 1578 99 z m 1407 83 l 1421 74 l 1435 83 l 1435 242 l 1465 242 l 1465 269 l 1378 269 l 1378 242 l 1407 242 z m 1539 0 l 1563 50 l 1557 50 l 1533 0 z m 1482 1 l 1482 28 l 1500 6 l 1501 6 l 1518 28 l 1518 1 l 1526 1 l 1526 40 l 1519 40 l 1501 17 l 1482 40 l 1475 40 l 1475 1 z m 669 844 l 381 813 l 597 614 l 538 331 l 793 475 l 1046 331 l 986 618 l 1201 813 l 910 846 l 792 1111 z m 1258 269 l 1249 256 l 1258 243 l 1258 83 l 1286 83 l 1286 203 l 1325 83 l 1356 83 l 1356 269 l 1326 269 l 1326 144 l 1290 269 z m 1410 11 b 1419 1 1410 4 1413 1 l 1449 1 b 1458 11 1456 1 1458 4 l 1458 31 b 1449 40 1458 38 1456 40 l 1419 40 b 1410 31 1413 40 1410 38 z m 1386 25 l 1394 26 l 1394 31 b 1385 40 1394 38 1392 40 l 1361 40 b 1351 31 1354 40 1351 38 l 1351 11 b 1361 1 1351 4 1354 1 l 1385 1 b 1394 11 1392 1 1394 4 l 1394 15 l 1386 17 l 1386 8 l 1361 8 l 1361 32 l 1386 32 z m 1189 272 b 1144 228 1160 272 1144 257 l 1144 126 b 1189 82 1144 97 1160 82 b 1233 126 1218 82 1233 97 l 1233 228 b 1189 272 1233 257 1218 272 z m 1322 15 l 1322 3 b 1324 1 1322 1 1322 1 l 1335 1 b 1336 4 1336 3 1336 3 l 1336 13 b 1335 15 1336 14 1336 14 z m 1310 33 l 1310 40 l 1264 40 l 1264 33 l 1282 33 l 1282 1 l 1292 1 l 1292 33 z m 1074 163 l 1111 163 l 1111 190 l 1074 190 l 1074 242 l 1125 242 l 1125 269 l 1046 269 l 1036 256 l 1046 242 l 1046 83 l 1074 83 z m 1204 11 b 1214 1 1204 4 1207 1 l 1243 1 b 1253 11 1250 1 1253 4 l 1253 31 b 1243 40 1253 38 1250 40 l 1214 40 b 1204 31 1207 40 1204 38 z m 1157 1 l 1157 17 l 1182 17 b 1192 24 1189 17 1192 19 l 1192 32 b 1182 40 1192 38 1189 40 l 1147 40 l 1147 1 z m 1007 111 l 958 111 l 958 269 l 944 281 l 931 269 l 931 83 l 1007 83 z m 1124 29 l 1131 31 l 1131 32 b 1121 40 1131 38 1128 40 l 1099 40 b 1089 31 1092 40 1089 38 l 1089 26 b 1099 17 1089 19 1092 17 l 1124 17 l 1124 8 l 1094 8 l 1094 13 l 1088 11 b 1097 1 1088 4 1090 1 l 1122 1 b 1132 11 1129 1 1132 4 l 1132 15 b 1122 25 1132 22 1129 25 l 1097 25 l 1097 33 l 1124 33 z m 1063 29 l 1072 31 b 1063 40 1072 38 1069 40 l 1035 40 b 1025 31 1028 40 1025 38 l 1025 11 b 1035 1 1025 4 1028 1 l 1063 1 b 1072 11 1069 1 1072 4 l 1072 24 l 1047 24 l 1047 17 l 1063 17 l 1063 8 l 1033 8 l 1033 32 l 1063 32 z m 911 83 l 911 111 l 860 111 l 860 163 l 897 163 l 897 190 l 860 190 l 860 242 l 911 242 l 911 269 l 832 269 l 822 256 l 832 242 l 832 83 z m 960 11 b 969 1 960 4 963 1 l 1000 1 b 1010 11 1007 1 1010 4 l 1010 31 b 1000 40 1010 38 1007 40 l 969 40 b 960 31 963 40 960 38 z m 950 1 l 950 8 l 921 8 l 921 40 l 911 40 l 911 1 z m 763 81 b 807 125 792 81 807 96 l 807 190 l 763 190 l 751 175 l 763 163 l 778 163 l 778 126 b 763 110 778 115 772 110 b 746 126 751 110 746 115 l 746 228 b 763 244 746 239 751 244 b 778 228 772 244 778 239 l 778 206 l 807 206 l 807 226 b 763 272 807 257 792 272 b 718 226 733 272 718 257 l 718 125 b 763 81 718 96 733 81 z m 883 1 b 896 8 892 1 896 4 l 896 14 b 889 21 896 18 893 19 b 894 28 893 22 894 24 l 894 32 b 886 40 894 38 892 40 l 851 40 l 851 1 z m 822 15 b 821 13 821 14 821 14 l 821 4 b 824 1 821 3 822 1 l 835 1 l 835 15 z m 606 269 l 596 256 l 606 243 l 606 83 l 633 83 l 633 154 l 651 154 l 668 83 l 699 83 l 678 165 b 693 199 688 174 693 185 l 693 225 b 649 269 693 254 678 269 z m 811 1 l 811 8 l 782 8 l 782 40 l 772 40 l 772 1 z m 758 1 l 758 8 l 726 8 l 726 18 l 744 18 l 744 25 l 726 25 l 726 33 l 758 33 l 758 40 l 717 40 l 717 1 z m 546 126 l 551 83 l 567 75 l 582 83 l 550 269 l 511 269 l 481 83 l 494 75 l 510 83 l 517 126 z m 692 29 l 701 31 b 692 40 701 38 699 40 l 664 40 b 654 31 657 40 654 38 l 654 11 b 664 1 654 4 657 1 l 692 1 b 701 11 699 1 701 4 l 701 24 l 676 24 l 676 17 l 692 17 l 692 8 l 663 8 l 663 32 l 692 32 z m 606 1 l 606 15 l 614 15 l 631 1 l 643 1 l 625 15 l 631 15 b 639 24 636 15 639 18 l 639 32 b 631 40 639 38 636 40 l 596 40 l 596 1 z m 542 1 l 546 10 l 571 10 l 576 1 l 586 1 l 564 40 l 554 40 l 532 1 z m 376 83 l 404 83 l 404 161 l 442 269 l 411 269 l 390 203 l 369 269 l 339 269 l 376 161 z m 513 1 l 513 19 l 533 40 l 522 40 l 508 25 l 496 40 l 483 40 l 504 18 l 504 1 z m 354 111 l 306 111 l 306 269 l 290 281 l 278 269 l 278 83 l 354 83 z m 489 1 l 489 8 l 458 8 l 458 40 l 449 40 l 449 1 z m 439 1 l 439 8 l 408 8 l 408 40 l 400 40 l 400 1 z m 258 111 l 210 111 l 210 269 l 194 281 l 182 269 l 182 83 l 258 83 z m 382 1 l 382 40 l 374 40 l 374 1 z m 346 1 b 357 8 353 1 357 4 l 357 14 b 350 21 357 18 354 19 b 357 28 354 22 357 24 l 357 32 b 349 40 357 38 354 40 l 314 40 l 314 1 z m 283 0 l 307 50 l 301 50 l 278 0 z m 157 269 l 128 269 l 128 83 l 142 74 l 157 83 z m 258 0 l 282 50 l 276 50 l 253 0 z m 238 40 b 233 39 236 40 235 40 l 233 26 l 247 26 l 247 39 b 244 40 246 40 246 40 z m 233 15 l 233 3 l 235 1 l 247 1 l 247 15 z m 61 83 b 104 136 90 83 104 101 b 81 181 104 160 96 175 b 100 218 93 188 100 200 b 51 269 100 253 83 269 l 10 269 l 0 254 l 10 242 l 10 83 z m 186 1 l 186 17 l 211 17 b 221 24 218 17 221 19 l 221 32 b 211 40 221 38 218 40 l 176 40 l 176 1 z m 165 33 l 165 40 l 119 40 l 119 33 l 138 33 l 138 1 l 146 1 l 146 33 z m 115 33 l 115 40 l 69 40 l 69 33 l 88 33 l 88 1 l 97 1 l 97 33 z m 19 1 l 19 18 l 49 18 l 49 1 l 57 1 l 57 40 l 49 40 l 49 25 l 19 25 l 19 40 l 10 40 l 10 1 z m 868 474 l 835 493 l 821 585 l 758 585 l 743 493 l 713 474 l 681 493 l 749 894 l 832 894 l 899 493 z m 1418 32 l 1450 32 l 1450 8 l 1418 8 z m 1204 126 b 1189 110 1204 115 1199 110 b 1172 126 1178 110 1172 115 l 1172 228 b 1189 244 1172 239 1178 244 b 1204 228 1199 244 1204 239 z m 1213 32 l 1243 32 l 1243 8 l 1213 8 z m 1178 33 b 1182 31 1181 33 1182 32 l 1182 26 b 1178 24 1182 25 1181 24 l 1157 24 l 1157 33 z m 969 32 l 1000 32 l 1000 8 l 969 8 z m 882 33 b 886 31 885 33 886 32 l 886 28 b 882 25 886 26 885 25 l 861 25 l 861 33 z m 882 18 b 886 15 885 18 886 17 l 886 11 b 882 8 886 10 885 8 l 861 8 l 861 18 z m 665 197 b 650 182 665 188 660 182 l 633 182 l 633 240 l 650 240 b 665 225 660 240 665 235 z m 542 154 l 521 154 l 531 226 z m 626 33 b 631 31 629 33 631 32 l 631 25 b 626 22 631 24 629 22 l 606 22 l 606 33 z m 558 33 l 568 17 l 550 17 z m 344 33 b 349 31 347 33 349 32 l 349 28 b 344 25 349 26 347 25 l 322 25 l 322 33 z m 344 18 b 349 15 347 18 349 17 l 349 11 b 344 8 349 10 347 8 l 322 8 l 322 18 z m 40 242 l 51 242 b 71 218 64 242 71 233 b 51 193 71 201 64 193 l 40 193 z m 207 33 b 211 31 210 33 211 32 l 211 26 b 207 24 211 25 210 24 l 186 24 l 186 33 z m 40 167 l 51 167 b 74 138 67 167 74 157 b 51 111 74 119 67 111 l 40 111 z m 767 644 l 813 644 l 789 803 z "},"+":{"ha":1656,"x_min":0,"x_max":0,"o":"m 1576 131 b 1553 176 1576 146 1568 161 b 1517 226 1529 200 1517 217 b 1531 247 1517 240 1521 247 b 1549 224 1540 247 1547 239 l 1575 229 b 1531 272 1574 258 1558 272 b 1488 225 1501 272 1488 257 b 1494 197 1488 215 1490 207 b 1526 165 1504 186 1515 175 b 1549 129 1542 149 1549 136 b 1531 107 1549 115 1543 108 b 1511 136 1519 107 1513 117 l 1496 144 l 1485 135 b 1532 82 1486 100 1503 82 b 1576 131 1563 82 1578 99 z m 1407 83 l 1421 74 l 1435 83 l 1435 242 l 1465 242 l 1465 269 l 1378 269 l 1378 242 l 1407 242 z m 1539 0 l 1563 50 l 1557 50 l 1533 0 z m 1482 1 l 1482 28 l 1500 6 l 1501 6 l 1518 28 l 1518 1 l 1526 1 l 1526 40 l 1519 40 l 1501 17 l 1482 40 l 1475 40 l 1475 1 z m 669 844 l 381 813 l 597 614 l 538 331 l 793 475 l 1046 331 l 986 618 l 1201 813 l 910 846 l 792 1111 z m 1258 269 l 1249 256 l 1258 243 l 1258 83 l 1286 83 l 1286 203 l 1325 83 l 1356 83 l 1356 269 l 1326 269 l 1326 144 l 1290 269 z m 1410 11 b 1419 1 1410 4 1413 1 l 1449 1 b 1458 11 1456 1 1458 4 l 1458 31 b 1449 40 1458 38 1456 40 l 1419 40 b 1410 31 1413 40 1410 38 z m 1386 25 l 1394 26 l 1394 31 b 1385 40 1394 38 1392 40 l 1361 40 b 1351 31 1354 40 1351 38 l 1351 11 b 1361 1 1351 4 1354 1 l 1385 1 b 1394 11 1392 1 1394 4 l 1394 15 l 1386 17 l 1386 8 l 1361 8 l 1361 32 l 1386 32 z m 1189 272 b 1144 228 1160 272 1144 257 l 1144 126 b 1189 82 1144 97 1160 82 b 1233 126 1218 82 1233 97 l 1233 228 b 1189 272 1233 257 1218 272 z m 1322 15 l 1322 3 b 1324 1 1322 1 1322 1 l 1335 1 b 1336 4 1336 3 1336 3 l 1336 13 b 1335 15 1336 14 1336 14 z m 1310 33 l 1310 40 l 1264 40 l 1264 33 l 1282 33 l 1282 1 l 1292 1 l 1292 33 z m 1074 163 l 1111 163 l 1111 190 l 1074 190 l 1074 242 l 1125 242 l 1125 269 l 1046 269 l 1036 256 l 1046 242 l 1046 83 l 1074 83 z m 1204 11 b 1214 1 1204 4 1207 1 l 1243 1 b 1253 11 1250 1 1253 4 l 1253 31 b 1243 40 1253 38 1250 40 l 1214 40 b 1204 31 1207 40 1204 38 z m 1157 1 l 1157 17 l 1182 17 b 1192 24 1189 17 1192 19 l 1192 32 b 1182 40 1192 38 1189 40 l 1147 40 l 1147 1 z m 1007 111 l 958 111 l 958 269 l 944 281 l 931 269 l 931 83 l 1007 83 z m 1124 29 l 1131 31 l 1131 32 b 1121 40 1131 38 1128 40 l 1099 40 b 1089 31 1092 40 1089 38 l 1089 26 b 1099 17 1089 19 1092 17 l 1124 17 l 1124 8 l 1094 8 l 1094 13 l 1088 11 b 1097 1 1088 4 1090 1 l 1122 1 b 1132 11 1129 1 1132 4 l 1132 15 b 1122 25 1132 22 1129 25 l 1097 25 l 1097 33 l 1124 33 z m 1063 29 l 1072 31 b 1063 40 1072 38 1069 40 l 1035 40 b 1025 31 1028 40 1025 38 l 1025 11 b 1035 1 1025 4 1028 1 l 1063 1 b 1072 11 1069 1 1072 4 l 1072 24 l 1047 24 l 1047 17 l 1063 17 l 1063 8 l 1033 8 l 1033 32 l 1063 32 z m 911 83 l 911 111 l 860 111 l 860 163 l 897 163 l 897 190 l 860 190 l 860 242 l 911 242 l 911 269 l 832 269 l 822 256 l 832 242 l 832 83 z m 960 11 b 969 1 960 4 963 1 l 1000 1 b 1010 11 1007 1 1010 4 l 1010 31 b 1000 40 1010 38 1007 40 l 969 40 b 960 31 963 40 960 38 z m 950 1 l 950 8 l 921 8 l 921 40 l 911 40 l 911 1 z m 763 81 b 807 125 792 81 807 96 l 807 190 l 763 190 l 751 175 l 763 163 l 778 163 l 778 126 b 763 110 778 115 772 110 b 746 126 751 110 746 115 l 746 228 b 763 244 746 239 751 244 b 778 228 772 244 778 239 l 778 206 l 807 206 l 807 226 b 763 272 807 257 792 272 b 718 226 733 272 718 257 l 718 125 b 763 81 718 96 733 81 z m 883 1 b 896 8 892 1 896 4 l 896 14 b 889 21 896 18 893 19 b 894 28 893 22 894 24 l 894 32 b 886 40 894 38 892 40 l 851 40 l 851 1 z m 822 15 b 821 13 821 14 821 14 l 821 4 b 824 1 821 3 822 1 l 835 1 l 835 15 z m 606 269 l 596 256 l 606 243 l 606 83 l 633 83 l 633 154 l 651 154 l 668 83 l 699 83 l 678 165 b 693 199 688 174 693 185 l 693 225 b 649 269 693 254 678 269 z m 811 1 l 811 8 l 782 8 l 782 40 l 772 40 l 772 1 z m 758 1 l 758 8 l 726 8 l 726 18 l 744 18 l 744 25 l 726 25 l 726 33 l 758 33 l 758 40 l 717 40 l 717 1 z m 546 126 l 551 83 l 567 75 l 582 83 l 550 269 l 511 269 l 481 83 l 494 75 l 510 83 l 517 126 z m 692 29 l 701 31 b 692 40 701 38 699 40 l 664 40 b 654 31 657 40 654 38 l 654 11 b 664 1 654 4 657 1 l 692 1 b 701 11 699 1 701 4 l 701 24 l 676 24 l 676 17 l 692 17 l 692 8 l 663 8 l 663 32 l 692 32 z m 606 1 l 606 15 l 614 15 l 631 1 l 643 1 l 625 15 l 631 15 b 639 24 636 15 639 18 l 639 32 b 631 40 639 38 636 40 l 596 40 l 596 1 z m 542 1 l 546 10 l 571 10 l 576 1 l 586 1 l 564 40 l 554 40 l 532 1 z m 376 83 l 404 83 l 404 161 l 442 269 l 411 269 l 390 203 l 369 269 l 339 269 l 376 161 z m 513 1 l 513 19 l 533 40 l 522 40 l 508 25 l 496 40 l 483 40 l 504 18 l 504 1 z m 354 111 l 306 111 l 306 269 l 290 281 l 278 269 l 278 83 l 354 83 z m 489 1 l 489 8 l 458 8 l 458 40 l 449 40 l 449 1 z m 439 1 l 439 8 l 408 8 l 408 40 l 400 40 l 400 1 z m 258 111 l 210 111 l 210 269 l 194 281 l 182 269 l 182 83 l 258 83 z m 382 1 l 382 40 l 374 40 l 374 1 z m 346 1 b 357 8 353 1 357 4 l 357 14 b 350 21 357 18 354 19 b 357 28 354 22 357 24 l 357 32 b 349 40 357 38 354 40 l 314 40 l 314 1 z m 283 0 l 307 50 l 301 50 l 278 0 z m 157 269 l 128 269 l 128 83 l 142 74 l 157 83 z m 258 0 l 282 50 l 276 50 l 253 0 z m 238 40 b 233 39 236 40 235 40 l 233 26 l 247 26 l 247 39 b 244 40 246 40 246 40 z m 233 15 l 233 3 l 235 1 l 247 1 l 247 15 z m 61 83 b 104 136 90 83 104 101 b 81 181 104 160 96 175 b 100 218 93 188 100 200 b 51 269 100 253 83 269 l 10 269 l 0 254 l 10 242 l 10 83 z m 186 1 l 186 17 l 211 17 b 221 24 218 17 221 19 l 221 32 b 211 40 221 38 218 40 l 176 40 l 176 1 z m 165 33 l 165 40 l 119 40 l 119 33 l 138 33 l 138 1 l 146 1 l 146 33 z m 115 33 l 115 40 l 69 40 l 69 33 l 88 33 l 88 1 l 97 1 l 97 33 z m 19 1 l 19 18 l 49 18 l 49 1 l 57 1 l 57 40 l 49 40 l 49 25 l 19 25 l 19 40 l 10 40 l 10 1 z m 868 474 l 835 493 l 821 585 l 758 585 l 743 493 l 713 474 l 681 493 l 749 894 l 832 894 l 899 493 z m 1418 32 l 1450 32 l 1450 8 l 1418 8 z m 1204 126 b 1189 110 1204 115 1199 110 b 1172 126 1178 110 1172 115 l 1172 228 b 1189 244 1172 239 1178 244 b 1204 228 1199 244 1204 239 z m 1213 32 l 1243 32 l 1243 8 l 1213 8 z m 1178 33 b 1182 31 1181 33 1182 32 l 1182 26 b 1178 24 1182 25 1181 24 l 1157 24 l 1157 33 z m 969 32 l 1000 32 l 1000 8 l 969 8 z m 882 33 b 886 31 885 33 886 32 l 886 28 b 882 25 886 26 885 25 l 861 25 l 861 33 z m 882 18 b 886 15 885 18 886 17 l 886 11 b 882 8 886 10 885 8 l 861 8 l 861 18 z m 665 197 b 650 182 665 188 660 182 l 633 182 l 633 240 l 650 240 b 665 225 660 240 665 235 z m 542 154 l 521 154 l 531 226 z m 626 33 b 631 31 629 33 631 32 l 631 25 b 626 22 631 24 629 22 l 606 22 l 606 33 z m 558 33 l 568 17 l 550 17 z m 344 33 b 349 31 347 33 349 32 l 349 28 b 344 25 349 26 347 25 l 322 25 l 322 33 z m 344 18 b 349 15 347 18 349 17 l 349 11 b 344 8 349 10 347 8 l 322 8 l 322 18 z m 40 242 l 51 242 b 71 218 64 242 71 233 b 51 193 71 201 64 193 l 40 193 z m 207 33 b 211 31 210 33 211 32 l 211 26 b 207 24 211 25 210 24 l 186 24 l 186 33 z m 40 167 l 51 167 b 74 138 67 167 74 157 b 51 111 74 119 67 111 l 40 111 z m 767 644 l 813 644 l 789 803 z "},",":{"ha":1656,"x_min":0,"x_max":0,"o":"m 1576 131 b 1553 176 1576 146 1568 161 b 1517 226 1529 200 1517 217 b 1531 247 1517 240 1521 247 b 1549 224 1540 247 1547 239 l 1575 229 b 1531 272 1574 258 1558 272 b 1488 225 1501 272 1488 257 b 1494 197 1488 215 1490 207 b 1526 165 1504 186 1515 175 b 1549 129 1542 149 1549 136 b 1531 107 1549 115 1543 108 b 1511 136 1519 107 1513 117 l 1496 144 l 1485 135 b 1532 82 1486 100 1503 82 b 1576 131 1563 82 1578 99 z m 1407 83 l 1421 74 l 1435 83 l 1435 242 l 1465 242 l 1465 269 l 1378 269 l 1378 242 l 1407 242 z m 1539 0 l 1563 50 l 1557 50 l 1533 0 z m 1482 1 l 1482 28 l 1500 6 l 1501 6 l 1518 28 l 1518 1 l 1526 1 l 1526 40 l 1519 40 l 1501 17 l 1482 40 l 1475 40 l 1475 1 z m 669 844 l 381 813 l 597 614 l 538 331 l 793 475 l 1046 331 l 986 618 l 1201 813 l 910 846 l 792 1111 z m 1258 269 l 1249 256 l 1258 243 l 1258 83 l 1286 83 l 1286 203 l 1325 83 l 1356 83 l 1356 269 l 1326 269 l 1326 144 l 1290 269 z m 1410 11 b 1419 1 1410 4 1413 1 l 1449 1 b 1458 11 1456 1 1458 4 l 1458 31 b 1449 40 1458 38 1456 40 l 1419 40 b 1410 31 1413 40 1410 38 z m 1386 25 l 1394 26 l 1394 31 b 1385 40 1394 38 1392 40 l 1361 40 b 1351 31 1354 40 1351 38 l 1351 11 b 1361 1 1351 4 1354 1 l 1385 1 b 1394 11 1392 1 1394 4 l 1394 15 l 1386 17 l 1386 8 l 1361 8 l 1361 32 l 1386 32 z m 1189 272 b 1144 228 1160 272 1144 257 l 1144 126 b 1189 82 1144 97 1160 82 b 1233 126 1218 82 1233 97 l 1233 228 b 1189 272 1233 257 1218 272 z m 1322 15 l 1322 3 b 1324 1 1322 1 1322 1 l 1335 1 b 1336 4 1336 3 1336 3 l 1336 13 b 1335 15 1336 14 1336 14 z m 1310 33 l 1310 40 l 1264 40 l 1264 33 l 1282 33 l 1282 1 l 1292 1 l 1292 33 z m 1074 163 l 1111 163 l 1111 190 l 1074 190 l 1074 242 l 1125 242 l 1125 269 l 1046 269 l 1036 256 l 1046 242 l 1046 83 l 1074 83 z m 1204 11 b 1214 1 1204 4 1207 1 l 1243 1 b 1253 11 1250 1 1253 4 l 1253 31 b 1243 40 1253 38 1250 40 l 1214 40 b 1204 31 1207 40 1204 38 z m 1157 1 l 1157 17 l 1182 17 b 1192 24 1189 17 1192 19 l 1192 32 b 1182 40 1192 38 1189 40 l 1147 40 l 1147 1 z m 1007 111 l 958 111 l 958 269 l 944 281 l 931 269 l 931 83 l 1007 83 z m 1124 29 l 1131 31 l 1131 32 b 1121 40 1131 38 1128 40 l 1099 40 b 1089 31 1092 40 1089 38 l 1089 26 b 1099 17 1089 19 1092 17 l 1124 17 l 1124 8 l 1094 8 l 1094 13 l 1088 11 b 1097 1 1088 4 1090 1 l 1122 1 b 1132 11 1129 1 1132 4 l 1132 15 b 1122 25 1132 22 1129 25 l 1097 25 l 1097 33 l 1124 33 z m 1063 29 l 1072 31 b 1063 40 1072 38 1069 40 l 1035 40 b 1025 31 1028 40 1025 38 l 1025 11 b 1035 1 1025 4 1028 1 l 1063 1 b 1072 11 1069 1 1072 4 l 1072 24 l 1047 24 l 1047 17 l 1063 17 l 1063 8 l 1033 8 l 1033 32 l 1063 32 z m 911 83 l 911 111 l 860 111 l 860 163 l 897 163 l 897 190 l 860 190 l 860 242 l 911 242 l 911 269 l 832 269 l 822 256 l 832 242 l 832 83 z m 960 11 b 969 1 960 4 963 1 l 1000 1 b 1010 11 1007 1 1010 4 l 1010 31 b 1000 40 1010 38 1007 40 l 969 40 b 960 31 963 40 960 38 z m 950 1 l 950 8 l 921 8 l 921 40 l 911 40 l 911 1 z m 763 81 b 807 125 792 81 807 96 l 807 190 l 763 190 l 751 175 l 763 163 l 778 163 l 778 126 b 763 110 778 115 772 110 b 746 126 751 110 746 115 l 746 228 b 763 244 746 239 751 244 b 778 228 772 244 778 239 l 778 206 l 807 206 l 807 226 b 763 272 807 257 792 272 b 718 226 733 272 718 257 l 718 125 b 763 81 718 96 733 81 z m 883 1 b 896 8 892 1 896 4 l 896 14 b 889 21 896 18 893 19 b 894 28 893 22 894 24 l 894 32 b 886 40 894 38 892 40 l 851 40 l 851 1 z m 822 15 b 821 13 821 14 821 14 l 821 4 b 824 1 821 3 822 1 l 835 1 l 835 15 z m 606 269 l 596 256 l 606 243 l 606 83 l 633 83 l 633 154 l 651 154 l 668 83 l 699 83 l 678 165 b 693 199 688 174 693 185 l 693 225 b 649 269 693 254 678 269 z m 811 1 l 811 8 l 782 8 l 782 40 l 772 40 l 772 1 z m 758 1 l 758 8 l 726 8 l 726 18 l 744 18 l 744 25 l 726 25 l 726 33 l 758 33 l 758 40 l 717 40 l 717 1 z m 546 126 l 551 83 l 567 75 l 582 83 l 550 269 l 511 269 l 481 83 l 494 75 l 510 83 l 517 126 z m 692 29 l 701 31 b 692 40 701 38 699 40 l 664 40 b 654 31 657 40 654 38 l 654 11 b 664 1 654 4 657 1 l 692 1 b 701 11 699 1 701 4 l 701 24 l 676 24 l 676 17 l 692 17 l 692 8 l 663 8 l 663 32 l 692 32 z m 606 1 l 606 15 l 614 15 l 631 1 l 643 1 l 625 15 l 631 15 b 639 24 636 15 639 18 l 639 32 b 631 40 639 38 636 40 l 596 40 l 596 1 z m 542 1 l 546 10 l 571 10 l 576 1 l 586 1 l 564 40 l 554 40 l 532 1 z m 376 83 l 404 83 l 404 161 l 442 269 l 411 269 l 390 203 l 369 269 l 339 269 l 376 161 z m 513 1 l 513 19 l 533 40 l 522 40 l 508 25 l 496 40 l 483 40 l 504 18 l 504 1 z m 354 111 l 306 111 l 306 269 l 290 281 l 278 269 l 278 83 l 354 83 z m 489 1 l 489 8 l 458 8 l 458 40 l 449 40 l 449 1 z m 439 1 l 439 8 l 408 8 l 408 40 l 400 40 l 400 1 z m 258 111 l 210 111 l 210 269 l 194 281 l 182 269 l 182 83 l 258 83 z m 382 1 l 382 40 l 374 40 l 374 1 z m 346 1 b 357 8 353 1 357 4 l 357 14 b 350 21 357 18 354 19 b 357 28 354 22 357 24 l 357 32 b 349 40 357 38 354 40 l 314 40 l 314 1 z m 283 0 l 307 50 l 301 50 l 278 0 z m 157 269 l 128 269 l 128 83 l 142 74 l 157 83 z m 258 0 l 282 50 l 276 50 l 253 0 z m 238 40 b 233 39 236 40 235 40 l 233 26 l 247 26 l 247 39 b 244 40 246 40 246 40 z m 233 15 l 233 3 l 235 1 l 247 1 l 247 15 z m 61 83 b 104 136 90 83 104 101 b 81 181 104 160 96 175 b 100 218 93 188 100 200 b 51 269 100 253 83 269 l 10 269 l 0 254 l 10 242 l 10 83 z m 186 1 l 186 17 l 211 17 b 221 24 218 17 221 19 l 221 32 b 211 40 221 38 218 40 l 176 40 l 176 1 z m 165 33 l 165 40 l 119 40 l 119 33 l 138 33 l 138 1 l 146 1 l 146 33 z m 115 33 l 115 40 l 69 40 l 69 33 l 88 33 l 88 1 l 97 1 l 97 33 z m 19 1 l 19 18 l 49 18 l 49 1 l 57 1 l 57 40 l 49 40 l 49 25 l 19 25 l 19 40 l 10 40 l 10 1 z m 868 474 l 835 493 l 821 585 l 758 585 l 743 493 l 713 474 l 681 493 l 749 894 l 832 894 l 899 493 z m 1418 32 l 1450 32 l 1450 8 l 1418 8 z m 1204 126 b 1189 110 1204 115 1199 110 b 1172 126 1178 110 1172 115 l 1172 228 b 1189 244 1172 239 1178 244 b 1204 228 1199 244 1204 239 z m 1213 32 l 1243 32 l 1243 8 l 1213 8 z m 1178 33 b 1182 31 1181 33 1182 32 l 1182 26 b 1178 24 1182 25 1181 24 l 1157 24 l 1157 33 z m 969 32 l 1000 32 l 1000 8 l 969 8 z m 882 33 b 886 31 885 33 886 32 l 886 28 b 882 25 886 26 885 25 l 861 25 l 861 33 z m 882 18 b 886 15 885 18 886 17 l 886 11 b 882 8 886 10 885 8 l 861 8 l 861 18 z m 665 197 b 650 182 665 188 660 182 l 633 182 l 633 240 l 650 240 b 665 225 660 240 665 235 z m 542 154 l 521 154 l 531 226 z m 626 33 b 631 31 629 33 631 32 l 631 25 b 626 22 631 24 629 22 l 606 22 l 606 33 z m 558 33 l 568 17 l 550 17 z m 344 33 b 349 31 347 33 349 32 l 349 28 b 344 25 349 26 347 25 l 322 25 l 322 33 z m 344 18 b 349 15 347 18 349 17 l 349 11 b 344 8 349 10 347 8 l 322 8 l 322 18 z m 40 242 l 51 242 b 71 218 64 242 71 233 b 51 193 71 201 64 193 l 40 193 z m 207 33 b 211 31 210 33 211 32 l 211 26 b 207 24 211 25 210 24 l 186 24 l 186 33 z m 40 167 l 51 167 b 74 138 67 167 74 157 b 51 111 74 119 67 111 l 40 111 z m 767 644 l 813 644 l 789 803 z "},"":{"ha":1656,"x_min":0,"x_max":0,"o":"m 1576 131 b 1553 176 1576 146 1568 161 b 1517 226 1529 200 1517 217 b 1531 247 1517 240 1521 247 b 1549 224 1540 247 1547 239 l 1575 229 b 1531 272 1574 258 1558 272 b 1488 225 1501 272 1488 257 b 1494 197 1488 215 1490 207 b 1526 165 1504 186 1515 175 b 1549 129 1542 149 1549 136 b 1531 107 1549 115 1543 108 b 1511 136 1519 107 1513 117 l 1496 144 l 1485 135 b 1532 82 1486 100 1503 82 b 1576 131 1563 82 1578 99 z m 1407 83 l 1421 74 l 1435 83 l 1435 242 l 1465 242 l 1465 269 l 1378 269 l 1378 242 l 1407 242 z m 1539 0 l 1563 50 l 1557 50 l 1533 0 z m 1482 1 l 1482 28 l 1500 6 l 1501 6 l 1518 28 l 1518 1 l 1526 1 l 1526 40 l 1519 40 l 1501 17 l 1482 40 l 1475 40 l 1475 1 z m 669 844 l 381 813 l 597 614 l 538 331 l 793 475 l 1046 331 l 986 618 l 1201 813 l 910 846 l 792 1111 z m 1258 269 l 1249 256 l 1258 243 l 1258 83 l 1286 83 l 1286 203 l 1325 83 l 1356 83 l 1356 269 l 1326 269 l 1326 144 l 1290 269 z m 1410 11 b 1419 1 1410 4 1413 1 l 1449 1 b 1458 11 1456 1 1458 4 l 1458 31 b 1449 40 1458 38 1456 40 l 1419 40 b 1410 31 1413 40 1410 38 z m 1386 25 l 1394 26 l 1394 31 b 1385 40 1394 38 1392 40 l 1361 40 b 1351 31 1354 40 1351 38 l 1351 11 b 1361 1 1351 4 1354 1 l 1385 1 b 1394 11 1392 1 1394 4 l 1394 15 l 1386 17 l 1386 8 l 1361 8 l 1361 32 l 1386 32 z m 1189 272 b 1144 228 1160 272 1144 257 l 1144 126 b 1189 82 1144 97 1160 82 b 1233 126 1218 82 1233 97 l 1233 228 b 1189 272 1233 257 1218 272 z m 1322 15 l 1322 3 b 1324 1 1322 1 1322 1 l 1335 1 b 1336 4 1336 3 1336 3 l 1336 13 b 1335 15 1336 14 1336 14 z m 1310 33 l 1310 40 l 1264 40 l 1264 33 l 1282 33 l 1282 1 l 1292 1 l 1292 33 z m 1074 163 l 1111 163 l 1111 190 l 1074 190 l 1074 242 l 1125 242 l 1125 269 l 1046 269 l 1036 256 l 1046 242 l 1046 83 l 1074 83 z m 1204 11 b 1214 1 1204 4 1207 1 l 1243 1 b 1253 11 1250 1 1253 4 l 1253 31 b 1243 40 1253 38 1250 40 l 1214 40 b 1204 31 1207 40 1204 38 z m 1157 1 l 1157 17 l 1182 17 b 1192 24 1189 17 1192 19 l 1192 32 b 1182 40 1192 38 1189 40 l 1147 40 l 1147 1 z m 1007 111 l 958 111 l 958 269 l 944 281 l 931 269 l 931 83 l 1007 83 z m 1124 29 l 1131 31 l 1131 32 b 1121 40 1131 38 1128 40 l 1099 40 b 1089 31 1092 40 1089 38 l 1089 26 b 1099 17 1089 19 1092 17 l 1124 17 l 1124 8 l 1094 8 l 1094 13 l 1088 11 b 1097 1 1088 4 1090 1 l 1122 1 b 1132 11 1129 1 1132 4 l 1132 15 b 1122 25 1132 22 1129 25 l 1097 25 l 1097 33 l 1124 33 z m 1063 29 l 1072 31 b 1063 40 1072 38 1069 40 l 1035 40 b 1025 31 1028 40 1025 38 l 1025 11 b 1035 1 1025 4 1028 1 l 1063 1 b 1072 11 1069 1 1072 4 l 1072 24 l 1047 24 l 1047 17 l 1063 17 l 1063 8 l 1033 8 l 1033 32 l 1063 32 z m 911 83 l 911 111 l 860 111 l 860 163 l 897 163 l 897 190 l 860 190 l 860 242 l 911 242 l 911 269 l 832 269 l 822 256 l 832 242 l 832 83 z m 960 11 b 969 1 960 4 963 1 l 1000 1 b 1010 11 1007 1 1010 4 l 1010 31 b 1000 40 1010 38 1007 40 l 969 40 b 960 31 963 40 960 38 z m 950 1 l 950 8 l 921 8 l 921 40 l 911 40 l 911 1 z m 763 81 b 807 125 792 81 807 96 l 807 190 l 763 190 l 751 175 l 763 163 l 778 163 l 778 126 b 763 110 778 115 772 110 b 746 126 751 110 746 115 l 746 228 b 763 244 746 239 751 244 b 778 228 772 244 778 239 l 778 206 l 807 206 l 807 226 b 763 272 807 257 792 272 b 718 226 733 272 718 257 l 718 125 b 763 81 718 96 733 81 z m 883 1 b 896 8 892 1 896 4 l 896 14 b 889 21 896 18 893 19 b 894 28 893 22 894 24 l 894 32 b 886 40 894 38 892 40 l 851 40 l 851 1 z m 822 15 b 821 13 821 14 821 14 l 821 4 b 824 1 821 3 822 1 l 835 1 l 835 15 z m 606 269 l 596 256 l 606 243 l 606 83 l 633 83 l 633 154 l 651 154 l 668 83 l 699 83 l 678 165 b 693 199 688 174 693 185 l 693 225 b 649 269 693 254 678 269 z m 811 1 l 811 8 l 782 8 l 782 40 l 772 40 l 772 1 z m 758 1 l 758 8 l 726 8 l 726 18 l 744 18 l 744 25 l 726 25 l 726 33 l 758 33 l 758 40 l 717 40 l 717 1 z m 546 126 l 551 83 l 567 75 l 582 83 l 550 269 l 511 269 l 481 83 l 494 75 l 510 83 l 517 126 z m 692 29 l 701 31 b 692 40 701 38 699 40 l 664 40 b 654 31 657 40 654 38 l 654 11 b 664 1 654 4 657 1 l 692 1 b 701 11 699 1 701 4 l 701 24 l 676 24 l 676 17 l 692 17 l 692 8 l 663 8 l 663 32 l 692 32 z m 606 1 l 606 15 l 614 15 l 631 1 l 643 1 l 625 15 l 631 15 b 639 24 636 15 639 18 l 639 32 b 631 40 639 38 636 40 l 596 40 l 596 1 z m 542 1 l 546 10 l 571 10 l 576 1 l 586 1 l 564 40 l 554 40 l 532 1 z m 376 83 l 404 83 l 404 161 l 442 269 l 411 269 l 390 203 l 369 269 l 339 269 l 376 161 z m 513 1 l 513 19 l 533 40 l 522 40 l 508 25 l 496 40 l 483 40 l 504 18 l 504 1 z m 354 111 l 306 111 l 306 269 l 290 281 l 278 269 l 278 83 l 354 83 z m 489 1 l 489 8 l 458 8 l 458 40 l 449 40 l 449 1 z m 439 1 l 439 8 l 408 8 l 408 40 l 400 40 l 400 1 z m 258 111 l 210 111 l 210 269 l 194 281 l 182 269 l 182 83 l 258 83 z m 382 1 l 382 40 l 374 40 l 374 1 z m 346 1 b 357 8 353 1 357 4 l 357 14 b 350 21 357 18 354 19 b 357 28 354 22 357 24 l 357 32 b 349 40 357 38 354 40 l 314 40 l 314 1 z m 283 0 l 307 50 l 301 50 l 278 0 z m 157 269 l 128 269 l 128 83 l 142 74 l 157 83 z m 258 0 l 282 50 l 276 50 l 253 0 z m 238 40 b 233 39 236 40 235 40 l 233 26 l 247 26 l 247 39 b 244 40 246 40 246 40 z m 233 15 l 233 3 l 235 1 l 247 1 l 247 15 z m 61 83 b 104 136 90 83 104 101 b 81 181 104 160 96 175 b 100 218 93 188 100 200 b 51 269 100 253 83 269 l 10 269 l 0 254 l 10 242 l 10 83 z m 186 1 l 186 17 l 211 17 b 221 24 218 17 221 19 l 221 32 b 211 40 221 38 218 40 l 176 40 l 176 1 z m 165 33 l 165 40 l 119 40 l 119 33 l 138 33 l 138 1 l 146 1 l 146 33 z m 115 33 l 115 40 l 69 40 l 69 33 l 88 33 l 88 1 l 97 1 l 97 33 z m 19 1 l 19 18 l 49 18 l 49 1 l 57 1 l 57 40 l 49 40 l 49 25 l 19 25 l 19 40 l 10 40 l 10 1 z m 868 474 l 835 493 l 821 585 l 758 585 l 743 493 l 713 474 l 681 493 l 749 894 l 832 894 l 899 493 z m 1418 32 l 1450 32 l 1450 8 l 1418 8 z m 1204 126 b 1189 110 1204 115 1199 110 b 1172 126 1178 110 1172 115 l 1172 228 b 1189 244 1172 239 1178 244 b 1204 228 1199 244 1204 239 z m 1213 32 l 1243 32 l 1243 8 l 1213 8 z m 1178 33 b 1182 31 1181 33 1182 32 l 1182 26 b 1178 24 1182 25 1181 24 l 1157 24 l 1157 33 z m 969 32 l 1000 32 l 1000 8 l 969 8 z m 882 33 b 886 31 885 33 886 32 l 886 28 b 882 25 886 26 885 25 l 861 25 l 861 33 z m 882 18 b 886 15 885 18 886 17 l 886 11 b 882 8 886 10 885 8 l 861 8 l 861 18 z m 665 197 b 650 182 665 188 660 182 l 633 182 l 633 240 l 650 240 b 665 225 660 240 665 235 z m 542 154 l 521 154 l 531 226 z m 626 33 b 631 31 629 33 631 32 l 631 25 b 626 22 631 24 629 22 l 606 22 l 606 33 z m 558 33 l 568 17 l 550 17 z m 344 33 b 349 31 347 33 349 32 l 349 28 b 344 25 349 26 347 25 l 322 25 l 322 33 z m 344 18 b 349 15 347 18 349 17 l 349 11 b 344 8 349 10 347 8 l 322 8 l 322 18 z m 40 242 l 51 242 b 71 218 64 242 71 233 b 51 193 71 201 64 193 l 40 193 z m 207 33 b 211 31 210 33 211 32 l 211 26 b 207 24 211 25 210 24 l 186 24 l 186 33 z m 40 167 l 51 167 b 74 138 67 167 74 157 b 51 111 74 119 67 111 l 40 111 z m 767 644 l 813 644 l 789 803 z "},".":{"ha":1656,"x_min":0,"x_max":0,"o":"m 1576 131 b 1553 176 1576 146 1568 161 b 1517 226 1529 200 1517 217 b 1531 247 1517 240 1521 247 b 1549 224 1540 247 1547 239 l 1575 229 b 1531 272 1574 258 1558 272 b 1488 225 1501 272 1488 257 b 1494 197 1488 215 1490 207 b 1526 165 1504 186 1515 175 b 1549 129 1542 149 1549 136 b 1531 107 1549 115 1543 108 b 1511 136 1519 107 1513 117 l 1496 144 l 1485 135 b 1532 82 1486 100 1503 82 b 1576 131 1563 82 1578 99 z m 1407 83 l 1421 74 l 1435 83 l 1435 242 l 1465 242 l 1465 269 l 1378 269 l 1378 242 l 1407 242 z m 1539 0 l 1563 50 l 1557 50 l 1533 0 z m 1482 1 l 1482 28 l 1500 6 l 1501 6 l 1518 28 l 1518 1 l 1526 1 l 1526 40 l 1519 40 l 1501 17 l 1482 40 l 1475 40 l 1475 1 z m 669 844 l 381 813 l 597 614 l 538 331 l 793 475 l 1046 331 l 986 618 l 1201 813 l 910 846 l 792 1111 z m 1258 269 l 1249 256 l 1258 243 l 1258 83 l 1286 83 l 1286 203 l 1325 83 l 1356 83 l 1356 269 l 1326 269 l 1326 144 l 1290 269 z m 1410 11 b 1419 1 1410 4 1413 1 l 1449 1 b 1458 11 1456 1 1458 4 l 1458 31 b 1449 40 1458 38 1456 40 l 1419 40 b 1410 31 1413 40 1410 38 z m 1386 25 l 1394 26 l 1394 31 b 1385 40 1394 38 1392 40 l 1361 40 b 1351 31 1354 40 1351 38 l 1351 11 b 1361 1 1351 4 1354 1 l 1385 1 b 1394 11 1392 1 1394 4 l 1394 15 l 1386 17 l 1386 8 l 1361 8 l 1361 32 l 1386 32 z m 1189 272 b 1144 228 1160 272 1144 257 l 1144 126 b 1189 82 1144 97 1160 82 b 1233 126 1218 82 1233 97 l 1233 228 b 1189 272 1233 257 1218 272 z m 1322 15 l 1322 3 b 1324 1 1322 1 1322 1 l 1335 1 b 1336 4 1336 3 1336 3 l 1336 13 b 1335 15 1336 14 1336 14 z m 1310 33 l 1310 40 l 1264 40 l 1264 33 l 1282 33 l 1282 1 l 1292 1 l 1292 33 z m 1074 163 l 1111 163 l 1111 190 l 1074 190 l 1074 242 l 1125 242 l 1125 269 l 1046 269 l 1036 256 l 1046 242 l 1046 83 l 1074 83 z m 1204 11 b 1214 1 1204 4 1207 1 l 1243 1 b 1253 11 1250 1 1253 4 l 1253 31 b 1243 40 1253 38 1250 40 l 1214 40 b 1204 31 1207 40 1204 38 z m 1157 1 l 1157 17 l 1182 17 b 1192 24 1189 17 1192 19 l 1192 32 b 1182 40 1192 38 1189 40 l 1147 40 l 1147 1 z m 1007 111 l 958 111 l 958 269 l 944 281 l 931 269 l 931 83 l 1007 83 z m 1124 29 l 1131 31 l 1131 32 b 1121 40 1131 38 1128 40 l 1099 40 b 1089 31 1092 40 1089 38 l 1089 26 b 1099 17 1089 19 1092 17 l 1124 17 l 1124 8 l 1094 8 l 1094 13 l 1088 11 b 1097 1 1088 4 1090 1 l 1122 1 b 1132 11 1129 1 1132 4 l 1132 15 b 1122 25 1132 22 1129 25 l 1097 25 l 1097 33 l 1124 33 z m 1063 29 l 1072 31 b 1063 40 1072 38 1069 40 l 1035 40 b 1025 31 1028 40 1025 38 l 1025 11 b 1035 1 1025 4 1028 1 l 1063 1 b 1072 11 1069 1 1072 4 l 1072 24 l 1047 24 l 1047 17 l 1063 17 l 1063 8 l 1033 8 l 1033 32 l 1063 32 z m 911 83 l 911 111 l 860 111 l 860 163 l 897 163 l 897 190 l 860 190 l 860 242 l 911 242 l 911 269 l 832 269 l 822 256 l 832 242 l 832 83 z m 960 11 b 969 1 960 4 963 1 l 1000 1 b 1010 11 1007 1 1010 4 l 1010 31 b 1000 40 1010 38 1007 40 l 969 40 b 960 31 963 40 960 38 z m 950 1 l 950 8 l 921 8 l 921 40 l 911 40 l 911 1 z m 763 81 b 807 125 792 81 807 96 l 807 190 l 763 190 l 751 175 l 763 163 l 778 163 l 778 126 b 763 110 778 115 772 110 b 746 126 751 110 746 115 l 746 228 b 763 244 746 239 751 244 b 778 228 772 244 778 239 l 778 206 l 807 206 l 807 226 b 763 272 807 257 792 272 b 718 226 733 272 718 257 l 718 125 b 763 81 718 96 733 81 z m 883 1 b 896 8 892 1 896 4 l 896 14 b 889 21 896 18 893 19 b 894 28 893 22 894 24 l 894 32 b 886 40 894 38 892 40 l 851 40 l 851 1 z m 822 15 b 821 13 821 14 821 14 l 821 4 b 824 1 821 3 822 1 l 835 1 l 835 15 z m 606 269 l 596 256 l 606 243 l 606 83 l 633 83 l 633 154 l 651 154 l 668 83 l 699 83 l 678 165 b 693 199 688 174 693 185 l 693 225 b 649 269 693 254 678 269 z m 811 1 l 811 8 l 782 8 l 782 40 l 772 40 l 772 1 z m 758 1 l 758 8 l 726 8 l 726 18 l 744 18 l 744 25 l 726 25 l 726 33 l 758 33 l 758 40 l 717 40 l 717 1 z m 546 126 l 551 83 l 567 75 l 582 83 l 550 269 l 511 269 l 481 83 l 494 75 l 510 83 l 517 126 z m 692 29 l 701 31 b 692 40 701 38 699 40 l 664 40 b 654 31 657 40 654 38 l 654 11 b 664 1 654 4 657 1 l 692 1 b 701 11 699 1 701 4 l 701 24 l 676 24 l 676 17 l 692 17 l 692 8 l 663 8 l 663 32 l 692 32 z m 606 1 l 606 15 l 614 15 l 631 1 l 643 1 l 625 15 l 631 15 b 639 24 636 15 639 18 l 639 32 b 631 40 639 38 636 40 l 596 40 l 596 1 z m 542 1 l 546 10 l 571 10 l 576 1 l 586 1 l 564 40 l 554 40 l 532 1 z m 376 83 l 404 83 l 404 161 l 442 269 l 411 269 l 390 203 l 369 269 l 339 269 l 376 161 z m 513 1 l 513 19 l 533 40 l 522 40 l 508 25 l 496 40 l 483 40 l 504 18 l 504 1 z m 354 111 l 306 111 l 306 269 l 290 281 l 278 269 l 278 83 l 354 83 z m 489 1 l 489 8 l 458 8 l 458 40 l 449 40 l 449 1 z m 439 1 l 439 8 l 408 8 l 408 40 l 400 40 l 400 1 z m 258 111 l 210 111 l 210 269 l 194 281 l 182 269 l 182 83 l 258 83 z m 382 1 l 382 40 l 374 40 l 374 1 z m 346 1 b 357 8 353 1 357 4 l 357 14 b 350 21 357 18 354 19 b 357 28 354 22 357 24 l 357 32 b 349 40 357 38 354 40 l 314 40 l 314 1 z m 283 0 l 307 50 l 301 50 l 278 0 z m 157 269 l 128 269 l 128 83 l 142 74 l 157 83 z m 258 0 l 282 50 l 276 50 l 253 0 z m 238 40 b 233 39 236 40 235 40 l 233 26 l 247 26 l 247 39 b 244 40 246 40 246 40 z m 233 15 l 233 3 l 235 1 l 247 1 l 247 15 z m 61 83 b 104 136 90 83 104 101 b 81 181 104 160 96 175 b 100 218 93 188 100 200 b 51 269 100 253 83 269 l 10 269 l 0 254 l 10 242 l 10 83 z m 186 1 l 186 17 l 211 17 b 221 24 218 17 221 19 l 221 32 b 211 40 221 38 218 40 l 176 40 l 176 1 z m 165 33 l 165 40 l 119 40 l 119 33 l 138 33 l 138 1 l 146 1 l 146 33 z m 115 33 l 115 40 l 69 40 l 69 33 l 88 33 l 88 1 l 97 1 l 97 33 z m 19 1 l 19 18 l 49 18 l 49 1 l 57 1 l 57 40 l 49 40 l 49 25 l 19 25 l 19 40 l 10 40 l 10 1 z m 868 474 l 835 493 l 821 585 l 758 585 l 743 493 l 713 474 l 681 493 l 749 894 l 832 894 l 899 493 z m 1418 32 l 1450 32 l 1450 8 l 1418 8 z m 1204 126 b 1189 110 1204 115 1199 110 b 1172 126 1178 110 1172 115 l 1172 228 b 1189 244 1172 239 1178 244 b 1204 228 1199 244 1204 239 z m 1213 32 l 1243 32 l 1243 8 l 1213 8 z m 1178 33 b 1182 31 1181 33 1182 32 l 1182 26 b 1178 24 1182 25 1181 24 l 1157 24 l 1157 33 z m 969 32 l 1000 32 l 1000 8 l 969 8 z m 882 33 b 886 31 885 33 886 32 l 886 28 b 882 25 886 26 885 25 l 861 25 l 861 33 z m 882 18 b 886 15 885 18 886 17 l 886 11 b 882 8 886 10 885 8 l 861 8 l 861 18 z m 665 197 b 650 182 665 188 660 182 l 633 182 l 633 240 l 650 240 b 665 225 660 240 665 235 z m 542 154 l 521 154 l 531 226 z m 626 33 b 631 31 629 33 631 32 l 631 25 b 626 22 631 24 629 22 l 606 22 l 606 33 z m 558 33 l 568 17 l 550 17 z m 344 33 b 349 31 347 33 349 32 l 349 28 b 344 25 349 26 347 25 l 322 25 l 322 33 z m 344 18 b 349 15 347 18 349 17 l 349 11 b 344 8 349 10 347 8 l 322 8 l 322 18 z m 40 242 l 51 242 b 71 218 64 242 71 233 b 51 193 71 201 64 193 l 40 193 z m 207 33 b 211 31 210 33 211 32 l 211 26 b 207 24 211 25 210 24 l 186 24 l 186 33 z m 40 167 l 51 167 b 74 138 67 167 74 157 b 51 111 74 119 67 111 l 40 111 z m 767 644 l 813 644 l 789 803 z "},"/":{"ha":1656,"x_min":0,"x_max":0,"o":"m 1576 131 b 1553 176 1576 146 1568 161 b 1517 226 1529 200 1517 217 b 1531 247 1517 240 1521 247 b 1549 224 1540 247 1547 239 l 1575 229 b 1531 272 1574 258 1558 272 b 1488 225 1501 272 1488 257 b 1494 197 1488 215 1490 207 b 1526 165 1504 186 1515 175 b 1549 129 1542 149 1549 136 b 1531 107 1549 115 1543 108 b 1511 136 1519 107 1513 117 l 1496 144 l 1485 135 b 1532 82 1486 100 1503 82 b 1576 131 1563 82 1578 99 z m 1407 83 l 1421 74 l 1435 83 l 1435 242 l 1465 242 l 1465 269 l 1378 269 l 1378 242 l 1407 242 z m 1539 0 l 1563 50 l 1557 50 l 1533 0 z m 1482 1 l 1482 28 l 1500 6 l 1501 6 l 1518 28 l 1518 1 l 1526 1 l 1526 40 l 1519 40 l 1501 17 l 1482 40 l 1475 40 l 1475 1 z m 669 844 l 381 813 l 597 614 l 538 331 l 793 475 l 1046 331 l 986 618 l 1201 813 l 910 846 l 792 1111 z m 1258 269 l 1249 256 l 1258 243 l 1258 83 l 1286 83 l 1286 203 l 1325 83 l 1356 83 l 1356 269 l 1326 269 l 1326 144 l 1290 269 z m 1410 11 b 1419 1 1410 4 1413 1 l 1449 1 b 1458 11 1456 1 1458 4 l 1458 31 b 1449 40 1458 38 1456 40 l 1419 40 b 1410 31 1413 40 1410 38 z m 1386 25 l 1394 26 l 1394 31 b 1385 40 1394 38 1392 40 l 1361 40 b 1351 31 1354 40 1351 38 l 1351 11 b 1361 1 1351 4 1354 1 l 1385 1 b 1394 11 1392 1 1394 4 l 1394 15 l 1386 17 l 1386 8 l 1361 8 l 1361 32 l 1386 32 z m 1189 272 b 1144 228 1160 272 1144 257 l 1144 126 b 1189 82 1144 97 1160 82 b 1233 126 1218 82 1233 97 l 1233 228 b 1189 272 1233 257 1218 272 z m 1322 15 l 1322 3 b 1324 1 1322 1 1322 1 l 1335 1 b 1336 4 1336 3 1336 3 l 1336 13 b 1335 15 1336 14 1336 14 z m 1310 33 l 1310 40 l 1264 40 l 1264 33 l 1282 33 l 1282 1 l 1292 1 l 1292 33 z m 1074 163 l 1111 163 l 1111 190 l 1074 190 l 1074 242 l 1125 242 l 1125 269 l 1046 269 l 1036 256 l 1046 242 l 1046 83 l 1074 83 z m 1204 11 b 1214 1 1204 4 1207 1 l 1243 1 b 1253 11 1250 1 1253 4 l 1253 31 b 1243 40 1253 38 1250 40 l 1214 40 b 1204 31 1207 40 1204 38 z m 1157 1 l 1157 17 l 1182 17 b 1192 24 1189 17 1192 19 l 1192 32 b 1182 40 1192 38 1189 40 l 1147 40 l 1147 1 z m 1007 111 l 958 111 l 958 269 l 944 281 l 931 269 l 931 83 l 1007 83 z m 1124 29 l 1131 31 l 1131 32 b 1121 40 1131 38 1128 40 l 1099 40 b 1089 31 1092 40 1089 38 l 1089 26 b 1099 17 1089 19 1092 17 l 1124 17 l 1124 8 l 1094 8 l 1094 13 l 1088 11 b 1097 1 1088 4 1090 1 l 1122 1 b 1132 11 1129 1 1132 4 l 1132 15 b 1122 25 1132 22 1129 25 l 1097 25 l 1097 33 l 1124 33 z m 1063 29 l 1072 31 b 1063 40 1072 38 1069 40 l 1035 40 b 1025 31 1028 40 1025 38 l 1025 11 b 1035 1 1025 4 1028 1 l 1063 1 b 1072 11 1069 1 1072 4 l 1072 24 l 1047 24 l 1047 17 l 1063 17 l 1063 8 l 1033 8 l 1033 32 l 1063 32 z m 911 83 l 911 111 l 860 111 l 860 163 l 897 163 l 897 190 l 860 190 l 860 242 l 911 242 l 911 269 l 832 269 l 822 256 l 832 242 l 832 83 z m 960 11 b 969 1 960 4 963 1 l 1000 1 b 1010 11 1007 1 1010 4 l 1010 31 b 1000 40 1010 38 1007 40 l 969 40 b 960 31 963 40 960 38 z m 950 1 l 950 8 l 921 8 l 921 40 l 911 40 l 911 1 z m 763 81 b 807 125 792 81 807 96 l 807 190 l 763 190 l 751 175 l 763 163 l 778 163 l 778 126 b 763 110 778 115 772 110 b 746 126 751 110 746 115 l 746 228 b 763 244 746 239 751 244 b 778 228 772 244 778 239 l 778 206 l 807 206 l 807 226 b 763 272 807 257 792 272 b 718 226 733 272 718 257 l 718 125 b 763 81 718 96 733 81 z m 883 1 b 896 8 892 1 896 4 l 896 14 b 889 21 896 18 893 19 b 894 28 893 22 894 24 l 894 32 b 886 40 894 38 892 40 l 851 40 l 851 1 z m 822 15 b 821 13 821 14 821 14 l 821 4 b 824 1 821 3 822 1 l 835 1 l 835 15 z m 606 269 l 596 256 l 606 243 l 606 83 l 633 83 l 633 154 l 651 154 l 668 83 l 699 83 l 678 165 b 693 199 688 174 693 185 l 693 225 b 649 269 693 254 678 269 z m 811 1 l 811 8 l 782 8 l 782 40 l 772 40 l 772 1 z m 758 1 l 758 8 l 726 8 l 726 18 l 744 18 l 744 25 l 726 25 l 726 33 l 758 33 l 758 40 l 717 40 l 717 1 z m 546 126 l 551 83 l 567 75 l 582 83 l 550 269 l 511 269 l 481 83 l 494 75 l 510 83 l 517 126 z m 692 29 l 701 31 b 692 40 701 38 699 40 l 664 40 b 654 31 657 40 654 38 l 654 11 b 664 1 654 4 657 1 l 692 1 b 701 11 699 1 701 4 l 701 24 l 676 24 l 676 17 l 692 17 l 692 8 l 663 8 l 663 32 l 692 32 z m 606 1 l 606 15 l 614 15 l 631 1 l 643 1 l 625 15 l 631 15 b 639 24 636 15 639 18 l 639 32 b 631 40 639 38 636 40 l 596 40 l 596 1 z m 542 1 l 546 10 l 571 10 l 576 1 l 586 1 l 564 40 l 554 40 l 532 1 z m 376 83 l 404 83 l 404 161 l 442 269 l 411 269 l 390 203 l 369 269 l 339 269 l 376 161 z m 513 1 l 513 19 l 533 40 l 522 40 l 508 25 l 496 40 l 483 40 l 504 18 l 504 1 z m 354 111 l 306 111 l 306 269 l 290 281 l 278 269 l 278 83 l 354 83 z m 489 1 l 489 8 l 458 8 l 458 40 l 449 40 l 449 1 z m 439 1 l 439 8 l 408 8 l 408 40 l 400 40 l 400 1 z m 258 111 l 210 111 l 210 269 l 194 281 l 182 269 l 182 83 l 258 83 z m 382 1 l 382 40 l 374 40 l 374 1 z m 346 1 b 357 8 353 1 357 4 l 357 14 b 350 21 357 18 354 19 b 357 28 354 22 357 24 l 357 32 b 349 40 357 38 354 40 l 314 40 l 314 1 z m 283 0 l 307 50 l 301 50 l 278 0 z m 157 269 l 128 269 l 128 83 l 142 74 l 157 83 z m 258 0 l 282 50 l 276 50 l 253 0 z m 238 40 b 233 39 236 40 235 40 l 233 26 l 247 26 l 247 39 b 244 40 246 40 246 40 z m 233 15 l 233 3 l 235 1 l 247 1 l 247 15 z m 61 83 b 104 136 90 83 104 101 b 81 181 104 160 96 175 b 100 218 93 188 100 200 b 51 269 100 253 83 269 l 10 269 l 0 254 l 10 242 l 10 83 z m 186 1 l 186 17 l 211 17 b 221 24 218 17 221 19 l 221 32 b 211 40 221 38 218 40 l 176 40 l 176 1 z m 165 33 l 165 40 l 119 40 l 119 33 l 138 33 l 138 1 l 146 1 l 146 33 z m 115 33 l 115 40 l 69 40 l 69 33 l 88 33 l 88 1 l 97 1 l 97 33 z m 19 1 l 19 18 l 49 18 l 49 1 l 57 1 l 57 40 l 49 40 l 49 25 l 19 25 l 19 40 l 10 40 l 10 1 z m 868 474 l 835 493 l 821 585 l 758 585 l 743 493 l 713 474 l 681 493 l 749 894 l 832 894 l 899 493 z m 1418 32 l 1450 32 l 1450 8 l 1418 8 z m 1204 126 b 1189 110 1204 115 1199 110 b 1172 126 1178 110 1172 115 l 1172 228 b 1189 244 1172 239 1178 244 b 1204 228 1199 244 1204 239 z m 1213 32 l 1243 32 l 1243 8 l 1213 8 z m 1178 33 b 1182 31 1181 33 1182 32 l 1182 26 b 1178 24 1182 25 1181 24 l 1157 24 l 1157 33 z m 969 32 l 1000 32 l 1000 8 l 969 8 z m 882 33 b 886 31 885 33 886 32 l 886 28 b 882 25 886 26 885 25 l 861 25 l 861 33 z m 882 18 b 886 15 885 18 886 17 l 886 11 b 882 8 886 10 885 8 l 861 8 l 861 18 z m 665 197 b 650 182 665 188 660 182 l 633 182 l 633 240 l 650 240 b 665 225 660 240 665 235 z m 542 154 l 521 154 l 531 226 z m 626 33 b 631 31 629 33 631 32 l 631 25 b 626 22 631 24 629 22 l 606 22 l 606 33 z m 558 33 l 568 17 l 550 17 z m 344 33 b 349 31 347 33 349 32 l 349 28 b 344 25 349 26 347 25 l 322 25 l 322 33 z m 344 18 b 349 15 347 18 349 17 l 349 11 b 344 8 349 10 347 8 l 322 8 l 322 18 z m 40 242 l 51 242 b 71 218 64 242 71 233 b 51 193 71 201 64 193 l 40 193 z m 207 33 b 211 31 210 33 211 32 l 211 26 b 207 24 211 25 210 24 l 186 24 l 186 33 z m 40 167 l 51 167 b 74 138 67 167 74 157 b 51 111 74 119 67 111 l 40 111 z m 767 644 l 813 644 l 789 803 z "},":":{"ha":1486,"x_min":0,"x_max":0,"o":""},";":{"ha":1486,"x_min":0,"x_max":0,"o":""},"<":{"ha":1486,"x_min":0,"x_max":0,"o":""},"=":{"ha":1486,"x_min":0,"x_max":0,"o":""},">":{"ha":1486,"x_min":0,"x_max":0,"o":""},"?":{"ha":1486,"x_min":0,"x_max":0,"o":""},"@":{"ha":1486,"x_min":0,"x_max":0,"o":""},"A":{"ha":1488,"x_min":0,"x_max":0,"o":"m 294 -278 l 294 158 l 1097 158 l 1097 -278 l 1390 -278 l 1390 601 b 1242 963 1390 743 1340 864 b 881 1111 1143 1061 1022 1111 l 510 1111 b 149 961 369 1111 249 1061 b 0 601 50 863 0 742 l 0 -278 z m 294 453 l 294 601 b 357 753 294 661 315 711 b 510 817 400 796 450 817 l 881 817 b 1033 753 940 817 990 796 b 1097 601 1076 711 1097 661 l 1097 453 z "},"B":{"ha":1388,"x_min":0,"x_max":0,"o":"m 293 1111 l 0 1111 l 0 -278 l 293 -278 l 293 -275 l 842 -275 b 1117 -196 947 -275 1039 -249 b 1297 124 1229 -119 1289 -12 b 1185 432 1304 243 1267 346 b 1278 715 1253 514 1285 608 b 1096 1032 1269 850 1208 956 b 822 1108 1019 1083 929 1108 l 293 1108 z m 842 275 b 957 244 890 275 928 265 b 1003 139 990 221 1006 185 b 950 46 1001 97 983 67 b 842 18 921 28 885 18 l 293 18 l 293 275 z m 293 815 l 822 815 b 983 700 926 815 979 776 b 936 599 986 654 971 621 b 822 569 907 579 869 569 l 293 569 z "},"C":{"ha":1486,"x_min":0,"x_max":0,"o":"m 1094 231 b 1031 79 1094 172 1074 122 b 881 17 989 38 939 17 l 508 17 b 357 79 450 17 400 38 b 294 231 315 122 294 172 l 294 603 b 357 753 294 661 315 711 b 508 817 400 796 450 817 l 881 817 b 1031 753 939 817 989 796 b 1094 603 1074 711 1094 661 l 1389 603 b 1240 963 1389 743 1339 864 b 881 1111 1142 1061 1021 1111 l 508 1111 b 149 963 368 1111 247 1061 b 0 603 50 864 0 743 l 0 231 b 149 -129 0 90 50 -31 b 508 -278 247 -228 368 -278 l 881 -278 b 1240 -129 1021 -278 1142 -228 b 1389 231 1339 -31 1389 90 z "},"D":{"ha":1476,"x_min":0,"x_max":0,"o":"m 293 815 l 872 815 b 1024 751 932 815 982 794 b 1086 600 1065 710 1086 660 l 1086 231 b 1024 78 1086 171 1065 121 b 872 15 982 36 932 15 l 293 15 z m 293 1111 l 0 1111 l 0 -276 l 238 -276 l 238 -278 l 872 -278 b 1231 -129 1013 -278 1132 -228 b 1379 231 1329 -31 1379 90 l 1379 600 b 1231 960 1379 740 1329 861 b 872 1108 1132 1058 1013 1108 l 293 1108 z "},"E":{"ha":1415,"x_min":0,"x_max":0,"o":"m 661 417 l 664 563 l 658 563 l 658 567 l 624 567 l 572 567 b 540 565 554 565 543 565 l 524 565 b 432 569 488 565 457 567 b 296 671 342 579 296 614 b 314 733 296 692 301 713 b 476 815 346 788 400 815 l 850 815 b 1050 682 939 815 1017 764 l 1322 797 b 1133 1025 1282 893 1219 968 b 850 1111 1047 1082 953 1111 l 476 1111 b 218 1040 385 1111 299 1088 b 0 671 85 963 0 822 b 96 417 0 574 32 489 b 0 163 32 346 0 261 b 60 -50 0 88 19 17 b 238 -218 101 -121 161 -178 b 476 -278 311 -258 392 -278 l 850 -278 b 1133 -192 953 -278 1047 -249 b 1322 36 1219 -135 1282 -60 l 1050 151 b 850 18 1017 69 939 18 l 476 18 b 367 47 436 18 400 28 b 296 163 319 75 296 114 b 382 256 296 210 325 240 b 524 268 411 264 458 268 l 624 267 b 658 267 624 267 635 267 l 658 271 l 664 271 z "},"F":{"ha":1168,"x_min":0,"x_max":0,"o":"m 294 -278 l 294 276 l 924 276 l 924 571 l 294 571 l 294 601 b 357 753 294 661 315 711 b 510 817 400 796 450 817 l 1092 817 l 1092 1111 l 510 1111 b 149 961 369 1111 249 1061 b 0 601 50 863 0 742 l 0 -278 z "},"G":{"ha":1486,"x_min":0,"x_max":0,"o":"m 1389 603 b 1240 963 1389 743 1339 864 b 881 1111 1142 1061 1021 1111 l 508 1111 b 149 963 368 1111 247 1061 b 0 603 50 864 0 743 l 0 231 b 149 -129 0 90 50 -31 b 508 -278 247 -228 368 -278 l 881 -278 b 1206 -158 1004 -278 1113 -237 b 1381 142 1300 -79 1358 21 b 1388 192 1385 163 1386 179 b 1389 243 1389 207 1389 224 l 1389 533 l 526 533 l 526 239 l 1094 239 l 1094 228 b 1093 213 1093 222 1093 217 b 1092 193 1093 206 1093 199 b 1018 67 1083 142 1058 100 b 881 17 978 33 932 17 l 508 17 b 357 79 450 17 400 38 b 294 231 315 122 294 172 l 294 603 b 357 753 294 661 315 711 b 508 817 400 796 450 817 l 881 817 b 1031 753 939 817 989 796 b 1094 603 1074 711 1094 661 z "},"H":{"ha":1410,"x_min":0,"x_max":0,"o":"m 293 -278 l 293 233 l 1025 233 l 1025 -278 l 1318 -278 l 1318 1111 l 1025 1111 l 1025 526 l 293 526 l 293 1111 l 0 1111 l 0 -278 z "},"I":{"ha":314,"x_min":0,"x_max":0,"o":"m 293 -278 l 293 1111 l 0 1111 l 0 -278 z "},"J":{"ha":1344,"x_min":0,"x_max":0,"o":"m 0 231 b 149 -129 0 90 50 -31 b 508 -278 247 -228 368 -278 l 749 -278 b 1108 -129 889 -278 1010 -228 b 1257 231 1207 -31 1257 90 l 1257 1111 l 964 1111 l 964 231 b 900 79 964 172 943 122 b 749 17 857 38 807 17 l 508 17 b 357 79 450 17 400 38 b 294 231 315 122 294 172 z "},"K":{"ha":1319,"x_min":0,"x_max":0,"o":"m 924 1110 l 924 844 b 860 692 924 785 903 735 b 708 629 818 650 768 629 l 293 629 l 293 1111 l 0 1111 l 0 -278 l 293 -278 l 293 331 l 725 331 b 876 267 785 331 835 310 b 940 115 919 225 940 175 l 940 -276 l 1233 -276 l 1233 115 b 1071 488 1233 264 1179 388 b 1218 844 1169 586 1218 706 l 1218 1110 z "},"L":{"ha":1168,"x_min":0,"x_max":0,"o":"m 0 1111 l 0 232 b 149 -128 0 92 50 -29 b 510 -278 249 -228 369 -278 l 1092 -278 l 1092 17 l 510 17 b 357 79 450 17 400 38 b 294 232 315 122 294 172 l 294 1111 z "},"M":{"ha":1915,"x_min":0,"x_max":0,"o":"m 894 957 b 531 1111 793 1060 672 1111 l 510 1111 b 149 963 368 1111 247 1061 b 0 601 50 864 0 743 l 0 -278 l 294 -278 l 294 601 b 357 753 294 661 315 711 b 510 817 400 796 450 817 l 531 817 b 682 753 590 817 640 796 b 746 601 725 711 746 661 l 746 -278 l 1043 -278 l 1043 601 b 1106 753 1043 661 1064 711 b 1258 817 1149 796 1199 817 l 1281 817 b 1432 753 1340 817 1390 796 b 1496 601 1475 711 1496 661 l 1496 -278 l 1790 -278 l 1790 601 b 1642 963 1790 743 1740 864 b 1281 1111 1543 1061 1422 1111 l 1258 1111 b 894 957 1118 1111 996 1060 z "},"N":{"ha":1488,"x_min":0,"x_max":0,"o":"m 294 -278 l 294 601 b 357 753 294 661 315 711 b 510 817 400 796 450 817 l 881 817 b 1033 753 940 817 990 796 b 1097 601 1076 711 1097 661 l 1097 -278 l 1390 -278 l 1390 601 b 1242 963 1390 743 1340 864 b 881 1111 1143 1061 1022 1111 l 510 1111 b 149 963 368 1111 247 1061 b 0 601 50 864 0 743 l 0 -278 z "},"O":{"ha":1486,"x_min":0,"x_max":0,"o":"m 508 1111 b 149 963 368 1111 247 1061 b 0 603 50 864 0 743 l 0 231 b 149 -129 0 90 50 -31 b 508 -278 247 -228 368 -278 l 881 -278 b 1240 -129 1021 -278 1142 -228 b 1389 231 1339 -31 1389 90 l 1389 603 b 1240 963 1389 743 1339 864 b 881 1111 1142 1061 1021 1111 z m 881 817 b 1031 753 939 817 989 796 b 1094 603 1074 711 1094 661 l 1094 231 b 1031 79 1094 172 1074 122 b 881 17 989 38 939 17 l 508 17 b 357 79 450 17 400 38 b 294 231 315 122 294 172 l 294 603 b 357 753 294 661 315 711 b 508 817 400 796 450 817 z "},"P":{"ha":1371,"x_min":0,"x_max":0,"o":"m 293 1111 l 0 1111 l 0 -278 l 293 -278 l 293 143 l 822 143 b 1096 221 926 143 1018 169 b 1278 533 1208 296 1269 400 b 1281 639 1279 563 1281 597 b 1272 761 1281 688 1278 728 b 1096 1032 1254 876 1194 967 b 822 1108 1019 1083 929 1108 l 293 1108 z m 293 815 l 822 815 b 981 722 911 815 964 785 b 988 639 985 704 988 676 b 982 543 988 594 986 563 b 822 438 968 472 915 438 l 293 438 z "},"Q":{"ha":1486,"x_min":0,"x_max":0,"o":"m 881 817 b 1031 753 939 817 989 796 b 1094 603 1074 711 1094 661 l 1094 231 b 1031 79 1094 172 1074 122 b 881 17 989 38 939 17 l 508 17 b 357 79 450 17 400 38 b 294 231 315 122 294 172 l 294 603 b 357 753 294 661 315 711 b 508 817 400 796 450 817 z m 1340 15 b 1389 231 1372 83 1389 156 l 1389 603 b 1240 963 1389 743 1339 864 b 881 1111 1142 1061 1021 1111 l 508 1111 b 149 963 368 1111 247 1061 b 0 603 50 864 0 743 l 0 231 b 149 -129 0 90 50 -31 b 508 -278 247 -228 368 -278 l 1389 -278 l 1389 15 z "},"R":{"ha":1371,"x_min":0,"x_max":0,"o":"m 293 1111 l 0 1111 l 0 -278 l 293 -278 l 293 143 l 753 143 b 904 79 813 143 863 122 b 967 -72 946 38 967 -12 l 967 -276 l 1261 -276 l 1261 -72 b 1142 256 1261 51 1221 160 b 1278 533 1226 329 1271 422 b 1281 639 1279 564 1281 599 b 1272 761 1281 688 1278 728 b 1096 1032 1254 876 1194 967 b 822 1108 1019 1083 929 1108 l 293 1108 z m 293 815 l 822 815 b 981 722 911 815 964 785 b 988 639 985 704 988 676 b 982 543 988 594 986 563 b 822 438 968 472 915 438 l 293 438 z "},"S":{"ha":1472,"x_min":0,"x_max":0,"o":"m 335 669 b 353 732 335 690 340 711 b 515 814 385 786 439 814 l 892 814 b 1092 681 981 814 1058 763 l 1364 797 b 1175 1025 1324 893 1261 968 b 892 1111 1089 1082 994 1111 l 515 1111 b 257 1040 422 1111 336 1088 b 38 669 124 961 38 821 b 104 453 38 589 60 517 b 358 288 161 368 246 314 b 671 268 429 271 533 264 l 704 268 l 735 269 b 931 267 808 274 874 272 b 1079 164 1029 257 1079 224 b 1061 101 1079 143 1074 122 b 899 19 1029 47 975 19 l 474 19 b 272 153 385 19 307 71 l 0 36 b 189 -192 40 -58 103 -135 b 474 -278 276 -249 371 -278 l 899 -278 b 1157 -207 990 -278 1076 -254 b 1376 164 1290 -129 1376 13 b 1310 382 1376 244 1354 317 b 1047 547 1251 467 1164 521 b 728 567 975 564 868 571 b 708 565 721 567 715 567 b 699 565 701 565 699 565 l 664 565 b 476 567 549 565 486 565 b 335 669 382 576 335 611 z "},"T":{"ha":1124,"x_min":0,"x_max":0,"o":"m 1050 1111 l 0 1111 l 0 819 l 379 819 l 379 -278 l 671 -278 l 671 819 l 1050 819 z "},"U":{"ha":1486,"x_min":0,"x_max":0,"o":"m 1094 1111 l 1094 231 b 1031 78 1094 171 1074 121 b 879 15 989 36 939 15 l 508 15 b 357 79 450 15 400 36 b 293 231 314 122 293 172 l 293 1111 l 0 1111 l 0 231 b 149 -129 0 90 50 -31 b 508 -278 247 -228 368 -278 l 879 -278 b 1239 -129 1019 -278 1140 -228 b 1389 231 1339 -31 1389 90 l 1389 1111 z "},"V":{"ha":1735,"x_min":0,"x_max":0,"o":"m 318 1111 l 0 1111 l 579 -278 l 1042 -278 l 1621 1111 l 1303 1111 l 810 -69 z "},"W":{"ha":1915,"x_min":0,"x_max":0,"o":"m 1496 1111 l 1496 232 b 1432 79 1496 172 1475 122 b 1281 17 1390 38 1340 17 l 1258 17 b 1106 79 1199 17 1149 38 b 1043 232 1064 122 1043 172 l 1043 1111 l 746 1111 l 746 232 b 682 79 746 172 725 122 b 531 17 640 38 590 17 l 510 17 b 357 79 450 17 400 38 b 294 232 315 122 294 172 l 294 1111 l 0 1111 l 0 232 b 149 -128 0 92 50 -29 b 510 -278 249 -228 369 -278 l 531 -278 b 894 -124 672 -278 793 -226 b 1258 -278 996 -226 1117 -278 l 1281 -278 b 1642 -129 1422 -278 1543 -228 b 1790 232 1740 -31 1790 90 l 1790 1111 z "},"X":{"ha":1821,"x_min":0,"x_max":0,"o":"m 83 1111 l 653 465 l 0 -275 l 3 -278 l 393 -278 l 850 242 l 1308 -278 l 1701 -275 l 1049 465 l 1618 1111 l 1222 1111 l 850 690 l 479 1111 z "},"Y":{"ha":1488,"x_min":0,"x_max":0,"o":"m 1096 1111 l 1096 732 b 1032 579 1096 672 1075 622 b 881 517 990 538 940 517 l 510 517 b 357 579 450 517 400 538 b 294 732 315 622 294 672 l 294 1111 l 0 1111 l 0 732 b 149 372 0 592 50 471 b 510 224 249 274 369 224 l 519 224 l 519 -278 l 814 -278 l 814 224 l 881 224 b 1240 372 1021 224 1142 274 b 1390 732 1340 471 1390 592 l 1390 1111 z "},"Z":{"ha":1358,"x_min":0,"x_max":0,"o":"m 72 821 l 875 821 l 499 493 l 265 289 l 183 219 b -8 -75 56 111 -8 13 b 0 -131 -8 -93 -6 -112 b 226 -276 28 -224 103 -272 b 265 -278 258 -278 271 -278 l 1269 -278 l 1269 13 l 386 13 l 1078 614 b 1242 801 1160 686 1215 749 b 1269 908 1260 839 1269 874 b 1261 964 1269 926 1267 946 b 1035 1110 1233 1057 1158 1106 b 996 1111 1003 1111 990 1111 l 72 1111 z "},"[":{"ha":1486,"x_min":0,"x_max":0,"o":""},"\\":{"ha":1486,"x_min":0,"x_max":0,"o":""},"]":{"ha":1486,"x_min":0,"x_max":0,"o":""},"^":{"ha":1486,"x_min":0,"x_max":0,"o":""},"_":{"ha":1486,"x_min":0,"x_max":0,"o":""},"`":{"ha":1486,"x_min":0,"x_max":0,"o":""},"a":{"ha":1488,"x_min":0,"x_max":0,"o":"m 294 -278 l 294 158 l 1097 158 l 1097 -278 l 1390 -278 l 1390 601 b 1242 963 1390 743 1340 864 b 881 1111 1143 1061 1022 1111 l 510 1111 b 149 961 369 1111 249 1061 b 0 601 50 863 0 742 l 0 -278 z m 294 453 l 294 601 b 357 753 294 661 315 711 b 510 817 400 796 450 817 l 881 817 b 1033 753 940 817 990 796 b 1097 601 1076 711 1097 661 l 1097 453 z "},"b":{"ha":1388,"x_min":0,"x_max":0,"o":"m 293 1111 l 0 1111 l 0 -278 l 293 -278 l 293 -275 l 842 -275 b 1117 -196 947 -275 1039 -249 b 1297 124 1229 -119 1289 -12 b 1185 432 1304 243 1267 346 b 1278 715 1253 514 1285 608 b 1096 1032 1269 850 1208 956 b 822 1108 1019 1083 929 1108 l 293 1108 z m 842 275 b 957 244 890 275 928 265 b 1003 139 990 221 1006 185 b 950 46 1001 97 983 67 b 842 18 921 28 885 18 l 293 18 l 293 275 z m 293 815 l 822 815 b 983 700 926 815 979 776 b 936 599 986 654 971 621 b 822 569 907 579 869 569 l 293 569 z "},"c":{"ha":1486,"x_min":0,"x_max":0,"o":"m 1094 231 b 1031 79 1094 172 1074 122 b 881 17 989 38 939 17 l 508 17 b 357 79 450 17 400 38 b 294 231 315 122 294 172 l 294 603 b 357 753 294 661 315 711 b 508 817 400 796 450 817 l 881 817 b 1031 753 939 817 989 796 b 1094 603 1074 711 1094 661 l 1389 603 b 1240 963 1389 743 1339 864 b 881 1111 1142 1061 1021 1111 l 508 1111 b 149 963 368 1111 247 1061 b 0 603 50 864 0 743 l 0 231 b 149 -129 0 90 50 -31 b 508 -278 247 -228 368 -278 l 881 -278 b 1240 -129 1021 -278 1142 -228 b 1389 231 1339 -31 1389 90 z "},"d":{"ha":1476,"x_min":0,"x_max":0,"o":"m 293 815 l 872 815 b 1024 751 932 815 982 794 b 1086 600 1065 710 1086 660 l 1086 231 b 1024 78 1086 171 1065 121 b 872 15 982 36 932 15 l 293 15 z m 293 1111 l 0 1111 l 0 -276 l 238 -276 l 238 -278 l 872 -278 b 1231 -129 1013 -278 1132 -228 b 1379 231 1329 -31 1379 90 l 1379 600 b 1231 960 1379 740 1329 861 b 872 1108 1132 1058 1013 1108 l 293 1108 z "},"e":{"ha":1415,"x_min":0,"x_max":0,"o":"m 661 417 l 664 563 l 658 563 l 658 567 l 624 567 l 572 567 b 540 565 554 565 543 565 b 432 569 493 565 457 567 b 296 671 342 579 296 614 b 314 733 296 692 301 713 b 476 815 346 788 400 815 l 850 815 b 1050 682 939 815 1017 764 l 1322 797 b 1133 1025 1282 893 1219 968 b 850 1111 1047 1082 953 1111 l 476 1111 b 218 1040 385 1111 299 1088 b 0 671 85 963 0 822 b 96 417 0 574 32 489 b 0 163 32 346 0 261 b 60 -50 0 88 19 17 b 238 -218 101 -121 161 -178 b 476 -278 311 -258 392 -278 l 850 -278 b 1133 -192 953 -278 1047 -249 b 1322 36 1219 -135 1282 -60 l 1050 151 b 850 18 1017 69 939 18 l 476 18 b 367 47 436 18 400 28 b 296 163 319 75 296 114 b 382 256 296 210 325 240 b 524 268 411 264 458 268 l 624 267 b 658 267 624 267 635 267 l 658 271 l 664 271 z "},"f":{"ha":1168,"x_min":0,"x_max":0,"o":"m 294 -278 l 294 276 l 924 276 l 924 571 l 294 571 l 294 601 b 357 753 294 661 315 711 b 510 817 400 796 450 817 l 1092 817 l 1092 1111 l 510 1111 b 149 961 369 1111 249 1061 b 0 601 50 863 0 742 l 0 -278 z "},"g":{"ha":1486,"x_min":0,"x_max":0,"o":"m 1389 603 b 1240 963 1389 743 1339 864 b 881 1111 1142 1061 1021 1111 l 508 1111 b 149 963 368 1111 247 1061 b 0 603 50 864 0 743 l 0 231 b 149 -129 0 90 50 -31 b 508 -278 247 -228 368 -278 l 881 -278 b 1206 -158 1004 -278 1113 -237 b 1381 142 1300 -79 1358 21 b 1388 192 1385 163 1386 179 b 1389 243 1389 207 1389 224 l 1389 533 l 526 533 l 526 239 l 1094 239 l 1094 228 b 1093 213 1093 222 1093 217 b 1092 193 1093 206 1093 199 b 1018 67 1083 142 1058 100 b 881 17 978 33 932 17 l 508 17 b 357 79 450 17 400 38 b 294 231 315 122 294 172 l 294 603 b 357 753 294 661 315 711 b 508 817 400 796 450 817 l 881 817 b 1031 753 939 817 989 796 b 1094 603 1074 711 1094 661 z "},"h":{"ha":1410,"x_min":0,"x_max":0,"o":"m 293 -278 l 293 233 l 1025 233 l 1025 -278 l 1318 -278 l 1318 1111 l 1025 1111 l 1025 526 l 293 526 l 293 1111 l 0 1111 l 0 -278 z "},"i":{"ha":314,"x_min":0,"x_max":0,"o":"m 293 -278 l 293 1111 l 0 1111 l 0 -278 z "},"j":{"ha":1344,"x_min":0,"x_max":0,"o":"m 0 231 b 149 -129 0 90 50 -31 b 508 -278 247 -228 368 -278 l 749 -278 b 1108 -129 889 -278 1010 -228 b 1257 231 1207 -31 1257 90 l 1257 1111 l 964 1111 l 964 231 b 900 79 964 172 943 122 b 749 17 857 38 807 17 l 508 17 b 357 79 450 17 400 38 b 294 231 315 122 294 172 z "},"k":{"ha":1319,"x_min":0,"x_max":0,"o":"m 924 1110 l 924 844 b 860 692 924 785 903 735 b 708 629 818 650 768 629 l 293 629 l 293 1111 l 0 1111 l 0 -278 l 293 -278 l 293 331 l 725 331 b 876 267 785 331 835 310 b 940 115 919 225 940 175 l 940 -276 l 1233 -276 l 1233 115 b 1071 488 1233 264 1179 388 b 1218 844 1169 586 1218 706 l 1218 1110 z "},"l":{"ha":1168,"x_min":0,"x_max":0,"o":"m 0 1111 l 0 232 b 149 -128 0 92 50 -29 b 510 -278 249 -228 369 -278 l 1092 -278 l 1092 17 l 510 17 b 357 79 450 17 400 38 b 294 232 315 122 294 172 l 294 1111 z "},"m":{"ha":1915,"x_min":0,"x_max":0,"o":"m 894 957 b 531 1111 793 1060 672 1111 l 510 1111 b 149 961 369 1111 249 1061 b 0 601 50 863 0 742 l 0 -278 l 294 -278 l 294 601 b 357 753 294 661 315 711 b 510 817 400 796 450 817 l 531 817 b 682 753 590 817 640 796 b 746 601 725 711 746 661 l 746 -278 l 1043 -278 l 1043 601 b 1106 753 1043 661 1064 711 b 1258 817 1149 796 1199 817 l 1281 817 b 1432 753 1340 817 1390 796 b 1496 601 1475 711 1496 661 l 1496 -278 l 1790 -278 l 1790 601 b 1642 963 1790 743 1740 864 b 1281 1111 1543 1061 1422 1111 l 1258 1111 b 894 957 1118 1111 996 1060 z "},"n":{"ha":1488,"x_min":0,"x_max":0,"o":"m 294 -278 l 294 601 b 357 753 294 661 315 711 b 510 817 400 796 450 817 l 881 817 b 1033 753 940 817 990 796 b 1097 601 1076 711 1097 661 l 1097 -278 l 1390 -278 l 1390 601 b 1242 963 1390 743 1340 864 b 881 1111 1143 1061 1022 1111 l 510 1111 b 149 963 368 1111 247 1061 b 0 601 50 864 0 743 l 0 -278 z "},"o":{"ha":1486,"x_min":0,"x_max":0,"o":"m 508 1111 b 149 963 368 1111 247 1061 b 0 603 50 864 0 743 l 0 231 b 149 -129 0 90 50 -31 b 508 -278 247 -228 368 -278 l 881 -278 b 1240 -129 1021 -278 1142 -228 b 1389 231 1339 -31 1389 90 l 1389 603 b 1240 963 1389 743 1339 864 b 881 1111 1142 1061 1021 1111 z m 881 817 b 1031 753 939 817 989 796 b 1094 603 1074 711 1094 661 l 1094 231 b 1031 79 1094 172 1074 122 b 881 17 989 38 939 17 l 508 17 b 357 79 450 17 400 38 b 294 231 315 122 294 172 l 294 603 b 357 753 294 661 315 711 b 508 817 400 796 450 817 z "},"p":{"ha":1371,"x_min":0,"x_max":0,"o":"m 293 1111 l 0 1111 l 0 -278 l 293 -278 l 293 143 l 822 143 b 1096 221 926 143 1018 169 b 1278 533 1208 296 1269 400 b 1281 639 1279 563 1281 597 b 1272 761 1281 688 1278 728 b 1096 1032 1254 876 1194 967 b 822 1108 1019 1083 929 1108 l 293 1108 z m 293 815 l 822 815 b 981 722 911 815 964 785 b 988 639 985 704 988 676 b 982 543 988 594 986 563 b 822 438 968 472 915 438 l 293 438 z "},"q":{"ha":1486,"x_min":0,"x_max":0,"o":"m 881 817 b 1031 753 939 817 989 796 b 1094 603 1074 711 1094 661 l 1094 231 b 1031 79 1094 172 1074 122 b 881 17 989 38 939 17 l 508 17 b 357 79 450 17 400 38 b 294 231 315 122 294 172 l 294 603 b 357 753 294 661 315 711 b 508 817 400 796 450 817 z m 1340 15 b 1389 231 1372 83 1389 156 l 1389 603 b 1240 963 1389 743 1339 864 b 881 1111 1142 1061 1021 1111 l 508 1111 b 149 963 368 1111 247 1061 b 0 603 50 864 0 743 l 0 231 b 149 -129 0 90 50 -31 b 508 -278 247 -228 368 -278 l 1389 -278 l 1389 15 z "},"r":{"ha":1371,"x_min":0,"x_max":0,"o":"m 293 1111 l 0 1111 l 0 -278 l 293 -278 l 293 143 l 753 143 b 904 79 813 143 863 122 b 967 -72 946 38 967 -12 l 967 -276 l 1261 -276 l 1261 -72 b 1142 256 1261 51 1221 160 b 1278 533 1226 329 1271 422 b 1281 639 1279 564 1281 599 b 1272 761 1281 688 1278 728 b 1096 1032 1254 876 1194 967 b 822 1108 1019 1083 929 1108 l 293 1108 z m 293 815 l 822 815 b 981 722 911 815 964 785 b 988 639 985 704 988 676 b 982 543 988 594 986 563 b 822 438 968 472 915 438 l 293 438 z "},"s":{"ha":1472,"x_min":0,"x_max":0,"o":"m 335 669 b 353 732 335 690 340 711 b 515 814 385 786 439 814 l 892 814 b 1092 681 981 814 1058 763 l 1364 797 b 1175 1025 1324 893 1261 968 b 892 1111 1089 1082 994 1111 l 515 1111 b 257 1040 422 1111 336 1088 b 38 669 124 961 38 821 b 104 453 38 589 60 517 b 358 288 161 368 246 314 b 671 268 429 271 533 264 l 704 268 l 735 269 b 931 267 808 274 874 272 b 1079 164 1029 257 1079 224 b 1061 101 1079 143 1074 122 b 899 19 1029 47 975 19 l 474 19 b 272 153 385 19 307 71 l 0 36 b 189 -192 40 -58 103 -135 b 474 -278 276 -249 371 -278 l 899 -278 b 1157 -207 990 -278 1076 -254 b 1376 164 1290 -129 1376 13 b 1310 382 1376 244 1354 317 b 1047 547 1251 467 1164 521 b 728 567 975 564 868 571 b 708 565 721 567 715 567 b 699 565 701 565 699 565 l 664 565 b 476 567 549 565 486 565 b 335 669 382 576 335 611 z "},"t":{"ha":1124,"x_min":0,"x_max":0,"o":"m 1050 1111 l 0 1111 l 0 819 l 379 819 l 379 -278 l 671 -278 l 671 819 l 1050 819 z "},"u":{"ha":1486,"x_min":0,"x_max":0,"o":"m 1094 1111 l 1094 231 b 1031 78 1094 171 1074 121 b 879 15 989 36 939 15 l 508 15 b 357 79 450 15 400 36 b 293 231 314 122 293 172 l 293 1111 l 0 1111 l 0 231 b 149 -129 0 90 50 -31 b 508 -278 247 -228 368 -278 l 879 -278 b 1239 -129 1019 -278 1140 -228 b 1389 231 1339 -31 1389 90 l 1389 1111 z "},"v":{"ha":1735,"x_min":0,"x_max":0,"o":"m 318 1111 l 0 1111 l 579 -278 l 1042 -278 l 1621 1111 l 1303 1111 l 810 -69 z "},"w":{"ha":1915,"x_min":0,"x_max":0,"o":"m 1496 1111 l 1496 232 b 1432 79 1496 172 1475 122 b 1281 17 1390 38 1340 17 l 1258 17 b 1106 79 1199 17 1149 38 b 1043 232 1064 122 1043 172 l 1043 1111 l 746 1111 l 746 232 b 682 79 746 172 725 122 b 531 17 640 38 590 17 l 510 17 b 357 79 450 17 400 38 b 294 232 315 122 294 172 l 294 1111 l 0 1111 l 0 232 b 149 -128 0 92 50 -29 b 510 -278 249 -228 369 -278 l 531 -278 b 894 -124 672 -278 793 -226 b 1258 -278 996 -226 1117 -278 l 1281 -278 b 1640 -128 1421 -278 1542 -228 b 1790 232 1740 -29 1790 92 l 1790 1111 z "},"x":{"ha":1821,"x_min":0,"x_max":0,"o":"m 83 1111 l 653 465 l 0 -275 l 3 -278 l 393 -278 l 850 242 l 1308 -278 l 1701 -275 l 1049 465 l 1618 1111 l 1222 1111 l 850 690 l 479 1111 z "},"y":{"ha":1488,"x_min":0,"x_max":0,"o":"m 1096 1111 l 1096 732 b 1032 579 1096 672 1075 622 b 881 517 990 538 940 517 l 510 517 b 357 579 450 517 400 538 b 294 732 315 622 294 672 l 294 1111 l 0 1111 l 0 732 b 149 372 0 592 50 471 b 510 224 249 274 369 224 l 519 224 l 519 -278 l 814 -278 l 814 224 l 881 224 b 1240 372 1021 224 1142 274 b 1390 732 1340 471 1390 592 l 1390 1111 z "},"z":{"ha":1358,"x_min":0,"x_max":0,"o":"m 72 821 l 875 821 l 499 493 l 265 289 l 183 219 b -8 -75 56 111 -8 13 b 0 -131 -8 -93 -6 -112 b 226 -276 28 -224 103 -272 b 265 -278 258 -278 271 -278 l 1269 -278 l 1269 13 l 386 13 l 1078 614 b 1242 801 1160 686 1215 749 b 1269 908 1260 839 1269 874 b 1261 964 1269 926 1267 946 b 1035 1110 1233 1057 1158 1106 b 996 1111 1003 1111 990 1111 l 72 1111 z "}}}
